solid OpenSCAD_Model
  facet normal -0.994512 -0.104623 0
    outer loop
      vertex 28.1 45.8993 55
      vertex 28.065 46.232 65
      vertex 28.065 46.232 55
    endloop
  endfacet
  facet normal -0.994512 -0.104623 0
    outer loop
      vertex 28.065 46.232 65
      vertex 28.1 45.8993 55
      vertex 28.1 45.8993 65
    endloop
  endfacet
  facet normal 0.208059 0.978116 -0
    outer loop
      vertex 26.3328 44.3081 55
      vertex 26.0056 44.3777 65
      vertex 26.3328 44.3081 65
    endloop
  endfacet
  facet normal 0.208059 0.978116 0
    outer loop
      vertex 26.0056 44.3777 65
      vertex 26.3328 44.3081 55
      vertex 26.0056 44.3777 55
    endloop
  endfacet
  facet normal -0.406582 -0.913614 0
    outer loop
      vertex 26.9944 47.421 55
      vertex 27.3 47.285 65
      vertex 26.9944 47.421 65
    endloop
  endfacet
  facet normal -0.406582 -0.913614 -0
    outer loop
      vertex 27.3 47.285 65
      vertex 26.9944 47.421 55
      vertex 27.3 47.285 55
    endloop
  endfacet
  facet normal 0.951107 -0.308863 0
    outer loop
      vertex 24.935 46.232 65
      vertex 25.0383 46.5501 55
      vertex 25.0383 46.5501 65
    endloop
  endfacet
  facet normal 0.951107 -0.308863 0
    outer loop
      vertex 25.0383 46.5501 55
      vertex 24.935 46.232 65
      vertex 24.935 46.232 55
    endloop
  endfacet
  facet normal -0.743205 -0.669064 0
    outer loop
      vertex 27.7944 46.8398 55
      vertex 27.5706 47.0884 65
      vertex 27.5706 47.0884 55
    endloop
  endfacet
  facet normal -0.743205 -0.669064 0
    outer loop
      vertex 27.5706 47.0884 65
      vertex 27.7944 46.8398 55
      vertex 27.7944 46.8398 65
    endloop
  endfacet
  facet normal -0.743205 0.669064 0
    outer loop
      vertex 27.5706 44.7103 55
      vertex 27.7944 44.9589 65
      vertex 27.7944 44.9589 55
    endloop
  endfacet
  facet normal -0.743205 0.669064 0
    outer loop
      vertex 27.7944 44.9589 65
      vertex 27.5706 44.7103 55
      vertex 27.5706 44.7103 65
    endloop
  endfacet
  facet normal 0 1 -0
    outer loop
      vertex 26.6672 44.3081 55
      vertex 26.3328 44.3081 65
      vertex 26.6672 44.3081 65
    endloop
  endfacet
  facet normal 0 1 0
    outer loop
      vertex 26.3328 44.3081 65
      vertex 26.6672 44.3081 55
      vertex 26.3328 44.3081 55
    endloop
  endfacet
  facet normal 0.743205 0.669064 0
    outer loop
      vertex 25.4294 44.7103 65
      vertex 25.2056 44.9589 55
      vertex 25.2056 44.9589 65
    endloop
  endfacet
  facet normal 0.743205 0.669064 0
    outer loop
      vertex 25.2056 44.9589 55
      vertex 25.4294 44.7103 65
      vertex 25.4294 44.7103 55
    endloop
  endfacet
  facet normal -0.865972 -0.500093 0
    outer loop
      vertex 27.9617 46.5501 55
      vertex 27.7944 46.8398 65
      vertex 27.7944 46.8398 55
    endloop
  endfacet
  facet normal -0.865972 -0.500093 0
    outer loop
      vertex 27.7944 46.8398 65
      vertex 27.9617 46.5501 55
      vertex 27.9617 46.5501 65
    endloop
  endfacet
  facet normal -0.994509 0.104654 0
    outer loop
      vertex 28.065 45.5667 55
      vertex 28.1 45.8993 65
      vertex 28.1 45.8993 55
    endloop
  endfacet
  facet normal -0.994509 0.104654 0
    outer loop
      vertex 28.1 45.8993 65
      vertex 28.065 45.5667 55
      vertex 28.065 45.5667 65
    endloop
  endfacet
  facet normal -0.865972 0.500093 0
    outer loop
      vertex 27.7944 44.9589 55
      vertex 27.9617 45.2486 65
      vertex 27.9617 45.2486 55
    endloop
  endfacet
  facet normal -0.865972 0.500093 0
    outer loop
      vertex 27.9617 45.2486 65
      vertex 27.7944 44.9589 55
      vertex 27.7944 44.9589 65
    endloop
  endfacet
  facet normal 0.406582 0.913614 -0
    outer loop
      vertex 26.0056 44.3777 55
      vertex 25.7 44.5137 65
      vertex 26.0056 44.3777 65
    endloop
  endfacet
  facet normal 0.406582 0.913614 0
    outer loop
      vertex 25.7 44.5137 65
      vertex 26.0056 44.3777 55
      vertex 25.7 44.5137 55
    endloop
  endfacet
  facet normal -0.208059 0.978116 0
    outer loop
      vertex 26.9944 44.3777 55
      vertex 26.6672 44.3081 65
      vertex 26.9944 44.3777 65
    endloop
  endfacet
  facet normal -0.208059 0.978116 0
    outer loop
      vertex 26.6672 44.3081 65
      vertex 26.9944 44.3777 55
      vertex 26.6672 44.3081 55
    endloop
  endfacet
  facet normal -0.587781 0.80902 0
    outer loop
      vertex 27.5706 44.7103 55
      vertex 27.3 44.5137 65
      vertex 27.5706 44.7103 65
    endloop
  endfacet
  facet normal -0.587781 0.80902 0
    outer loop
      vertex 27.3 44.5137 65
      vertex 27.5706 44.7103 55
      vertex 27.3 44.5137 55
    endloop
  endfacet
  facet normal -0.406582 0.913614 0
    outer loop
      vertex 27.3 44.5137 55
      vertex 26.9944 44.3777 65
      vertex 27.3 44.5137 65
    endloop
  endfacet
  facet normal -0.406582 0.913614 0
    outer loop
      vertex 26.9944 44.3777 65
      vertex 27.3 44.5137 55
      vertex 26.9944 44.3777 55
    endloop
  endfacet
  facet normal -0.587781 -0.80902 0
    outer loop
      vertex 27.3 47.285 55
      vertex 27.5706 47.0884 65
      vertex 27.3 47.285 65
    endloop
  endfacet
  facet normal -0.587781 -0.80902 -0
    outer loop
      vertex 27.5706 47.0884 65
      vertex 27.3 47.285 55
      vertex 27.5706 47.0884 55
    endloop
  endfacet
  facet normal 0.743205 -0.669064 0
    outer loop
      vertex 25.2056 46.8398 65
      vertex 25.4294 47.0884 55
      vertex 25.4294 47.0884 65
    endloop
  endfacet
  facet normal 0.743205 -0.669064 0
    outer loop
      vertex 25.4294 47.0884 55
      vertex 25.2056 46.8398 65
      vertex 25.2056 46.8398 55
    endloop
  endfacet
  facet normal 0.587781 -0.80902 0
    outer loop
      vertex 25.4294 47.0884 55
      vertex 25.7 47.285 65
      vertex 25.4294 47.0884 65
    endloop
  endfacet
  facet normal 0.587781 -0.80902 0
    outer loop
      vertex 25.7 47.285 65
      vertex 25.4294 47.0884 55
      vertex 25.7 47.285 55
    endloop
  endfacet
  facet normal 0.406582 -0.913614 0
    outer loop
      vertex 25.7 47.285 55
      vertex 26.0056 47.421 65
      vertex 25.7 47.285 65
    endloop
  endfacet
  facet normal 0.406582 -0.913614 0
    outer loop
      vertex 26.0056 47.421 65
      vertex 25.7 47.285 55
      vertex 26.0056 47.421 55
    endloop
  endfacet
  facet normal 0 -1 0
    outer loop
      vertex 26.3328 47.4906 55
      vertex 26.6672 47.4906 65
      vertex 26.3328 47.4906 65
    endloop
  endfacet
  facet normal 0 -1 -0
    outer loop
      vertex 26.6672 47.4906 65
      vertex 26.3328 47.4906 55
      vertex 26.6672 47.4906 55
    endloop
  endfacet
  facet normal 0.865972 -0.500093 0
    outer loop
      vertex 25.0383 46.5501 65
      vertex 25.2056 46.8398 55
      vertex 25.2056 46.8398 65
    endloop
  endfacet
  facet normal 0.865972 -0.500093 0
    outer loop
      vertex 25.2056 46.8398 55
      vertex 25.0383 46.5501 65
      vertex 25.0383 46.5501 55
    endloop
  endfacet
  facet normal 0.994509 0.104654 0
    outer loop
      vertex 24.935 45.5667 65
      vertex 24.9 45.8993 55
      vertex 24.9 45.8993 65
    endloop
  endfacet
  facet normal 0.994509 0.104654 0
    outer loop
      vertex 24.9 45.8993 55
      vertex 24.935 45.5667 65
      vertex 24.935 45.5667 55
    endloop
  endfacet
  facet normal 0.865972 0.500093 0
    outer loop
      vertex 25.2056 44.9589 65
      vertex 25.0383 45.2486 55
      vertex 25.0383 45.2486 65
    endloop
  endfacet
  facet normal 0.865972 0.500093 0
    outer loop
      vertex 25.0383 45.2486 55
      vertex 25.2056 44.9589 65
      vertex 25.2056 44.9589 55
    endloop
  endfacet
  facet normal 0.587781 0.80902 -0
    outer loop
      vertex 25.7 44.5137 55
      vertex 25.4294 44.7103 65
      vertex 25.7 44.5137 65
    endloop
  endfacet
  facet normal 0.587781 0.80902 0
    outer loop
      vertex 25.4294 44.7103 65
      vertex 25.7 44.5137 55
      vertex 25.4294 44.7103 55
    endloop
  endfacet
  facet normal 0.951107 0.308863 0
    outer loop
      vertex 25.0383 45.2486 65
      vertex 24.935 45.5667 55
      vertex 24.935 45.5667 65
    endloop
  endfacet
  facet normal 0.951107 0.308863 0
    outer loop
      vertex 24.935 45.5667 55
      vertex 25.0383 45.2486 65
      vertex 25.0383 45.2486 55
    endloop
  endfacet
  facet normal -0.951107 -0.308863 0
    outer loop
      vertex 28.065 46.232 55
      vertex 27.9617 46.5501 65
      vertex 27.9617 46.5501 55
    endloop
  endfacet
  facet normal -0.951107 -0.308863 0
    outer loop
      vertex 27.9617 46.5501 65
      vertex 28.065 46.232 55
      vertex 28.065 46.232 65
    endloop
  endfacet
  facet normal -0.951107 0.308863 0
    outer loop
      vertex 27.9617 45.2486 55
      vertex 28.065 45.5667 65
      vertex 28.065 45.5667 55
    endloop
  endfacet
  facet normal -0.951107 0.308863 0
    outer loop
      vertex 28.065 45.5667 65
      vertex 27.9617 45.2486 55
      vertex 27.9617 45.2486 65
    endloop
  endfacet
  facet normal 0.208059 -0.978116 0
    outer loop
      vertex 26.0056 47.421 55
      vertex 26.3328 47.4906 65
      vertex 26.0056 47.421 65
    endloop
  endfacet
  facet normal 0.208059 -0.978116 0
    outer loop
      vertex 26.3328 47.4906 65
      vertex 26.0056 47.421 55
      vertex 26.3328 47.4906 55
    endloop
  endfacet
  facet normal -0.208059 -0.978116 0
    outer loop
      vertex 26.6672 47.4906 55
      vertex 26.9944 47.421 65
      vertex 26.6672 47.4906 65
    endloop
  endfacet
  facet normal -0.208059 -0.978116 -0
    outer loop
      vertex 26.9944 47.421 65
      vertex 26.6672 47.4906 55
      vertex 26.9944 47.421 55
    endloop
  endfacet
  facet normal 0.994512 -0.104623 0
    outer loop
      vertex 24.9 45.8993 65
      vertex 24.935 46.232 55
      vertex 24.935 46.232 65
    endloop
  endfacet
  facet normal 0.994512 -0.104623 0
    outer loop
      vertex 24.935 46.232 55
      vertex 24.9 45.8993 65
      vertex 24.9 45.8993 55
    endloop
  endfacet
  facet normal 0.743205 -0.669064 0
    outer loop
      vertex 25.2056 -44.9589 65
      vertex 25.4294 -44.7103 55
      vertex 25.4294 -44.7103 65
    endloop
  endfacet
  facet normal 0.743205 -0.669064 0
    outer loop
      vertex 25.4294 -44.7103 55
      vertex 25.2056 -44.9589 65
      vertex 25.2056 -44.9589 55
    endloop
  endfacet
  facet normal 0 1 -0
    outer loop
      vertex 26.6672 -47.4906 55
      vertex 26.3328 -47.4906 65
      vertex 26.6672 -47.4906 65
    endloop
  endfacet
  facet normal 0 1 0
    outer loop
      vertex 26.3328 -47.4906 65
      vertex 26.6672 -47.4906 55
      vertex 26.3328 -47.4906 55
    endloop
  endfacet
  facet normal -0.208059 0.978116 0
    outer loop
      vertex 26.9944 -47.421 55
      vertex 26.6672 -47.4906 65
      vertex 26.9944 -47.421 65
    endloop
  endfacet
  facet normal -0.208059 0.978116 0
    outer loop
      vertex 26.6672 -47.4906 65
      vertex 26.9944 -47.421 55
      vertex 26.6672 -47.4906 55
    endloop
  endfacet
  facet normal 0.587781 0.80902 -0
    outer loop
      vertex 25.7 -47.285 55
      vertex 25.4294 -47.0884 65
      vertex 25.7 -47.285 65
    endloop
  endfacet
  facet normal 0.587781 0.80902 0
    outer loop
      vertex 25.4294 -47.0884 65
      vertex 25.7 -47.285 55
      vertex 25.4294 -47.0884 55
    endloop
  endfacet
  facet normal 0.951107 0.308863 0
    outer loop
      vertex 25.0383 -46.5501 65
      vertex 24.935 -46.232 55
      vertex 24.935 -46.232 65
    endloop
  endfacet
  facet normal 0.951107 0.308863 0
    outer loop
      vertex 24.935 -46.232 55
      vertex 25.0383 -46.5501 65
      vertex 25.0383 -46.5501 55
    endloop
  endfacet
  facet normal 0.208059 0.978116 -0
    outer loop
      vertex 26.3328 -47.4906 55
      vertex 26.0056 -47.421 65
      vertex 26.3328 -47.4906 65
    endloop
  endfacet
  facet normal 0.208059 0.978116 0
    outer loop
      vertex 26.0056 -47.421 65
      vertex 26.3328 -47.4906 55
      vertex 26.0056 -47.421 55
    endloop
  endfacet
  facet normal 0.865972 0.500093 0
    outer loop
      vertex 25.2056 -46.8398 65
      vertex 25.0383 -46.5501 55
      vertex 25.0383 -46.5501 65
    endloop
  endfacet
  facet normal 0.865972 0.500093 0
    outer loop
      vertex 25.0383 -46.5501 55
      vertex 25.2056 -46.8398 65
      vertex 25.2056 -46.8398 55
    endloop
  endfacet
  facet normal 0.406582 0.913614 -0
    outer loop
      vertex 26.0056 -47.421 55
      vertex 25.7 -47.285 65
      vertex 26.0056 -47.421 65
    endloop
  endfacet
  facet normal 0.406582 0.913614 0
    outer loop
      vertex 25.7 -47.285 65
      vertex 26.0056 -47.421 55
      vertex 25.7 -47.285 55
    endloop
  endfacet
  facet normal 0.587781 -0.80902 0
    outer loop
      vertex 25.4294 -44.7103 55
      vertex 25.7 -44.5137 65
      vertex 25.4294 -44.7103 65
    endloop
  endfacet
  facet normal 0.587781 -0.80902 0
    outer loop
      vertex 25.7 -44.5137 65
      vertex 25.4294 -44.7103 55
      vertex 25.7 -44.5137 55
    endloop
  endfacet
  facet normal 0.951107 -0.308863 0
    outer loop
      vertex 24.935 -45.5667 65
      vertex 25.0383 -45.2486 55
      vertex 25.0383 -45.2486 65
    endloop
  endfacet
  facet normal 0.951107 -0.308863 0
    outer loop
      vertex 25.0383 -45.2486 55
      vertex 24.935 -45.5667 65
      vertex 24.935 -45.5667 55
    endloop
  endfacet
  facet normal 0.994512 0.104623 0
    outer loop
      vertex 24.935 -46.232 65
      vertex 24.9 -45.8993 55
      vertex 24.9 -45.8993 65
    endloop
  endfacet
  facet normal 0.994512 0.104623 0
    outer loop
      vertex 24.9 -45.8993 55
      vertex 24.935 -46.232 65
      vertex 24.935 -46.232 55
    endloop
  endfacet
  facet normal 0.994509 -0.104654 0
    outer loop
      vertex 24.9 -45.8993 65
      vertex 24.935 -45.5667 55
      vertex 24.935 -45.5667 65
    endloop
  endfacet
  facet normal 0.994509 -0.104654 0
    outer loop
      vertex 24.935 -45.5667 55
      vertex 24.9 -45.8993 65
      vertex 24.9 -45.8993 55
    endloop
  endfacet
  facet normal -0.406582 0.913614 0
    outer loop
      vertex 27.3 -47.285 55
      vertex 26.9944 -47.421 65
      vertex 27.3 -47.285 65
    endloop
  endfacet
  facet normal -0.406582 0.913614 0
    outer loop
      vertex 26.9944 -47.421 65
      vertex 27.3 -47.285 55
      vertex 26.9944 -47.421 55
    endloop
  endfacet
  facet normal -0.587781 0.80902 0
    outer loop
      vertex 27.5706 -47.0884 55
      vertex 27.3 -47.285 65
      vertex 27.5706 -47.0884 65
    endloop
  endfacet
  facet normal -0.587781 0.80902 0
    outer loop
      vertex 27.3 -47.285 65
      vertex 27.5706 -47.0884 55
      vertex 27.3 -47.285 55
    endloop
  endfacet
  facet normal -0.743205 0.669064 0
    outer loop
      vertex 27.5706 -47.0884 55
      vertex 27.7944 -46.8398 65
      vertex 27.7944 -46.8398 55
    endloop
  endfacet
  facet normal -0.743205 0.669064 0
    outer loop
      vertex 27.7944 -46.8398 65
      vertex 27.5706 -47.0884 55
      vertex 27.5706 -47.0884 65
    endloop
  endfacet
  facet normal -0.406582 -0.913614 0
    outer loop
      vertex 26.9944 -44.3777 55
      vertex 27.3 -44.5137 65
      vertex 26.9944 -44.3777 65
    endloop
  endfacet
  facet normal -0.406582 -0.913614 -0
    outer loop
      vertex 27.3 -44.5137 65
      vertex 26.9944 -44.3777 55
      vertex 27.3 -44.5137 55
    endloop
  endfacet
  facet normal 0 -1 0
    outer loop
      vertex 26.3328 -44.3081 55
      vertex 26.6672 -44.3081 65
      vertex 26.3328 -44.3081 65
    endloop
  endfacet
  facet normal 0 -1 -0
    outer loop
      vertex 26.6672 -44.3081 65
      vertex 26.3328 -44.3081 55
      vertex 26.6672 -44.3081 55
    endloop
  endfacet
  facet normal 0.743205 0.669064 0
    outer loop
      vertex 25.4294 -47.0884 65
      vertex 25.2056 -46.8398 55
      vertex 25.2056 -46.8398 65
    endloop
  endfacet
  facet normal 0.743205 0.669064 0
    outer loop
      vertex 25.2056 -46.8398 55
      vertex 25.4294 -47.0884 65
      vertex 25.4294 -47.0884 55
    endloop
  endfacet
  facet normal 0.865972 -0.500093 0
    outer loop
      vertex 25.0383 -45.2486 65
      vertex 25.2056 -44.9589 55
      vertex 25.2056 -44.9589 65
    endloop
  endfacet
  facet normal 0.865972 -0.500093 0
    outer loop
      vertex 25.2056 -44.9589 55
      vertex 25.0383 -45.2486 65
      vertex 25.0383 -45.2486 55
    endloop
  endfacet
  facet normal -0.865972 0.500093 0
    outer loop
      vertex 27.7944 -46.8398 55
      vertex 27.9617 -46.5501 65
      vertex 27.9617 -46.5501 55
    endloop
  endfacet
  facet normal -0.865972 0.500093 0
    outer loop
      vertex 27.9617 -46.5501 65
      vertex 27.7944 -46.8398 55
      vertex 27.7944 -46.8398 65
    endloop
  endfacet
  facet normal -0.865972 -0.500093 0
    outer loop
      vertex 27.9617 -45.2486 55
      vertex 27.7944 -44.9589 65
      vertex 27.7944 -44.9589 55
    endloop
  endfacet
  facet normal -0.865972 -0.500093 0
    outer loop
      vertex 27.7944 -44.9589 65
      vertex 27.9617 -45.2486 55
      vertex 27.9617 -45.2486 65
    endloop
  endfacet
  facet normal -0.208059 -0.978116 0
    outer loop
      vertex 26.6672 -44.3081 55
      vertex 26.9944 -44.3777 65
      vertex 26.6672 -44.3081 65
    endloop
  endfacet
  facet normal -0.208059 -0.978116 -0
    outer loop
      vertex 26.9944 -44.3777 65
      vertex 26.6672 -44.3081 55
      vertex 26.9944 -44.3777 55
    endloop
  endfacet
  facet normal -0.951107 -0.308863 0
    outer loop
      vertex 28.065 -45.5667 55
      vertex 27.9617 -45.2486 65
      vertex 27.9617 -45.2486 55
    endloop
  endfacet
  facet normal -0.951107 -0.308863 0
    outer loop
      vertex 27.9617 -45.2486 65
      vertex 28.065 -45.5667 55
      vertex 28.065 -45.5667 65
    endloop
  endfacet
  facet normal -0.994509 -0.104654 0
    outer loop
      vertex 28.1 -45.8993 55
      vertex 28.065 -45.5667 65
      vertex 28.065 -45.5667 55
    endloop
  endfacet
  facet normal -0.994509 -0.104654 0
    outer loop
      vertex 28.065 -45.5667 65
      vertex 28.1 -45.8993 55
      vertex 28.1 -45.8993 65
    endloop
  endfacet
  facet normal -0.951107 0.308863 0
    outer loop
      vertex 27.9617 -46.5501 55
      vertex 28.065 -46.232 65
      vertex 28.065 -46.232 55
    endloop
  endfacet
  facet normal -0.951107 0.308863 0
    outer loop
      vertex 28.065 -46.232 65
      vertex 27.9617 -46.5501 55
      vertex 27.9617 -46.5501 65
    endloop
  endfacet
  facet normal -0.994512 0.104623 0
    outer loop
      vertex 28.065 -46.232 55
      vertex 28.1 -45.8993 65
      vertex 28.1 -45.8993 55
    endloop
  endfacet
  facet normal -0.994512 0.104623 0
    outer loop
      vertex 28.1 -45.8993 65
      vertex 28.065 -46.232 55
      vertex 28.065 -46.232 65
    endloop
  endfacet
  facet normal -0.743205 -0.669064 0
    outer loop
      vertex 27.7944 -44.9589 55
      vertex 27.5706 -44.7103 65
      vertex 27.5706 -44.7103 55
    endloop
  endfacet
  facet normal -0.743205 -0.669064 0
    outer loop
      vertex 27.5706 -44.7103 65
      vertex 27.7944 -44.9589 55
      vertex 27.7944 -44.9589 65
    endloop
  endfacet
  facet normal 0.208059 -0.978116 0
    outer loop
      vertex 26.0056 -44.3777 55
      vertex 26.3328 -44.3081 65
      vertex 26.0056 -44.3777 65
    endloop
  endfacet
  facet normal 0.208059 -0.978116 0
    outer loop
      vertex 26.3328 -44.3081 65
      vertex 26.0056 -44.3777 55
      vertex 26.3328 -44.3081 55
    endloop
  endfacet
  facet normal 0.406582 -0.913614 0
    outer loop
      vertex 25.7 -44.5137 55
      vertex 26.0056 -44.3777 65
      vertex 25.7 -44.5137 65
    endloop
  endfacet
  facet normal 0.406582 -0.913614 0
    outer loop
      vertex 26.0056 -44.3777 65
      vertex 25.7 -44.5137 55
      vertex 26.0056 -44.3777 55
    endloop
  endfacet
  facet normal -0.587781 -0.80902 0
    outer loop
      vertex 27.3 -44.5137 55
      vertex 27.5706 -44.7103 65
      vertex 27.3 -44.5137 65
    endloop
  endfacet
  facet normal -0.587781 -0.80902 -0
    outer loop
      vertex 27.5706 -44.7103 65
      vertex 27.3 -44.5137 55
      vertex 27.5706 -44.7103 55
    endloop
  endfacet
  facet normal -0.994511 -0.104636 0
    outer loop
      vertex -51.4 0 55
      vertex -51.435 0.332658 65
      vertex -51.435 0.332658 55
    endloop
  endfacet
  facet normal -0.994511 -0.104636 0
    outer loop
      vertex -51.435 0.332658 65
      vertex -51.4 0 55
      vertex -51.4 0 65
    endloop
  endfacet
  facet normal 0.207887 -0.978153 0
    outer loop
      vertex -53.4944 1.52169 55
      vertex -53.1672 1.59123 65
      vertex -53.4944 1.52169 65
    endloop
  endfacet
  facet normal 0.207887 -0.978153 0
    outer loop
      vertex -53.1672 1.59123 65
      vertex -53.4944 1.52169 55
      vertex -53.1672 1.59123 55
    endloop
  endfacet
  facet normal 0.406707 -0.913559 0
    outer loop
      vertex -53.8 1.38564 55
      vertex -53.4944 1.52169 65
      vertex -53.8 1.38564 65
    endloop
  endfacet
  facet normal 0.406707 -0.913559 0
    outer loop
      vertex -53.4944 1.52169 65
      vertex -53.8 1.38564 55
      vertex -53.4944 1.52169 55
    endloop
  endfacet
  facet normal 0.406707 0.913559 -0
    outer loop
      vertex -53.4944 -1.52169 55
      vertex -53.8 -1.38564 65
      vertex -53.4944 -1.52169 65
    endloop
  endfacet
  facet normal 0.406707 0.913559 0
    outer loop
      vertex -53.8 -1.38564 65
      vertex -53.4944 -1.52169 55
      vertex -53.8 -1.38564 55
    endloop
  endfacet
  facet normal 0.74317 -0.669102 0
    outer loop
      vertex -54.2944 0.940456 65
      vertex -54.0706 1.18903 55
      vertex -54.0706 1.18903 65
    endloop
  endfacet
  facet normal 0.74317 -0.669102 0
    outer loop
      vertex -54.0706 1.18903 55
      vertex -54.2944 0.940456 65
      vertex -54.2944 0.940456 55
    endloop
  endfacet
  facet normal 0.951112 -0.308845 0
    outer loop
      vertex -54.565 0.332658 65
      vertex -54.4617 0.650778 55
      vertex -54.4617 0.650778 65
    endloop
  endfacet
  facet normal 0.951112 -0.308845 0
    outer loop
      vertex -54.4617 0.650778 55
      vertex -54.565 0.332658 65
      vertex -54.565 0.332658 55
    endloop
  endfacet
  facet normal 0.865955 -0.500122 0
    outer loop
      vertex -54.4617 0.650778 65
      vertex -54.2944 0.940456 55
      vertex -54.2944 0.940456 65
    endloop
  endfacet
  facet normal 0.865955 -0.500122 0
    outer loop
      vertex -54.2944 0.940456 55
      vertex -54.4617 0.650778 65
      vertex -54.4617 0.650778 55
    endloop
  endfacet
  facet normal 0 -1 0
    outer loop
      vertex -53.1672 1.59123 55
      vertex -52.8328 1.59123 65
      vertex -53.1672 1.59123 65
    endloop
  endfacet
  facet normal 0 -1 -0
    outer loop
      vertex -52.8328 1.59123 65
      vertex -53.1672 1.59123 55
      vertex -52.8328 1.59123 55
    endloop
  endfacet
  facet normal 0.5878 -0.809006 0
    outer loop
      vertex -54.0706 1.18903 55
      vertex -53.8 1.38564 65
      vertex -54.0706 1.18903 65
    endloop
  endfacet
  facet normal 0.5878 -0.809006 0
    outer loop
      vertex -53.8 1.38564 65
      vertex -54.0706 1.18903 55
      vertex -53.8 1.38564 55
    endloop
  endfacet
  facet normal -0.865955 -0.500122 0
    outer loop
      vertex -51.5383 0.650778 55
      vertex -51.7056 0.940456 65
      vertex -51.7056 0.940456 55
    endloop
  endfacet
  facet normal -0.865955 -0.500122 0
    outer loop
      vertex -51.7056 0.940456 65
      vertex -51.5383 0.650778 55
      vertex -51.5383 0.650778 65
    endloop
  endfacet
  facet normal -0.5878 -0.809006 0
    outer loop
      vertex -52.2 1.38564 55
      vertex -51.9294 1.18903 65
      vertex -52.2 1.38564 65
    endloop
  endfacet
  facet normal -0.5878 -0.809006 -0
    outer loop
      vertex -51.9294 1.18903 65
      vertex -52.2 1.38564 55
      vertex -51.9294 1.18903 55
    endloop
  endfacet
  facet normal -0.207887 -0.978153 0
    outer loop
      vertex -52.8328 1.59123 55
      vertex -52.5056 1.52169 65
      vertex -52.8328 1.59123 65
    endloop
  endfacet
  facet normal -0.207887 -0.978153 -0
    outer loop
      vertex -52.5056 1.52169 65
      vertex -52.8328 1.59123 55
      vertex -52.5056 1.52169 55
    endloop
  endfacet
  facet normal -0.74317 -0.669102 0
    outer loop
      vertex -51.7056 0.940456 55
      vertex -51.9294 1.18903 65
      vertex -51.9294 1.18903 55
    endloop
  endfacet
  facet normal -0.74317 -0.669102 0
    outer loop
      vertex -51.9294 1.18903 65
      vertex -51.7056 0.940456 55
      vertex -51.7056 0.940456 65
    endloop
  endfacet
  facet normal 0.994511 -0.104636 0
    outer loop
      vertex -54.6 0 65
      vertex -54.565 0.332658 55
      vertex -54.565 0.332658 65
    endloop
  endfacet
  facet normal 0.994511 -0.104636 0
    outer loop
      vertex -54.565 0.332658 55
      vertex -54.6 0 65
      vertex -54.6 0 55
    endloop
  endfacet
  facet normal 0.994511 0.104636 0
    outer loop
      vertex -54.565 -0.332658 65
      vertex -54.6 0 55
      vertex -54.6 0 65
    endloop
  endfacet
  facet normal 0.994511 0.104636 0
    outer loop
      vertex -54.6 0 55
      vertex -54.565 -0.332658 65
      vertex -54.565 -0.332658 55
    endloop
  endfacet
  facet normal 0.951112 0.308845 0
    outer loop
      vertex -54.4617 -0.650778 65
      vertex -54.565 -0.332658 55
      vertex -54.565 -0.332658 65
    endloop
  endfacet
  facet normal 0.951112 0.308845 0
    outer loop
      vertex -54.565 -0.332658 55
      vertex -54.4617 -0.650778 65
      vertex -54.4617 -0.650778 55
    endloop
  endfacet
  facet normal -0.994511 0.104636 0
    outer loop
      vertex -51.435 -0.332658 55
      vertex -51.4 0 65
      vertex -51.4 0 55
    endloop
  endfacet
  facet normal -0.994511 0.104636 0
    outer loop
      vertex -51.4 0 65
      vertex -51.435 -0.332658 55
      vertex -51.435 -0.332658 65
    endloop
  endfacet
  facet normal 0.207887 0.978153 -0
    outer loop
      vertex -53.1672 -1.59123 55
      vertex -53.4944 -1.52169 65
      vertex -53.1672 -1.59123 65
    endloop
  endfacet
  facet normal 0.207887 0.978153 0
    outer loop
      vertex -53.4944 -1.52169 65
      vertex -53.1672 -1.59123 55
      vertex -53.4944 -1.52169 55
    endloop
  endfacet
  facet normal 0.5878 0.809006 -0
    outer loop
      vertex -53.8 -1.38564 55
      vertex -54.0706 -1.18903 65
      vertex -53.8 -1.38564 65
    endloop
  endfacet
  facet normal 0.5878 0.809006 0
    outer loop
      vertex -54.0706 -1.18903 65
      vertex -53.8 -1.38564 55
      vertex -54.0706 -1.18903 55
    endloop
  endfacet
  facet normal -0.951112 -0.308845 0
    outer loop
      vertex -51.435 0.332658 55
      vertex -51.5383 0.650778 65
      vertex -51.5383 0.650778 55
    endloop
  endfacet
  facet normal -0.951112 -0.308845 0
    outer loop
      vertex -51.5383 0.650778 65
      vertex -51.435 0.332658 55
      vertex -51.435 0.332658 65
    endloop
  endfacet
  facet normal -0.406707 -0.913559 0
    outer loop
      vertex -52.5056 1.52169 55
      vertex -52.2 1.38564 65
      vertex -52.5056 1.52169 65
    endloop
  endfacet
  facet normal -0.406707 -0.913559 -0
    outer loop
      vertex -52.2 1.38564 65
      vertex -52.5056 1.52169 55
      vertex -52.2 1.38564 55
    endloop
  endfacet
  facet normal 0.865955 0.500122 0
    outer loop
      vertex -54.2944 -0.940456 65
      vertex -54.4617 -0.650778 55
      vertex -54.4617 -0.650778 65
    endloop
  endfacet
  facet normal 0.865955 0.500122 0
    outer loop
      vertex -54.4617 -0.650778 55
      vertex -54.2944 -0.940456 65
      vertex -54.2944 -0.940456 55
    endloop
  endfacet
  facet normal -0.865955 0.500122 0
    outer loop
      vertex -51.7056 -0.940456 55
      vertex -51.5383 -0.650778 65
      vertex -51.5383 -0.650778 55
    endloop
  endfacet
  facet normal -0.865955 0.500122 0
    outer loop
      vertex -51.5383 -0.650778 65
      vertex -51.7056 -0.940456 55
      vertex -51.7056 -0.940456 65
    endloop
  endfacet
  facet normal 0 1 -0
    outer loop
      vertex -52.8328 -1.59123 55
      vertex -53.1672 -1.59123 65
      vertex -52.8328 -1.59123 65
    endloop
  endfacet
  facet normal 0 1 0
    outer loop
      vertex -53.1672 -1.59123 65
      vertex -52.8328 -1.59123 55
      vertex -53.1672 -1.59123 55
    endloop
  endfacet
  facet normal 0.74317 0.669102 0
    outer loop
      vertex -54.0706 -1.18903 65
      vertex -54.2944 -0.940456 55
      vertex -54.2944 -0.940456 65
    endloop
  endfacet
  facet normal 0.74317 0.669102 0
    outer loop
      vertex -54.2944 -0.940456 55
      vertex -54.0706 -1.18903 65
      vertex -54.0706 -1.18903 55
    endloop
  endfacet
  facet normal -0.951112 0.308845 0
    outer loop
      vertex -51.5383 -0.650778 55
      vertex -51.435 -0.332658 65
      vertex -51.435 -0.332658 55
    endloop
  endfacet
  facet normal -0.951112 0.308845 0
    outer loop
      vertex -51.435 -0.332658 65
      vertex -51.5383 -0.650778 55
      vertex -51.5383 -0.650778 65
    endloop
  endfacet
  facet normal -0.74317 0.669102 0
    outer loop
      vertex -51.9294 -1.18903 55
      vertex -51.7056 -0.940456 65
      vertex -51.7056 -0.940456 55
    endloop
  endfacet
  facet normal -0.74317 0.669102 0
    outer loop
      vertex -51.7056 -0.940456 65
      vertex -51.9294 -1.18903 55
      vertex -51.9294 -1.18903 65
    endloop
  endfacet
  facet normal -0.207887 0.978153 0
    outer loop
      vertex -52.5056 -1.52169 55
      vertex -52.8328 -1.59123 65
      vertex -52.5056 -1.52169 65
    endloop
  endfacet
  facet normal -0.207887 0.978153 0
    outer loop
      vertex -52.8328 -1.59123 65
      vertex -52.5056 -1.52169 55
      vertex -52.8328 -1.59123 55
    endloop
  endfacet
  facet normal -0.406707 0.913559 0
    outer loop
      vertex -52.2 -1.38564 55
      vertex -52.5056 -1.52169 65
      vertex -52.2 -1.38564 65
    endloop
  endfacet
  facet normal -0.406707 0.913559 0
    outer loop
      vertex -52.5056 -1.52169 65
      vertex -52.2 -1.38564 55
      vertex -52.5056 -1.52169 55
    endloop
  endfacet
  facet normal -0.5878 0.809006 0
    outer loop
      vertex -51.9294 -1.18903 55
      vertex -52.2 -1.38564 65
      vertex -51.9294 -1.18903 65
    endloop
  endfacet
  facet normal -0.5878 0.809006 0
    outer loop
      vertex -52.2 -1.38564 65
      vertex -51.9294 -1.18903 55
      vertex -52.2 -1.38564 55
    endloop
  endfacet
  facet normal -0.951054 -0.309024 0
    outer loop
      vertex -52.9856 -23.5907 55
      vertex -56.7326 -12.0589 65
      vertex -56.7326 -12.0589 55
    endloop
  endfacet
  facet normal -0.951054 -0.309024 0
    outer loop
      vertex -56.7326 -12.0589 65
      vertex -52.9856 -23.5907 55
      vertex -52.9856 -23.5907 65
    endloop
  endfacet
  facet normal 0.866027 -0.499998 0
    outer loop
      vertex 46.923 -34.0915 65
      vertex 52.9856 -23.5907 55
      vertex 52.9856 -23.5907 65
    endloop
  endfacet
  facet normal 0.866027 -0.499998 0
    outer loop
      vertex 52.9856 -23.5907 55
      vertex 46.923 -34.0915 65
      vertex 46.923 -34.0915 55
    endloop
  endfacet
  facet normal 0.951054 -0.309024 0
    outer loop
      vertex 52.9856 -23.5907 65
      vertex 56.7326 -12.0589 55
      vertex 56.7326 -12.0589 65
    endloop
  endfacet
  facet normal 0.951054 -0.309024 0
    outer loop
      vertex 56.7326 -12.0589 55
      vertex 52.9856 -23.5907 65
      vertex 52.9856 -23.5907 55
    endloop
  endfacet
  facet normal 0.406737 -0.913545 0
    outer loop
      vertex 17.923 -55.1613 55
      vertex 29 -50.2295 65
      vertex 17.923 -55.1613 65
    endloop
  endfacet
  facet normal 0.406737 -0.913545 0
    outer loop
      vertex 29 -50.2295 65
      vertex 17.923 -55.1613 55
      vertex 29 -50.2295 55
    endloop
  endfacet
  facet normal -0.207912 -0.978148 0
    outer loop
      vertex -17.923 -55.1613 55
      vertex -6.06265 -57.6823 65
      vertex -17.923 -55.1613 65
    endloop
  endfacet
  facet normal -0.207912 -0.978148 -0
    outer loop
      vertex -6.06265 -57.6823 65
      vertex -17.923 -55.1613 55
      vertex -6.06265 -57.6823 55
    endloop
  endfacet
  facet normal -0.866027 -0.499998 0
    outer loop
      vertex -46.923 -34.0915 55
      vertex -52.9856 -23.5907 65
      vertex -52.9856 -23.5907 55
    endloop
  endfacet
  facet normal -0.866027 -0.499998 0
    outer loop
      vertex -52.9856 -23.5907 65
      vertex -46.923 -34.0915 55
      vertex -46.923 -34.0915 65
    endloop
  endfacet
  facet normal 0.994522 0.104525 0
    outer loop
      vertex 58 0 65
      vertex 56.7326 12.0589 55
      vertex 56.7326 12.0589 65
    endloop
  endfacet
  facet normal 0.994522 0.104525 0
    outer loop
      vertex 56.7326 12.0589 55
      vertex 58 0 65
      vertex 58 0 55
    endloop
  endfacet
  facet normal 0.743147 -0.669128 0
    outer loop
      vertex 38.8096 -43.1024 65
      vertex 46.923 -34.0915 55
      vertex 46.923 -34.0915 65
    endloop
  endfacet
  facet normal 0.743147 -0.669128 0
    outer loop
      vertex 46.923 -34.0915 55
      vertex 38.8096 -43.1024 65
      vertex 38.8096 -43.1024 55
    endloop
  endfacet
  facet normal 0 -1 0
    outer loop
      vertex -6.06265 -57.6823 55
      vertex 6.06265 -57.6823 65
      vertex -6.06265 -57.6823 65
    endloop
  endfacet
  facet normal 0 -1 -0
    outer loop
      vertex 6.06265 -57.6823 65
      vertex -6.06265 -57.6823 55
      vertex 6.06265 -57.6823 55
    endloop
  endfacet
  facet normal 0.587786 -0.809017 0
    outer loop
      vertex 29 -50.2295 55
      vertex 38.8096 -43.1024 65
      vertex 29 -50.2295 65
    endloop
  endfacet
  facet normal 0.587786 -0.809017 0
    outer loop
      vertex 38.8096 -43.1024 65
      vertex 29 -50.2295 55
      vertex 38.8096 -43.1024 55
    endloop
  endfacet
  facet normal -0.994522 -0.104525 0
    outer loop
      vertex -56.7326 -12.0589 55
      vertex -58 0 65
      vertex -58 0 55
    endloop
  endfacet
  facet normal -0.994522 -0.104525 0
    outer loop
      vertex -58 0 65
      vertex -56.7326 -12.0589 55
      vertex -56.7326 -12.0589 65
    endloop
  endfacet
  facet normal -0.743147 -0.669128 0
    outer loop
      vertex -38.8096 -43.1024 55
      vertex -46.923 -34.0915 65
      vertex -46.923 -34.0915 55
    endloop
  endfacet
  facet normal -0.743147 -0.669128 0
    outer loop
      vertex -46.923 -34.0915 65
      vertex -38.8096 -43.1024 55
      vertex -38.8096 -43.1024 65
    endloop
  endfacet
  facet normal -0.406737 -0.913545 0
    outer loop
      vertex -29 -50.2295 55
      vertex -17.923 -55.1613 65
      vertex -29 -50.2295 65
    endloop
  endfacet
  facet normal -0.406737 -0.913545 -0
    outer loop
      vertex -17.923 -55.1613 65
      vertex -29 -50.2295 55
      vertex -17.923 -55.1613 55
    endloop
  endfacet
  facet normal -0.587786 -0.809017 0
    outer loop
      vertex -38.8096 -43.1024 55
      vertex -29 -50.2295 65
      vertex -38.8096 -43.1024 65
    endloop
  endfacet
  facet normal -0.587786 -0.809017 -0
    outer loop
      vertex -29 -50.2295 65
      vertex -38.8096 -43.1024 55
      vertex -29 -50.2295 55
    endloop
  endfacet
  facet normal 0.994522 -0.104525 0
    outer loop
      vertex 56.7326 -12.0589 65
      vertex 58 0 55
      vertex 58 0 65
    endloop
  endfacet
  facet normal 0.994522 -0.104525 0
    outer loop
      vertex 58 0 55
      vertex 56.7326 -12.0589 65
      vertex 56.7326 -12.0589 55
    endloop
  endfacet
  facet normal -0.587786 0.809017 0
    outer loop
      vertex -29 50.2295 55
      vertex -38.8096 43.1024 65
      vertex -29 50.2295 65
    endloop
  endfacet
  facet normal -0.587786 0.809017 0
    outer loop
      vertex -38.8096 43.1024 65
      vertex -29 50.2295 55
      vertex -38.8096 43.1024 55
    endloop
  endfacet
  facet normal -0.866027 0.499998 0
    outer loop
      vertex -52.9856 23.5907 55
      vertex -46.923 34.0915 65
      vertex -46.923 34.0915 55
    endloop
  endfacet
  facet normal -0.866027 0.499998 0
    outer loop
      vertex -46.923 34.0915 65
      vertex -52.9856 23.5907 55
      vertex -52.9856 23.5907 65
    endloop
  endfacet
  facet normal 0.587786 0.809017 -0
    outer loop
      vertex 38.8096 43.1024 55
      vertex 29 50.2295 65
      vertex 38.8096 43.1024 65
    endloop
  endfacet
  facet normal 0.587786 0.809017 0
    outer loop
      vertex 29 50.2295 65
      vertex 38.8096 43.1024 55
      vertex 29 50.2295 55
    endloop
  endfacet
  facet normal 0.207912 -0.978148 0
    outer loop
      vertex 6.06265 -57.6823 55
      vertex 17.923 -55.1613 65
      vertex 6.06265 -57.6823 65
    endloop
  endfacet
  facet normal 0.207912 -0.978148 0
    outer loop
      vertex 17.923 -55.1613 65
      vertex 6.06265 -57.6823 55
      vertex 17.923 -55.1613 55
    endloop
  endfacet
  facet normal 0 0 -1
    outer loop
      vertex -38.8096 43.1024 55
      vertex -51.435 0.332658 55
      vertex -46.923 34.0915 55
    endloop
  endfacet
  facet normal 0 0 -1
    outer loop
      vertex -51.5383 0.650778 55
      vertex -46.923 34.0915 55
      vertex -51.435 0.332658 55
    endloop
  endfacet
  facet normal 0 0 -1
    outer loop
      vertex -52.9856 23.5907 55
      vertex -51.5383 0.650778 55
      vertex -51.7056 0.940456 55
    endloop
  endfacet
  facet normal 0 0 -1
    outer loop
      vertex -52.9856 23.5907 55
      vertex -51.7056 0.940456 55
      vertex -51.9294 1.18903 55
    endloop
  endfacet
  facet normal 0 0 -1
    outer loop
      vertex -56.7326 12.0589 55
      vertex -51.9294 1.18903 55
      vertex -52.2 1.38564 55
    endloop
  endfacet
  facet normal 0 0 -1
    outer loop
      vertex -56.7326 12.0589 55
      vertex -52.2 1.38564 55
      vertex -52.5056 1.52169 55
    endloop
  endfacet
  facet normal 0 0 -1
    outer loop
      vertex -56.7326 12.0589 55
      vertex -52.5056 1.52169 55
      vertex -52.8328 1.59123 55
    endloop
  endfacet
  facet normal 0 0 -1
    outer loop
      vertex -51.5383 0.650778 55
      vertex -52.9856 23.5907 55
      vertex -46.923 34.0915 55
    endloop
  endfacet
  facet normal 0 0 -1
    outer loop
      vertex -56.7326 12.0589 55
      vertex -52.8328 1.59123 55
      vertex -53.1672 1.59123 55
    endloop
  endfacet
  facet normal 0 0 -1
    outer loop
      vertex -56.7326 12.0589 55
      vertex -53.1672 1.59123 55
      vertex -53.4944 1.52169 55
    endloop
  endfacet
  facet normal 0 0 -1
    outer loop
      vertex -56.7326 12.0589 55
      vertex -53.4944 1.52169 55
      vertex -53.8 1.38564 55
    endloop
  endfacet
  facet normal 0 0 -1
    outer loop
      vertex -56.7326 12.0589 55
      vertex -53.8 1.38564 55
      vertex -54.0706 1.18903 55
    endloop
  endfacet
  facet normal 0 0 -1
    outer loop
      vertex -58 0 55
      vertex -54.0706 1.18903 55
      vertex -54.2944 0.940456 55
    endloop
  endfacet
  facet normal 0 0 -1
    outer loop
      vertex -58 0 55
      vertex -54.2944 0.940456 55
      vertex -54.4617 0.650778 55
    endloop
  endfacet
  facet normal 0 0 -1
    outer loop
      vertex -58 0 55
      vertex -54.4617 0.650778 55
      vertex -54.565 0.332658 55
    endloop
  endfacet
  facet normal 0 0 -1
    outer loop
      vertex -58 0 55
      vertex -54.565 0.332658 55
      vertex -54.6 0 55
    endloop
  endfacet
  facet normal 0 0 -1
    outer loop
      vertex -54.565 -0.332658 55
      vertex -58 0 55
      vertex -54.6 0 55
    endloop
  endfacet
  facet normal 0 0 -1
    outer loop
      vertex -51.9294 1.18903 55
      vertex -56.7326 12.0589 55
      vertex -52.9856 23.5907 55
    endloop
  endfacet
  facet normal -0 0 -1
    outer loop
      vertex -54.0706 1.18903 55
      vertex -58 0 55
      vertex -56.7326 12.0589 55
    endloop
  endfacet
  facet normal 0 0 -1
    outer loop
      vertex 26.9944 -44.3777 55
      vertex 38.8096 -43.1024 55
      vertex 27.3 -44.5137 55
    endloop
  endfacet
  facet normal 0 0 -1
    outer loop
      vertex 58 0 55
      vertex 28.065 45.5667 55
      vertex 28.1 45.8993 55
    endloop
  endfacet
  facet normal -0 0 -1
    outer loop
      vertex 38.8096 -43.1024 55
      vertex 26.9944 -44.3777 55
      vertex 46.923 -34.0915 55
    endloop
  endfacet
  facet normal 0 0 -1
    outer loop
      vertex 58 0 55
      vertex 27.9617 45.2486 55
      vertex 28.065 45.5667 55
    endloop
  endfacet
  facet normal 0 0 -1
    outer loop
      vertex 26.6672 -44.3081 55
      vertex 46.923 -34.0915 55
      vertex 26.9944 -44.3777 55
    endloop
  endfacet
  facet normal 0 0 -1
    outer loop
      vertex 58 0 55
      vertex 27.7944 44.9589 55
      vertex 27.9617 45.2486 55
    endloop
  endfacet
  facet normal 0 0 -1
    outer loop
      vertex 26.3328 -44.3081 55
      vertex 46.923 -34.0915 55
      vertex 26.6672 -44.3081 55
    endloop
  endfacet
  facet normal 0 0 -1
    outer loop
      vertex 58 0 55
      vertex 27.5706 44.7103 55
      vertex 27.7944 44.9589 55
    endloop
  endfacet
  facet normal -0 0 -1
    outer loop
      vertex 46.923 -34.0915 55
      vertex 26.3328 -44.3081 55
      vertex 52.9856 -23.5907 55
    endloop
  endfacet
  facet normal 0 0 -1
    outer loop
      vertex 58 0 55
      vertex 27.3 44.5137 55
      vertex 27.5706 44.7103 55
    endloop
  endfacet
  facet normal -0 0 -1
    outer loop
      vertex 52.9856 -23.5907 55
      vertex 26.3328 -44.3081 55
      vertex 56.7326 -12.0589 55
    endloop
  endfacet
  facet normal 0 0 -1
    outer loop
      vertex 58 0 55
      vertex 26.9944 44.3777 55
      vertex 27.3 44.5137 55
    endloop
  endfacet
  facet normal 0 0 -1
    outer loop
      vertex 26.0056 -44.3777 55
      vertex 56.7326 -12.0589 55
      vertex 26.3328 -44.3081 55
    endloop
  endfacet
  facet normal 0 0 -1
    outer loop
      vertex 58 0 55
      vertex 26.6672 44.3081 55
      vertex 26.9944 44.3777 55
    endloop
  endfacet
  facet normal -0 0 -1
    outer loop
      vertex 56.7326 -12.0589 55
      vertex 26.0056 -44.3777 55
      vertex 58 0 55
    endloop
  endfacet
  facet normal 0 0 -1
    outer loop
      vertex 58 0 55
      vertex 26.3328 44.3081 55
      vertex 26.6672 44.3081 55
    endloop
  endfacet
  facet normal 0 0 -1
    outer loop
      vertex 26.0056 44.3777 55
      vertex 58 0 55
      vertex 26.0056 -44.3777 55
    endloop
  endfacet
  facet normal 0 0 -1
    outer loop
      vertex 58 0 55
      vertex 26.0056 44.3777 55
      vertex 26.3328 44.3081 55
    endloop
  endfacet
  facet normal 0 0 -1
    outer loop
      vertex 25.7 -44.5137 55
      vertex 26.0056 44.3777 55
      vertex 26.0056 -44.3777 55
    endloop
  endfacet
  facet normal 0 0 -1
    outer loop
      vertex 25.7 -44.5137 55
      vertex 25.7 44.5137 55
      vertex 26.0056 44.3777 55
    endloop
  endfacet
  facet normal 0 0 -1
    outer loop
      vertex -51.4 0 55
      vertex 25.7 -44.5137 55
      vertex 25.4294 -44.7103 55
    endloop
  endfacet
  facet normal 0 0 -1
    outer loop
      vertex 25.7 -44.5137 55
      vertex -51.4 0 55
      vertex 25.7 44.5137 55
    endloop
  endfacet
  facet normal 0 0 -1
    outer loop
      vertex -17.923 -55.1613 55
      vertex 25.4294 -44.7103 55
      vertex 25.2056 -44.9589 55
    endloop
  endfacet
  facet normal -0 0 -1
    outer loop
      vertex 25.7 44.5137 55
      vertex -51.4 0 55
      vertex 25.4294 44.7103 55
    endloop
  endfacet
  facet normal 0 0 -1
    outer loop
      vertex 6.06265 -57.6823 55
      vertex 25.2056 -44.9589 55
      vertex 25.0383 -45.2486 55
    endloop
  endfacet
  facet normal 0 0 -1
    outer loop
      vertex -51.435 0.332658 55
      vertex 25.4294 44.7103 55
      vertex -51.4 0 55
    endloop
  endfacet
  facet normal 0 0 -1
    outer loop
      vertex 6.06265 -57.6823 55
      vertex 25.0383 -45.2486 55
      vertex 24.935 -45.5667 55
    endloop
  endfacet
  facet normal 0 -0 -1
    outer loop
      vertex -17.923 55.1613 55
      vertex 25.4294 44.7103 55
      vertex -29 50.2295 55
    endloop
  endfacet
  facet normal 0 0 -1
    outer loop
      vertex 17.923 -55.1613 55
      vertex 24.935 -45.5667 55
      vertex 24.9 -45.8993 55
    endloop
  endfacet
  facet normal 0 0 -1
    outer loop
      vertex 25.4294 44.7103 55
      vertex -17.923 55.1613 55
      vertex 25.2056 44.9589 55
    endloop
  endfacet
  facet normal 0 0 -1
    outer loop
      vertex 27.5706 -44.7103 55
      vertex 38.8096 -43.1024 55
      vertex 27.7944 -44.9589 55
    endloop
  endfacet
  facet normal 0 0 -1
    outer loop
      vertex 27.7944 -44.9589 55
      vertex 38.8096 -43.1024 55
      vertex 27.9617 -45.2486 55
    endloop
  endfacet
  facet normal 0 0 -1
    outer loop
      vertex 27.3 -44.5137 55
      vertex 38.8096 -43.1024 55
      vertex 27.5706 -44.7103 55
    endloop
  endfacet
  facet normal 0 0 -1
    outer loop
      vertex 27.9617 -45.2486 55
      vertex 38.8096 -43.1024 55
      vertex 28.065 -45.5667 55
    endloop
  endfacet
  facet normal 0 0 -1
    outer loop
      vertex 58 0 55
      vertex 28.1 45.8993 55
      vertex 56.7326 12.0589 55
    endloop
  endfacet
  facet normal 0 0 -1
    outer loop
      vertex 28.065 -45.5667 55
      vertex 38.8096 -43.1024 55
      vertex 28.1 -45.8993 55
    endloop
  endfacet
  facet normal 0 0 -1
    outer loop
      vertex 56.7326 12.0589 55
      vertex 28.1 45.8993 55
      vertex 52.9856 23.5907 55
    endloop
  endfacet
  facet normal 0 0 -1
    outer loop
      vertex 28.065 -46.232 55
      vertex 38.8096 -43.1024 55
      vertex 29 -50.2295 55
    endloop
  endfacet
  facet normal 0 0 -1
    outer loop
      vertex 52.9856 23.5907 55
      vertex 28.1 45.8993 55
      vertex 46.923 34.0915 55
    endloop
  endfacet
  facet normal 0 0 -1
    outer loop
      vertex 46.923 34.0915 55
      vertex 28.1 45.8993 55
      vertex 38.8096 43.1024 55
    endloop
  endfacet
  facet normal 0 0 -1
    outer loop
      vertex 38.8096 -43.1024 55
      vertex 28.065 -46.232 55
      vertex 28.1 -45.8993 55
    endloop
  endfacet
  facet normal 0 0 -1
    outer loop
      vertex 29 -50.2295 55
      vertex 27.9617 -46.5501 55
      vertex 28.065 -46.232 55
    endloop
  endfacet
  facet normal 0 0 -1
    outer loop
      vertex 29 -50.2295 55
      vertex 27.7944 -46.8398 55
      vertex 27.9617 -46.5501 55
    endloop
  endfacet
  facet normal 0 0 -1
    outer loop
      vertex 29 -50.2295 55
      vertex 27.5706 -47.0884 55
      vertex 27.7944 -46.8398 55
    endloop
  endfacet
  facet normal 0 0 -1
    outer loop
      vertex 29 -50.2295 55
      vertex 27.3 -47.285 55
      vertex 27.5706 -47.0884 55
    endloop
  endfacet
  facet normal 0 0 -1
    outer loop
      vertex 29 -50.2295 55
      vertex 26.9944 -47.421 55
      vertex 27.3 -47.285 55
    endloop
  endfacet
  facet normal 0 0 -1
    outer loop
      vertex 29 -50.2295 55
      vertex 26.6672 -47.4906 55
      vertex 26.9944 -47.421 55
    endloop
  endfacet
  facet normal 0 0 -1
    outer loop
      vertex 29 -50.2295 55
      vertex 26.3328 -47.4906 55
      vertex 26.6672 -47.4906 55
    endloop
  endfacet
  facet normal 0 0 -1
    outer loop
      vertex 29 -50.2295 55
      vertex 26.0056 -47.421 55
      vertex 26.3328 -47.4906 55
    endloop
  endfacet
  facet normal 0 0 -1
    outer loop
      vertex 17.923 -55.1613 55
      vertex 26.0056 -47.421 55
      vertex 29 -50.2295 55
    endloop
  endfacet
  facet normal -0 0 -1
    outer loop
      vertex 26.0056 -47.421 55
      vertex 17.923 -55.1613 55
      vertex 25.7 -47.285 55
    endloop
  endfacet
  facet normal 0 0 -1
    outer loop
      vertex 24.935 -45.5667 55
      vertex 17.923 -55.1613 55
      vertex 6.06265 -57.6823 55
    endloop
  endfacet
  facet normal -0 0 -1
    outer loop
      vertex 24.935 -46.232 55
      vertex 17.923 -55.1613 55
      vertex 24.9 -45.8993 55
    endloop
  endfacet
  facet normal -0 0 -1
    outer loop
      vertex 25.0383 -46.5501 55
      vertex 17.923 -55.1613 55
      vertex 24.935 -46.232 55
    endloop
  endfacet
  facet normal -0 0 -1
    outer loop
      vertex 25.2056 -46.8398 55
      vertex 17.923 -55.1613 55
      vertex 25.0383 -46.5501 55
    endloop
  endfacet
  facet normal -0 0 -1
    outer loop
      vertex 25.4294 -47.0884 55
      vertex 17.923 -55.1613 55
      vertex 25.2056 -46.8398 55
    endloop
  endfacet
  facet normal -0 0 -1
    outer loop
      vertex 25.7 -47.285 55
      vertex 17.923 -55.1613 55
      vertex 25.4294 -47.0884 55
    endloop
  endfacet
  facet normal 0 0 -1
    outer loop
      vertex 28.065 46.232 55
      vertex 38.8096 43.1024 55
      vertex 28.1 45.8993 55
    endloop
  endfacet
  facet normal 0 0 -1
    outer loop
      vertex 38.8096 43.1024 55
      vertex 28.065 46.232 55
      vertex 29 50.2295 55
    endloop
  endfacet
  facet normal 0 0 -1
    outer loop
      vertex 27.9617 46.5501 55
      vertex 29 50.2295 55
      vertex 28.065 46.232 55
    endloop
  endfacet
  facet normal 0 0 -1
    outer loop
      vertex 27.7944 46.8398 55
      vertex 29 50.2295 55
      vertex 27.9617 46.5501 55
    endloop
  endfacet
  facet normal 0 0 -1
    outer loop
      vertex 27.5706 47.0884 55
      vertex 29 50.2295 55
      vertex 27.7944 46.8398 55
    endloop
  endfacet
  facet normal 0 0 -1
    outer loop
      vertex 27.3 47.285 55
      vertex 29 50.2295 55
      vertex 27.5706 47.0884 55
    endloop
  endfacet
  facet normal 0 0 -1
    outer loop
      vertex 26.9944 47.421 55
      vertex 29 50.2295 55
      vertex 27.3 47.285 55
    endloop
  endfacet
  facet normal 0 0 -1
    outer loop
      vertex 26.6672 47.4906 55
      vertex 29 50.2295 55
      vertex 26.9944 47.421 55
    endloop
  endfacet
  facet normal 0 0 -1
    outer loop
      vertex 26.3328 47.4906 55
      vertex 29 50.2295 55
      vertex 26.6672 47.4906 55
    endloop
  endfacet
  facet normal 0 0 -1
    outer loop
      vertex 26.0056 47.421 55
      vertex 29 50.2295 55
      vertex 26.3328 47.4906 55
    endloop
  endfacet
  facet normal 0 0 -1
    outer loop
      vertex 17.923 55.1613 55
      vertex 26.0056 47.421 55
      vertex 25.7 47.285 55
    endloop
  endfacet
  facet normal 0 0 -1
    outer loop
      vertex 17.923 55.1613 55
      vertex 25.7 47.285 55
      vertex 25.4294 47.0884 55
    endloop
  endfacet
  facet normal 0 0 -1
    outer loop
      vertex 26.0056 47.421 55
      vertex 17.923 55.1613 55
      vertex 29 50.2295 55
    endloop
  endfacet
  facet normal 0 0 -1
    outer loop
      vertex 25.2056 46.8398 55
      vertex 17.923 55.1613 55
      vertex 25.4294 47.0884 55
    endloop
  endfacet
  facet normal 0 0 -1
    outer loop
      vertex 25.0383 46.5501 55
      vertex 17.923 55.1613 55
      vertex 25.2056 46.8398 55
    endloop
  endfacet
  facet normal 0 0 -1
    outer loop
      vertex 24.935 46.232 55
      vertex 17.923 55.1613 55
      vertex 25.0383 46.5501 55
    endloop
  endfacet
  facet normal 0 0 -1
    outer loop
      vertex 24.9 45.8993 55
      vertex 17.923 55.1613 55
      vertex 24.935 46.232 55
    endloop
  endfacet
  facet normal 0 -0 -1
    outer loop
      vertex -6.06265 57.6823 55
      vertex 25.2056 44.9589 55
      vertex -17.923 55.1613 55
    endloop
  endfacet
  facet normal 0 0 -1
    outer loop
      vertex 25.2056 -44.9589 55
      vertex 6.06265 -57.6823 55
      vertex -6.06265 -57.6823 55
    endloop
  endfacet
  facet normal -0 -0 -1
    outer loop
      vertex 6.06265 57.6823 55
      vertex 25.2056 44.9589 55
      vertex -6.06265 57.6823 55
    endloop
  endfacet
  facet normal 0 0 -1
    outer loop
      vertex 25.2056 -44.9589 55
      vertex -6.06265 -57.6823 55
      vertex -17.923 -55.1613 55
    endloop
  endfacet
  facet normal 0 0 -1
    outer loop
      vertex 24.935 45.5667 55
      vertex 17.923 55.1613 55
      vertex 24.9 45.8993 55
    endloop
  endfacet
  facet normal 0 0 -1
    outer loop
      vertex 25.4294 -44.7103 55
      vertex -17.923 -55.1613 55
      vertex -29 -50.2295 55
    endloop
  endfacet
  facet normal -0 -0 -1
    outer loop
      vertex 17.923 55.1613 55
      vertex 24.935 45.5667 55
      vertex 6.06265 57.6823 55
    endloop
  endfacet
  facet normal -0 0 -1
    outer loop
      vertex 25.4294 -44.7103 55
      vertex -29 -50.2295 55
      vertex -51.435 -0.332658 55
    endloop
  endfacet
  facet normal 0 0 -1
    outer loop
      vertex 25.0383 45.2486 55
      vertex 6.06265 57.6823 55
      vertex 24.935 45.5667 55
    endloop
  endfacet
  facet normal 0 0 -1
    outer loop
      vertex -51.435 -0.332658 55
      vertex -29 -50.2295 55
      vertex -38.8096 -43.1024 55
    endloop
  endfacet
  facet normal 0 0 -1
    outer loop
      vertex 25.2056 44.9589 55
      vertex 6.06265 57.6823 55
      vertex 25.0383 45.2486 55
    endloop
  endfacet
  facet normal 0 0 -1
    outer loop
      vertex -51.435 -0.332658 55
      vertex -38.8096 -43.1024 55
      vertex -46.923 -34.0915 55
    endloop
  endfacet
  facet normal -0 0 -1
    outer loop
      vertex 25.4294 44.7103 55
      vertex -51.435 0.332658 55
      vertex -29 50.2295 55
    endloop
  endfacet
  facet normal 0 0 -1
    outer loop
      vertex -29 50.2295 55
      vertex -51.435 0.332658 55
      vertex -38.8096 43.1024 55
    endloop
  endfacet
  facet normal 0 0 -1
    outer loop
      vertex 25.4294 -44.7103 55
      vertex -51.435 -0.332658 55
      vertex -51.4 0 55
    endloop
  endfacet
  facet normal 0 0 -1
    outer loop
      vertex -46.923 -34.0915 55
      vertex -51.5383 -0.650778 55
      vertex -51.435 -0.332658 55
    endloop
  endfacet
  facet normal 0 0 -1
    outer loop
      vertex -52.9856 -23.5907 55
      vertex -51.5383 -0.650778 55
      vertex -46.923 -34.0915 55
    endloop
  endfacet
  facet normal 0 0 -1
    outer loop
      vertex -51.5383 -0.650778 55
      vertex -52.9856 -23.5907 55
      vertex -51.7056 -0.940456 55
    endloop
  endfacet
  facet normal 0 0 -1
    outer loop
      vertex -51.7056 -0.940456 55
      vertex -52.9856 -23.5907 55
      vertex -51.9294 -1.18903 55
    endloop
  endfacet
  facet normal 0 0 -1
    outer loop
      vertex -56.7326 -12.0589 55
      vertex -51.9294 -1.18903 55
      vertex -52.9856 -23.5907 55
    endloop
  endfacet
  facet normal 0 0 -1
    outer loop
      vertex -51.9294 -1.18903 55
      vertex -56.7326 -12.0589 55
      vertex -52.2 -1.38564 55
    endloop
  endfacet
  facet normal 0 0 -1
    outer loop
      vertex -52.2 -1.38564 55
      vertex -56.7326 -12.0589 55
      vertex -52.5056 -1.52169 55
    endloop
  endfacet
  facet normal 0 0 -1
    outer loop
      vertex -52.5056 -1.52169 55
      vertex -56.7326 -12.0589 55
      vertex -52.8328 -1.59123 55
    endloop
  endfacet
  facet normal -0 0 -1
    outer loop
      vertex -52.8328 -1.59123 55
      vertex -56.7326 -12.0589 55
      vertex -53.1672 -1.59123 55
    endloop
  endfacet
  facet normal -0 0 -1
    outer loop
      vertex -53.1672 -1.59123 55
      vertex -56.7326 -12.0589 55
      vertex -53.4944 -1.52169 55
    endloop
  endfacet
  facet normal -0 0 -1
    outer loop
      vertex -53.4944 -1.52169 55
      vertex -56.7326 -12.0589 55
      vertex -53.8 -1.38564 55
    endloop
  endfacet
  facet normal -0 0 -1
    outer loop
      vertex -53.8 -1.38564 55
      vertex -56.7326 -12.0589 55
      vertex -54.0706 -1.18903 55
    endloop
  endfacet
  facet normal 0 0 -1
    outer loop
      vertex -58 0 55
      vertex -54.0706 -1.18903 55
      vertex -56.7326 -12.0589 55
    endloop
  endfacet
  facet normal 0 0 -1
    outer loop
      vertex -54.0706 -1.18903 55
      vertex -58 0 55
      vertex -54.2944 -0.940456 55
    endloop
  endfacet
  facet normal 0 0 -1
    outer loop
      vertex -54.2944 -0.940456 55
      vertex -58 0 55
      vertex -54.4617 -0.650778 55
    endloop
  endfacet
  facet normal 0 0 -1
    outer loop
      vertex -54.4617 -0.650778 55
      vertex -58 0 55
      vertex -54.565 -0.332658 55
    endloop
  endfacet
  facet normal 0.866027 0.499998 0
    outer loop
      vertex 52.9856 23.5907 65
      vertex 46.923 34.0915 55
      vertex 46.923 34.0915 65
    endloop
  endfacet
  facet normal 0.866027 0.499998 0
    outer loop
      vertex 46.923 34.0915 55
      vertex 52.9856 23.5907 65
      vertex 52.9856 23.5907 55
    endloop
  endfacet
  facet normal 0 1 -0
    outer loop
      vertex 6.06265 57.6823 55
      vertex -6.06265 57.6823 65
      vertex 6.06265 57.6823 65
    endloop
  endfacet
  facet normal 0 1 0
    outer loop
      vertex -6.06265 57.6823 65
      vertex 6.06265 57.6823 55
      vertex -6.06265 57.6823 55
    endloop
  endfacet
  facet normal -0.994522 0.104525 0
    outer loop
      vertex -58 0 55
      vertex -56.7326 12.0589 65
      vertex -56.7326 12.0589 55
    endloop
  endfacet
  facet normal -0.994522 0.104525 0
    outer loop
      vertex -56.7326 12.0589 65
      vertex -58 0 55
      vertex -58 0 65
    endloop
  endfacet
  facet normal 0 0 1
    outer loop
      vertex 38.8096 43.1024 65
      vertex 28.065 46.232 65
      vertex 28.1 45.8993 65
    endloop
  endfacet
  facet normal 0 0 1
    outer loop
      vertex 29 50.2295 65
      vertex 27.9617 46.5501 65
      vertex 28.065 46.232 65
    endloop
  endfacet
  facet normal 0 0 1
    outer loop
      vertex 29 50.2295 65
      vertex 27.7944 46.8398 65
      vertex 27.9617 46.5501 65
    endloop
  endfacet
  facet normal 0 0 1
    outer loop
      vertex 29 50.2295 65
      vertex 27.5706 47.0884 65
      vertex 27.7944 46.8398 65
    endloop
  endfacet
  facet normal 0 0 1
    outer loop
      vertex 29 50.2295 65
      vertex 27.3 47.285 65
      vertex 27.5706 47.0884 65
    endloop
  endfacet
  facet normal 0 0 1
    outer loop
      vertex 29 50.2295 65
      vertex 26.9944 47.421 65
      vertex 27.3 47.285 65
    endloop
  endfacet
  facet normal 0 0 1
    outer loop
      vertex 29 50.2295 65
      vertex 26.6672 47.4906 65
      vertex 26.9944 47.421 65
    endloop
  endfacet
  facet normal 0 0 1
    outer loop
      vertex 29 50.2295 65
      vertex 26.3328 47.4906 65
      vertex 26.6672 47.4906 65
    endloop
  endfacet
  facet normal 0 0 1
    outer loop
      vertex 29 50.2295 65
      vertex 26.0056 47.421 65
      vertex 26.3328 47.4906 65
    endloop
  endfacet
  facet normal 0 0 1
    outer loop
      vertex 17.923 55.1613 65
      vertex 26.0056 47.421 65
      vertex 29 50.2295 65
    endloop
  endfacet
  facet normal 0 0 1
    outer loop
      vertex 26.0056 47.421 65
      vertex 17.923 55.1613 65
      vertex 25.7 47.285 65
    endloop
  endfacet
  facet normal 0 0 1
    outer loop
      vertex 14.6783 45.1752 65
      vertex 24.9 45.8993 65
      vertex 24.935 46.232 65
    endloop
  endfacet
  facet normal 0 0 1
    outer loop
      vertex 25.7 47.285 65
      vertex 17.923 55.1613 65
      vertex 25.4294 47.0884 65
    endloop
  endfacet
  facet normal 0 0 1
    outer loop
      vertex 17.923 55.1613 65
      vertex 25.2056 46.8398 65
      vertex 25.4294 47.0884 65
    endloop
  endfacet
  facet normal 0 0 1
    outer loop
      vertex 17.923 55.1613 65
      vertex 25.0383 46.5501 65
      vertex 25.2056 46.8398 65
    endloop
  endfacet
  facet normal 0 0 1
    outer loop
      vertex 14.6783 45.1752 65
      vertex 25.0383 46.5501 65
      vertex 17.923 55.1613 65
    endloop
  endfacet
  facet normal 0 0 1
    outer loop
      vertex 25.0383 46.5501 65
      vertex 14.6783 45.1752 65
      vertex 24.935 46.232 65
    endloop
  endfacet
  facet normal 0 0 1
    outer loop
      vertex 24.9 45.8993 65
      vertex 14.6783 45.1752 65
      vertex 23.75 41.1362 65
    endloop
  endfacet
  facet normal 0 0 1
    outer loop
      vertex 6.06265 57.6823 65
      vertex 14.6783 45.1752 65
      vertex 17.923 55.1613 65
    endloop
  endfacet
  facet normal 0 0 1
    outer loop
      vertex 6.06265 57.6823 65
      vertex 4.9651 47.2398 65
      vertex 14.6783 45.1752 65
    endloop
  endfacet
  facet normal 0 0 1
    outer loop
      vertex 6.06265 57.6823 65
      vertex -4.9651 47.2398 65
      vertex 4.9651 47.2398 65
    endloop
  endfacet
  facet normal -0 0 1
    outer loop
      vertex -6.06265 57.6823 65
      vertex -4.9651 47.2398 65
      vertex 6.06265 57.6823 65
    endloop
  endfacet
  facet normal 0 0 1
    outer loop
      vertex -6.06265 57.6823 65
      vertex -14.6783 45.1752 65
      vertex -4.9651 47.2398 65
    endloop
  endfacet
  facet normal -0 0 1
    outer loop
      vertex -17.923 55.1613 65
      vertex -14.6783 45.1752 65
      vertex -6.06265 57.6823 65
    endloop
  endfacet
  facet normal 0 0 1
    outer loop
      vertex -17.923 55.1613 65
      vertex -23.75 41.1362 65
      vertex -14.6783 45.1752 65
    endloop
  endfacet
  facet normal -0 0 1
    outer loop
      vertex -29 50.2295 65
      vertex -23.75 41.1362 65
      vertex -17.923 55.1613 65
    endloop
  endfacet
  facet normal 0 0 1
    outer loop
      vertex -29 50.2295 65
      vertex -31.7837 35.2994 65
      vertex -23.75 41.1362 65
    endloop
  endfacet
  facet normal -0 0 1
    outer loop
      vertex -38.8096 43.1024 65
      vertex -31.7837 35.2994 65
      vertex -29 50.2295 65
    endloop
  endfacet
  facet normal 0 0 1
    outer loop
      vertex -31.7837 35.2994 65
      vertex -38.8096 43.1024 65
      vertex -38.4283 27.9198 65
    endloop
  endfacet
  facet normal -0 0 1
    outer loop
      vertex -46.923 34.0915 65
      vertex -38.4283 27.9198 65
      vertex -38.8096 43.1024 65
    endloop
  endfacet
  facet normal 0 0 1
    outer loop
      vertex -38.4283 27.9198 65
      vertex -46.923 34.0915 65
      vertex -43.3934 19.32 65
    endloop
  endfacet
  facet normal -0 0 1
    outer loop
      vertex -52.9856 23.5907 65
      vertex -43.3934 19.32 65
      vertex -46.923 34.0915 65
    endloop
  endfacet
  facet normal 0 0 1
    outer loop
      vertex -43.3934 19.32 65
      vertex -52.9856 23.5907 65
      vertex -46.462 9.8758 65
    endloop
  endfacet
  facet normal -0 0 1
    outer loop
      vertex -56.7326 12.0589 65
      vertex -46.462 9.8758 65
      vertex -52.9856 23.5907 65
    endloop
  endfacet
  facet normal 0 0 1
    outer loop
      vertex -47.5 0 65
      vertex -51.435 0.332658 65
      vertex -51.4 0 65
    endloop
  endfacet
  facet normal 0 0 1
    outer loop
      vertex -47.5 0 65
      vertex -51.5383 0.650778 65
      vertex -51.435 0.332658 65
    endloop
  endfacet
  facet normal 0 -0 1
    outer loop
      vertex -52.8328 1.59123 65
      vertex -46.462 9.8758 65
      vertex -56.7326 12.0589 65
    endloop
  endfacet
  facet normal 0 0 1
    outer loop
      vertex -47.5 0 65
      vertex -51.7056 0.940456 65
      vertex -51.5383 0.650778 65
    endloop
  endfacet
  facet normal 0 0 1
    outer loop
      vertex -47.5 0 65
      vertex -51.9294 1.18903 65
      vertex -51.7056 0.940456 65
    endloop
  endfacet
  facet normal 0 -0 1
    outer loop
      vertex -51.9294 1.18903 65
      vertex -46.462 9.8758 65
      vertex -52.2 1.38564 65
    endloop
  endfacet
  facet normal 0 0 1
    outer loop
      vertex -46.462 9.8758 65
      vertex -51.9294 1.18903 65
      vertex -47.5 0 65
    endloop
  endfacet
  facet normal 0 0 1
    outer loop
      vertex -46.462 9.8758 65
      vertex -52.5056 1.52169 65
      vertex -52.2 1.38564 65
    endloop
  endfacet
  facet normal 0 0 1
    outer loop
      vertex -46.462 9.8758 65
      vertex -52.8328 1.59123 65
      vertex -52.5056 1.52169 65
    endloop
  endfacet
  facet normal 0 0 1
    outer loop
      vertex -52.8328 1.59123 65
      vertex -56.7326 12.0589 65
      vertex -53.1672 1.59123 65
    endloop
  endfacet
  facet normal 0 0 1
    outer loop
      vertex -53.1672 1.59123 65
      vertex -56.7326 12.0589 65
      vertex -53.4944 1.52169 65
    endloop
  endfacet
  facet normal 0 0 1
    outer loop
      vertex -53.4944 1.52169 65
      vertex -56.7326 12.0589 65
      vertex -53.8 1.38564 65
    endloop
  endfacet
  facet normal 0 0 1
    outer loop
      vertex -53.8 1.38564 65
      vertex -56.7326 12.0589 65
      vertex -54.0706 1.18903 65
    endloop
  endfacet
  facet normal 0 0 1
    outer loop
      vertex -58 0 65
      vertex -54.0706 1.18903 65
      vertex -56.7326 12.0589 65
    endloop
  endfacet
  facet normal 0 0 1
    outer loop
      vertex -54.0706 1.18903 65
      vertex -58 0 65
      vertex -54.2944 0.940456 65
    endloop
  endfacet
  facet normal 0 0 1
    outer loop
      vertex -54.2944 0.940456 65
      vertex -58 0 65
      vertex -54.4617 0.650778 65
    endloop
  endfacet
  facet normal 0 0 1
    outer loop
      vertex -54.4617 0.650778 65
      vertex -58 0 65
      vertex -54.565 0.332658 65
    endloop
  endfacet
  facet normal 0 0 1
    outer loop
      vertex 47.5 0 65
      vertex 58 0 65
      vertex 56.7326 12.0589 65
    endloop
  endfacet
  facet normal 0 0 1
    outer loop
      vertex 46.462 9.8758 65
      vertex 56.7326 12.0589 65
      vertex 52.9856 23.5907 65
    endloop
  endfacet
  facet normal 0 0 1
    outer loop
      vertex 58 0 65
      vertex 47.5 0 65
      vertex 56.7326 -12.0589 65
    endloop
  endfacet
  facet normal -0 0 1
    outer loop
      vertex 46.462 -9.8758 65
      vertex 56.7326 -12.0589 65
      vertex 47.5 0 65
    endloop
  endfacet
  facet normal 0 0 1
    outer loop
      vertex 43.3934 19.32 65
      vertex 52.9856 23.5907 65
      vertex 46.923 34.0915 65
    endloop
  endfacet
  facet normal 0 0 1
    outer loop
      vertex 56.7326 12.0589 65
      vertex 46.462 9.8758 65
      vertex 47.5 0 65
    endloop
  endfacet
  facet normal 0 0 1
    outer loop
      vertex 52.9856 23.5907 65
      vertex 43.3934 19.32 65
      vertex 46.462 9.8758 65
    endloop
  endfacet
  facet normal 0 0 1
    outer loop
      vertex 38.4283 27.9198 65
      vertex 46.923 34.0915 65
      vertex 38.8096 43.1024 65
    endloop
  endfacet
  facet normal 0 0 1
    outer loop
      vertex 46.923 34.0915 65
      vertex 38.4283 27.9198 65
      vertex 43.3934 19.32 65
    endloop
  endfacet
  facet normal 0 0 1
    outer loop
      vertex 38.8096 43.1024 65
      vertex 31.7837 35.2994 65
      vertex 38.4283 27.9198 65
    endloop
  endfacet
  facet normal -0 0 1
    outer loop
      vertex 28.065 46.232 65
      vertex 38.8096 43.1024 65
      vertex 29 50.2295 65
    endloop
  endfacet
  facet normal -0 0 1
    outer loop
      vertex 28.065 45.5667 65
      vertex 38.8096 43.1024 65
      vertex 28.1 45.8993 65
    endloop
  endfacet
  facet normal -0 0 1
    outer loop
      vertex 27.9617 45.2486 65
      vertex 38.8096 43.1024 65
      vertex 28.065 45.5667 65
    endloop
  endfacet
  facet normal -0 0 1
    outer loop
      vertex 27.7944 44.9589 65
      vertex 38.8096 43.1024 65
      vertex 27.9617 45.2486 65
    endloop
  endfacet
  facet normal 0 0 1
    outer loop
      vertex 38.8096 43.1024 65
      vertex 27.7944 44.9589 65
      vertex 31.7837 35.2994 65
    endloop
  endfacet
  facet normal -0 0 1
    outer loop
      vertex 27.5706 44.7103 65
      vertex 31.7837 35.2994 65
      vertex 27.7944 44.9589 65
    endloop
  endfacet
  facet normal -0 0 1
    outer loop
      vertex 27.3 44.5137 65
      vertex 31.7837 35.2994 65
      vertex 27.5706 44.7103 65
    endloop
  endfacet
  facet normal -0 0 1
    outer loop
      vertex 26.9944 44.3777 65
      vertex 31.7837 35.2994 65
      vertex 27.3 44.5137 65
    endloop
  endfacet
  facet normal 0 0 1
    outer loop
      vertex 23.75 41.1362 65
      vertex 26.9944 44.3777 65
      vertex 26.6672 44.3081 65
    endloop
  endfacet
  facet normal 0 0 1
    outer loop
      vertex 23.75 41.1362 65
      vertex 26.6672 44.3081 65
      vertex 26.3328 44.3081 65
    endloop
  endfacet
  facet normal 0 0 1
    outer loop
      vertex 23.75 41.1362 65
      vertex 26.3328 44.3081 65
      vertex 26.0056 44.3777 65
    endloop
  endfacet
  facet normal 0 0 1
    outer loop
      vertex 23.75 41.1362 65
      vertex 26.0056 44.3777 65
      vertex 25.7 44.5137 65
    endloop
  endfacet
  facet normal 0 0 1
    outer loop
      vertex 23.75 41.1362 65
      vertex 25.7 44.5137 65
      vertex 25.4294 44.7103 65
    endloop
  endfacet
  facet normal 0 0 1
    outer loop
      vertex 23.75 41.1362 65
      vertex 25.4294 44.7103 65
      vertex 25.2056 44.9589 65
    endloop
  endfacet
  facet normal 0 0 1
    outer loop
      vertex 26.9944 44.3777 65
      vertex 23.75 41.1362 65
      vertex 31.7837 35.2994 65
    endloop
  endfacet
  facet normal 0 0 1
    outer loop
      vertex 25.0383 45.2486 65
      vertex 23.75 41.1362 65
      vertex 25.2056 44.9589 65
    endloop
  endfacet
  facet normal 0 0 1
    outer loop
      vertex 24.935 45.5667 65
      vertex 23.75 41.1362 65
      vertex 25.0383 45.2486 65
    endloop
  endfacet
  facet normal 0 0 1
    outer loop
      vertex 23.75 41.1362 65
      vertex 24.935 45.5667 65
      vertex 24.9 45.8993 65
    endloop
  endfacet
  facet normal 0 0 1
    outer loop
      vertex 56.7326 -12.0589 65
      vertex 46.462 -9.8758 65
      vertex 52.9856 -23.5907 65
    endloop
  endfacet
  facet normal -0 0 1
    outer loop
      vertex 43.3934 -19.32 65
      vertex 52.9856 -23.5907 65
      vertex 46.462 -9.8758 65
    endloop
  endfacet
  facet normal 0 0 1
    outer loop
      vertex 52.9856 -23.5907 65
      vertex 43.3934 -19.32 65
      vertex 46.923 -34.0915 65
    endloop
  endfacet
  facet normal -0 0 1
    outer loop
      vertex 38.4283 -27.9198 65
      vertex 46.923 -34.0915 65
      vertex 43.3934 -19.32 65
    endloop
  endfacet
  facet normal 0 0 1
    outer loop
      vertex 46.923 -34.0915 65
      vertex 38.4283 -27.9198 65
      vertex 38.8096 -43.1024 65
    endloop
  endfacet
  facet normal -0 0 1
    outer loop
      vertex 31.7837 -35.2994 65
      vertex 38.8096 -43.1024 65
      vertex 38.4283 -27.9198 65
    endloop
  endfacet
  facet normal 0 0 1
    outer loop
      vertex 27.7944 -44.9589 65
      vertex 38.8096 -43.1024 65
      vertex 31.7837 -35.2994 65
    endloop
  endfacet
  facet normal 0 0 1
    outer loop
      vertex 28.065 -46.232 65
      vertex 38.8096 -43.1024 65
      vertex 28.1 -45.8993 65
    endloop
  endfacet
  facet normal 0 0 1
    outer loop
      vertex 38.8096 -43.1024 65
      vertex 28.065 -45.5667 65
      vertex 28.1 -45.8993 65
    endloop
  endfacet
  facet normal 0 0 1
    outer loop
      vertex 38.8096 -43.1024 65
      vertex 27.9617 -45.2486 65
      vertex 28.065 -45.5667 65
    endloop
  endfacet
  facet normal 0 0 1
    outer loop
      vertex 38.8096 -43.1024 65
      vertex 27.7944 -44.9589 65
      vertex 27.9617 -45.2486 65
    endloop
  endfacet
  facet normal 0 0 1
    outer loop
      vertex 31.7837 -35.2994 65
      vertex 27.5706 -44.7103 65
      vertex 27.7944 -44.9589 65
    endloop
  endfacet
  facet normal 0 0 1
    outer loop
      vertex 31.7837 -35.2994 65
      vertex 27.3 -44.5137 65
      vertex 27.5706 -44.7103 65
    endloop
  endfacet
  facet normal 0 0 1
    outer loop
      vertex 31.7837 -35.2994 65
      vertex 26.9944 -44.3777 65
      vertex 27.3 -44.5137 65
    endloop
  endfacet
  facet normal -0 0 1
    outer loop
      vertex 23.75 -41.1362 65
      vertex 26.9944 -44.3777 65
      vertex 31.7837 -35.2994 65
    endloop
  endfacet
  facet normal 0 0 1
    outer loop
      vertex 26.9944 -44.3777 65
      vertex 23.75 -41.1362 65
      vertex 26.6672 -44.3081 65
    endloop
  endfacet
  facet normal 0 0 1
    outer loop
      vertex 26.6672 -44.3081 65
      vertex 23.75 -41.1362 65
      vertex 26.3328 -44.3081 65
    endloop
  endfacet
  facet normal 0 0 1
    outer loop
      vertex 26.3328 -44.3081 65
      vertex 23.75 -41.1362 65
      vertex 26.0056 -44.3777 65
    endloop
  endfacet
  facet normal 0 0 1
    outer loop
      vertex 26.0056 -44.3777 65
      vertex 23.75 -41.1362 65
      vertex 25.7 -44.5137 65
    endloop
  endfacet
  facet normal 0 0 1
    outer loop
      vertex 25.7 -44.5137 65
      vertex 23.75 -41.1362 65
      vertex 25.4294 -44.7103 65
    endloop
  endfacet
  facet normal -0 0 1
    outer loop
      vertex 14.6783 -45.1752 65
      vertex 24.935 -45.5667 65
      vertex 23.75 -41.1362 65
    endloop
  endfacet
  facet normal 0 0 1
    outer loop
      vertex 25.0383 -45.2486 65
      vertex 23.75 -41.1362 65
      vertex 24.935 -45.5667 65
    endloop
  endfacet
  facet normal 0 0 1
    outer loop
      vertex 25.2056 -44.9589 65
      vertex 23.75 -41.1362 65
      vertex 25.0383 -45.2486 65
    endloop
  endfacet
  facet normal 0 0 1
    outer loop
      vertex 25.4294 -44.7103 65
      vertex 23.75 -41.1362 65
      vertex 25.2056 -44.9589 65
    endloop
  endfacet
  facet normal 0 0 1
    outer loop
      vertex 38.8096 -43.1024 65
      vertex 28.065 -46.232 65
      vertex 29 -50.2295 65
    endloop
  endfacet
  facet normal -0 0 1
    outer loop
      vertex 27.9617 -46.5501 65
      vertex 29 -50.2295 65
      vertex 28.065 -46.232 65
    endloop
  endfacet
  facet normal -0 0 1
    outer loop
      vertex 27.7944 -46.8398 65
      vertex 29 -50.2295 65
      vertex 27.9617 -46.5501 65
    endloop
  endfacet
  facet normal -0 0 1
    outer loop
      vertex 27.5706 -47.0884 65
      vertex 29 -50.2295 65
      vertex 27.7944 -46.8398 65
    endloop
  endfacet
  facet normal -0 0 1
    outer loop
      vertex 27.3 -47.285 65
      vertex 29 -50.2295 65
      vertex 27.5706 -47.0884 65
    endloop
  endfacet
  facet normal -0 0 1
    outer loop
      vertex 26.9944 -47.421 65
      vertex 29 -50.2295 65
      vertex 27.3 -47.285 65
    endloop
  endfacet
  facet normal -0 0 1
    outer loop
      vertex 26.6672 -47.4906 65
      vertex 29 -50.2295 65
      vertex 26.9944 -47.421 65
    endloop
  endfacet
  facet normal -0 0 1
    outer loop
      vertex 26.3328 -47.4906 65
      vertex 29 -50.2295 65
      vertex 26.6672 -47.4906 65
    endloop
  endfacet
  facet normal 0 0 1
    outer loop
      vertex 26.0056 -47.421 65
      vertex 29 -50.2295 65
      vertex 26.3328 -47.4906 65
    endloop
  endfacet
  facet normal 0 0 1
    outer loop
      vertex 17.923 -55.1613 65
      vertex 26.0056 -47.421 65
      vertex 25.7 -47.285 65
    endloop
  endfacet
  facet normal 0 0 1
    outer loop
      vertex 17.923 -55.1613 65
      vertex 25.7 -47.285 65
      vertex 25.4294 -47.0884 65
    endloop
  endfacet
  facet normal 0 0 1
    outer loop
      vertex 24.935 -45.5667 65
      vertex 14.6783 -45.1752 65
      vertex 24.9 -45.8993 65
    endloop
  endfacet
  facet normal 0 0 1
    outer loop
      vertex 26.0056 -47.421 65
      vertex 17.923 -55.1613 65
      vertex 29 -50.2295 65
    endloop
  endfacet
  facet normal 0 0 1
    outer loop
      vertex 25.2056 -46.8398 65
      vertex 17.923 -55.1613 65
      vertex 25.4294 -47.0884 65
    endloop
  endfacet
  facet normal 0 0 1
    outer loop
      vertex 25.0383 -46.5501 65
      vertex 17.923 -55.1613 65
      vertex 25.2056 -46.8398 65
    endloop
  endfacet
  facet normal 0 0 1
    outer loop
      vertex 14.6783 -45.1752 65
      vertex 25.0383 -46.5501 65
      vertex 24.935 -46.232 65
    endloop
  endfacet
  facet normal 0 0 1
    outer loop
      vertex 24.9 -45.8993 65
      vertex 14.6783 -45.1752 65
      vertex 24.935 -46.232 65
    endloop
  endfacet
  facet normal 0 0 1
    outer loop
      vertex 25.0383 -46.5501 65
      vertex 14.6783 -45.1752 65
      vertex 17.923 -55.1613 65
    endloop
  endfacet
  facet normal 0 0 1
    outer loop
      vertex 14.6783 -45.1752 65
      vertex 6.06265 -57.6823 65
      vertex 17.923 -55.1613 65
    endloop
  endfacet
  facet normal -0 0 1
    outer loop
      vertex 4.9651 -47.2398 65
      vertex 6.06265 -57.6823 65
      vertex 14.6783 -45.1752 65
    endloop
  endfacet
  facet normal -0 0 1
    outer loop
      vertex -4.9651 -47.2398 65
      vertex 6.06265 -57.6823 65
      vertex 4.9651 -47.2398 65
    endloop
  endfacet
  facet normal 0 0 1
    outer loop
      vertex -4.9651 -47.2398 65
      vertex -6.06265 -57.6823 65
      vertex 6.06265 -57.6823 65
    endloop
  endfacet
  facet normal 0 0 1
    outer loop
      vertex -14.6783 -45.1752 65
      vertex -6.06265 -57.6823 65
      vertex -4.9651 -47.2398 65
    endloop
  endfacet
  facet normal 0 0 1
    outer loop
      vertex -14.6783 -45.1752 65
      vertex -17.923 -55.1613 65
      vertex -6.06265 -57.6823 65
    endloop
  endfacet
  facet normal 0 0 1
    outer loop
      vertex -23.75 -41.1362 65
      vertex -17.923 -55.1613 65
      vertex -14.6783 -45.1752 65
    endloop
  endfacet
  facet normal 0 0 1
    outer loop
      vertex -23.75 -41.1362 65
      vertex -29 -50.2295 65
      vertex -17.923 -55.1613 65
    endloop
  endfacet
  facet normal 0 0 1
    outer loop
      vertex -31.7837 -35.2994 65
      vertex -29 -50.2295 65
      vertex -23.75 -41.1362 65
    endloop
  endfacet
  facet normal 0 0 1
    outer loop
      vertex -38.8096 -43.1024 65
      vertex -31.7837 -35.2994 65
      vertex -38.4283 -27.9198 65
    endloop
  endfacet
  facet normal 0 0 1
    outer loop
      vertex -31.7837 -35.2994 65
      vertex -38.8096 -43.1024 65
      vertex -29 -50.2295 65
    endloop
  endfacet
  facet normal 0 0 1
    outer loop
      vertex -46.923 -34.0915 65
      vertex -38.4283 -27.9198 65
      vertex -43.3934 -19.32 65
    endloop
  endfacet
  facet normal 0 0 1
    outer loop
      vertex -52.9856 -23.5907 65
      vertex -43.3934 -19.32 65
      vertex -46.462 -9.8758 65
    endloop
  endfacet
  facet normal 0 0 1
    outer loop
      vertex -38.4283 -27.9198 65
      vertex -46.923 -34.0915 65
      vertex -38.8096 -43.1024 65
    endloop
  endfacet
  facet normal -0 0 1
    outer loop
      vertex -51.9294 -1.18903 65
      vertex -46.462 -9.8758 65
      vertex -47.5 0 65
    endloop
  endfacet
  facet normal 0 0 1
    outer loop
      vertex -51.435 -0.332658 65
      vertex -47.5 0 65
      vertex -51.4 0 65
    endloop
  endfacet
  facet normal 0 0 1
    outer loop
      vertex -51.5383 -0.650778 65
      vertex -47.5 0 65
      vertex -51.435 -0.332658 65
    endloop
  endfacet
  facet normal 0 0 1
    outer loop
      vertex -51.7056 -0.940456 65
      vertex -47.5 0 65
      vertex -51.5383 -0.650778 65
    endloop
  endfacet
  facet normal 0 0 1
    outer loop
      vertex -51.9294 -1.18903 65
      vertex -47.5 0 65
      vertex -51.7056 -0.940456 65
    endloop
  endfacet
  facet normal 0 0 1
    outer loop
      vertex -46.462 -9.8758 65
      vertex -51.9294 -1.18903 65
      vertex -52.2 -1.38564 65
    endloop
  endfacet
  facet normal -0 0 1
    outer loop
      vertex -52.5056 -1.52169 65
      vertex -46.462 -9.8758 65
      vertex -52.2 -1.38564 65
    endloop
  endfacet
  facet normal -0 0 1
    outer loop
      vertex -52.8328 -1.59123 65
      vertex -46.462 -9.8758 65
      vertex -52.5056 -1.52169 65
    endloop
  endfacet
  facet normal 0 0 1
    outer loop
      vertex -46.462 -9.8758 65
      vertex -52.8328 -1.59123 65
      vertex -56.7326 -12.0589 65
    endloop
  endfacet
  facet normal 0 0 1
    outer loop
      vertex -43.3934 -19.32 65
      vertex -52.9856 -23.5907 65
      vertex -46.923 -34.0915 65
    endloop
  endfacet
  facet normal 0 0 1
    outer loop
      vertex -56.7326 -12.0589 65
      vertex -52.8328 -1.59123 65
      vertex -53.1672 -1.59123 65
    endloop
  endfacet
  facet normal 0 0 1
    outer loop
      vertex -56.7326 -12.0589 65
      vertex -53.1672 -1.59123 65
      vertex -53.4944 -1.52169 65
    endloop
  endfacet
  facet normal 0 0 1
    outer loop
      vertex -56.7326 -12.0589 65
      vertex -53.4944 -1.52169 65
      vertex -53.8 -1.38564 65
    endloop
  endfacet
  facet normal 0 0 1
    outer loop
      vertex -56.7326 -12.0589 65
      vertex -53.8 -1.38564 65
      vertex -54.0706 -1.18903 65
    endloop
  endfacet
  facet normal 0 0 1
    outer loop
      vertex -58 0 65
      vertex -54.0706 -1.18903 65
      vertex -54.2944 -0.940456 65
    endloop
  endfacet
  facet normal 0 0 1
    outer loop
      vertex -58 0 65
      vertex -54.2944 -0.940456 65
      vertex -54.4617 -0.650778 65
    endloop
  endfacet
  facet normal 0 0 1
    outer loop
      vertex -58 0 65
      vertex -54.4617 -0.650778 65
      vertex -54.565 -0.332658 65
    endloop
  endfacet
  facet normal -0 0 1
    outer loop
      vertex -58 0 65
      vertex -54.565 -0.332658 65
      vertex -54.6 0 65
    endloop
  endfacet
  facet normal 0 0 1
    outer loop
      vertex -54.565 0.332658 65
      vertex -58 0 65
      vertex -54.6 0 65
    endloop
  endfacet
  facet normal 0 0 1
    outer loop
      vertex -46.462 -9.8758 65
      vertex -56.7326 -12.0589 65
      vertex -52.9856 -23.5907 65
    endloop
  endfacet
  facet normal 0 0 1
    outer loop
      vertex -54.0706 -1.18903 65
      vertex -58 0 65
      vertex -56.7326 -12.0589 65
    endloop
  endfacet
  facet normal -0.743147 0.669128 0
    outer loop
      vertex -46.923 34.0915 55
      vertex -38.8096 43.1024 65
      vertex -38.8096 43.1024 55
    endloop
  endfacet
  facet normal -0.743147 0.669128 0
    outer loop
      vertex -38.8096 43.1024 65
      vertex -46.923 34.0915 55
      vertex -46.923 34.0915 65
    endloop
  endfacet
  facet normal 0.207912 0.978148 -0
    outer loop
      vertex 17.923 55.1613 55
      vertex 6.06265 57.6823 65
      vertex 17.923 55.1613 65
    endloop
  endfacet
  facet normal 0.207912 0.978148 0
    outer loop
      vertex 6.06265 57.6823 65
      vertex 17.923 55.1613 55
      vertex 6.06265 57.6823 55
    endloop
  endfacet
  facet normal 0.406737 0.913545 -0
    outer loop
      vertex 29 50.2295 55
      vertex 17.923 55.1613 65
      vertex 29 50.2295 65
    endloop
  endfacet
  facet normal 0.406737 0.913545 0
    outer loop
      vertex 17.923 55.1613 65
      vertex 29 50.2295 55
      vertex 17.923 55.1613 55
    endloop
  endfacet
  facet normal 0.951054 0.309024 0
    outer loop
      vertex 56.7326 12.0589 65
      vertex 52.9856 23.5907 55
      vertex 52.9856 23.5907 65
    endloop
  endfacet
  facet normal 0.951054 0.309024 0
    outer loop
      vertex 52.9856 23.5907 55
      vertex 56.7326 12.0589 65
      vertex 56.7326 12.0589 55
    endloop
  endfacet
  facet normal -0.207912 0.978148 0
    outer loop
      vertex -6.06265 57.6823 55
      vertex -17.923 55.1613 65
      vertex -6.06265 57.6823 65
    endloop
  endfacet
  facet normal -0.207912 0.978148 0
    outer loop
      vertex -17.923 55.1613 65
      vertex -6.06265 57.6823 55
      vertex -17.923 55.1613 55
    endloop
  endfacet
  facet normal -0.951054 0.309024 0
    outer loop
      vertex -56.7326 12.0589 55
      vertex -52.9856 23.5907 65
      vertex -52.9856 23.5907 55
    endloop
  endfacet
  facet normal -0.951054 0.309024 0
    outer loop
      vertex -52.9856 23.5907 65
      vertex -56.7326 12.0589 55
      vertex -56.7326 12.0589 65
    endloop
  endfacet
  facet normal 0.743147 0.669128 0
    outer loop
      vertex 46.923 34.0915 65
      vertex 38.8096 43.1024 55
      vertex 38.8096 43.1024 65
    endloop
  endfacet
  facet normal 0.743147 0.669128 0
    outer loop
      vertex 38.8096 43.1024 55
      vertex 46.923 34.0915 65
      vertex 46.923 34.0915 55
    endloop
  endfacet
  facet normal -0.406737 0.913545 0
    outer loop
      vertex -17.923 55.1613 55
      vertex -29 50.2295 65
      vertex -17.923 55.1613 65
    endloop
  endfacet
  facet normal -0.406737 0.913545 0
    outer loop
      vertex -29 50.2295 65
      vertex -17.923 55.1613 55
      vertex -29 50.2295 55
    endloop
  endfacet
  facet normal -0.866025 0.5 0
    outer loop
      vertex 38.4283 -27.9198 57
      vertex 43.3934 -19.32 65
      vertex 43.3934 -19.32 57
    endloop
  endfacet
  facet normal -0.866025 0.5 0
    outer loop
      vertex 43.3934 -19.32 65
      vertex 38.4283 -27.9198 57
      vertex 38.4283 -27.9198 65
    endloop
  endfacet
  facet normal 0 1 -0
    outer loop
      vertex 4.9651 -47.2398 57
      vertex -4.9651 -47.2398 65
      vertex 4.9651 -47.2398 65
    endloop
  endfacet
  facet normal 0 1 0
    outer loop
      vertex -4.9651 -47.2398 65
      vertex 4.9651 -47.2398 57
      vertex -4.9651 -47.2398 57
    endloop
  endfacet
  facet normal -0.743146 0.669129 0
    outer loop
      vertex 31.7837 -35.2994 57
      vertex 38.4283 -27.9198 65
      vertex 38.4283 -27.9198 57
    endloop
  endfacet
  facet normal -0.743146 0.669129 0
    outer loop
      vertex 38.4283 -27.9198 65
      vertex 31.7837 -35.2994 57
      vertex 31.7837 -35.2994 65
    endloop
  endfacet
  facet normal -0.207911 0.978148 0
    outer loop
      vertex 14.6783 -45.1752 57
      vertex 4.9651 -47.2398 65
      vertex 14.6783 -45.1752 65
    endloop
  endfacet
  facet normal -0.207911 0.978148 0
    outer loop
      vertex 4.9651 -47.2398 65
      vertex 14.6783 -45.1752 57
      vertex 4.9651 -47.2398 57
    endloop
  endfacet
  facet normal 0.406738 0.913545 -0
    outer loop
      vertex -14.6783 -45.1752 57
      vertex -23.75 -41.1362 65
      vertex -14.6783 -45.1752 65
    endloop
  endfacet
  facet normal 0.406738 0.913545 0
    outer loop
      vertex -23.75 -41.1362 65
      vertex -14.6783 -45.1752 57
      vertex -23.75 -41.1362 57
    endloop
  endfacet
  facet normal -0.994522 -0.10453 0
    outer loop
      vertex 47.5 0 57
      vertex 46.462 9.8758 65
      vertex 46.462 9.8758 57
    endloop
  endfacet
  facet normal -0.994522 -0.10453 0
    outer loop
      vertex 46.462 9.8758 65
      vertex 47.5 0 57
      vertex 47.5 0 65
    endloop
  endfacet
  facet normal -0.207911 -0.978148 0
    outer loop
      vertex 4.9651 47.2398 57
      vertex 14.6783 45.1752 65
      vertex 4.9651 47.2398 65
    endloop
  endfacet
  facet normal -0.207911 -0.978148 -0
    outer loop
      vertex 14.6783 45.1752 65
      vertex 4.9651 47.2398 57
      vertex 14.6783 45.1752 57
    endloop
  endfacet
  facet normal -0.951057 0.309016 0
    outer loop
      vertex 43.3934 -19.32 57
      vertex 46.462 -9.8758 65
      vertex 46.462 -9.8758 57
    endloop
  endfacet
  facet normal -0.951057 0.309016 0
    outer loop
      vertex 46.462 -9.8758 65
      vertex 43.3934 -19.32 57
      vertex 43.3934 -19.32 65
    endloop
  endfacet
  facet normal -0.587784 0.809018 0
    outer loop
      vertex 31.7837 -35.2994 57
      vertex 23.75 -41.1362 65
      vertex 31.7837 -35.2994 65
    endloop
  endfacet
  facet normal -0.587784 0.809018 0
    outer loop
      vertex 23.75 -41.1362 65
      vertex 31.7837 -35.2994 57
      vertex 23.75 -41.1362 57
    endloop
  endfacet
  facet normal -0.406738 0.913545 0
    outer loop
      vertex 23.75 -41.1362 57
      vertex 14.6783 -45.1752 65
      vertex 23.75 -41.1362 65
    endloop
  endfacet
  facet normal -0.406738 0.913545 0
    outer loop
      vertex 14.6783 -45.1752 65
      vertex 23.75 -41.1362 57
      vertex 14.6783 -45.1752 57
    endloop
  endfacet
  facet normal 0.994522 0.10453 0
    outer loop
      vertex -46.462 -9.8758 65
      vertex -47.5 0 57
      vertex -47.5 0 65
    endloop
  endfacet
  facet normal 0.994522 0.10453 0
    outer loop
      vertex -47.5 0 57
      vertex -46.462 -9.8758 65
      vertex -46.462 -9.8758 57
    endloop
  endfacet
  facet normal 0.866025 0.5 0
    outer loop
      vertex -38.4283 -27.9198 65
      vertex -43.3934 -19.32 57
      vertex -43.3934 -19.32 65
    endloop
  endfacet
  facet normal 0.866025 0.5 0
    outer loop
      vertex -43.3934 -19.32 57
      vertex -38.4283 -27.9198 65
      vertex -38.4283 -27.9198 57
    endloop
  endfacet
  facet normal 0.587784 0.809018 -0
    outer loop
      vertex -23.75 -41.1362 57
      vertex -31.7837 -35.2994 65
      vertex -23.75 -41.1362 65
    endloop
  endfacet
  facet normal 0.587784 0.809018 0
    outer loop
      vertex -31.7837 -35.2994 65
      vertex -23.75 -41.1362 57
      vertex -31.7837 -35.2994 57
    endloop
  endfacet
  facet normal 0.207911 0.978148 -0
    outer loop
      vertex -4.9651 -47.2398 57
      vertex -14.6783 -45.1752 65
      vertex -4.9651 -47.2398 65
    endloop
  endfacet
  facet normal 0.207911 0.978148 0
    outer loop
      vertex -14.6783 -45.1752 65
      vertex -4.9651 -47.2398 57
      vertex -14.6783 -45.1752 57
    endloop
  endfacet
  facet normal 0.743146 0.669129 0
    outer loop
      vertex -31.7837 -35.2994 65
      vertex -38.4283 -27.9198 57
      vertex -38.4283 -27.9198 65
    endloop
  endfacet
  facet normal 0.743146 0.669129 0
    outer loop
      vertex -38.4283 -27.9198 57
      vertex -31.7837 -35.2994 65
      vertex -31.7837 -35.2994 57
    endloop
  endfacet
  facet normal -0.994522 0.10453 0
    outer loop
      vertex 46.462 -9.8758 57
      vertex 47.5 0 65
      vertex 47.5 0 57
    endloop
  endfacet
  facet normal -0.994522 0.10453 0
    outer loop
      vertex 47.5 0 65
      vertex 46.462 -9.8758 57
      vertex 46.462 -9.8758 65
    endloop
  endfacet
  facet normal 0.866025 -0.5 0
    outer loop
      vertex -43.3934 19.32 65
      vertex -38.4283 27.9198 57
      vertex -38.4283 27.9198 65
    endloop
  endfacet
  facet normal 0.866025 -0.5 0
    outer loop
      vertex -38.4283 27.9198 57
      vertex -43.3934 19.32 65
      vertex -43.3934 19.32 57
    endloop
  endfacet
  facet normal -0.587784 -0.809018 0
    outer loop
      vertex 23.75 41.1362 57
      vertex 31.7837 35.2994 65
      vertex 23.75 41.1362 65
    endloop
  endfacet
  facet normal -0.587784 -0.809018 -0
    outer loop
      vertex 31.7837 35.2994 65
      vertex 23.75 41.1362 57
      vertex 31.7837 35.2994 57
    endloop
  endfacet
  facet normal 0 0 1
    outer loop
      vertex 46.462 9.8758 57
      vertex 46.462 -9.8758 57
      vertex 47.5 0 57
    endloop
  endfacet
  facet normal 0 0 1
    outer loop
      vertex 43.3934 19.32 57
      vertex 46.462 -9.8758 57
      vertex 46.462 9.8758 57
    endloop
  endfacet
  facet normal 0 0 1
    outer loop
      vertex 43.3934 19.32 57
      vertex 43.3934 -19.32 57
      vertex 46.462 -9.8758 57
    endloop
  endfacet
  facet normal 0 0 1
    outer loop
      vertex 38.4283 27.9198 57
      vertex 43.3934 -19.32 57
      vertex 43.3934 19.32 57
    endloop
  endfacet
  facet normal 0 0 1
    outer loop
      vertex 38.4283 27.9198 57
      vertex 38.4283 -27.9198 57
      vertex 43.3934 -19.32 57
    endloop
  endfacet
  facet normal 0 0 1
    outer loop
      vertex 31.7837 35.2994 57
      vertex 38.4283 -27.9198 57
      vertex 38.4283 27.9198 57
    endloop
  endfacet
  facet normal 0 0 1
    outer loop
      vertex 31.7837 35.2994 57
      vertex 31.7837 -35.2994 57
      vertex 38.4283 -27.9198 57
    endloop
  endfacet
  facet normal 0 0 1
    outer loop
      vertex 23.75 41.1362 57
      vertex 31.7837 -35.2994 57
      vertex 31.7837 35.2994 57
    endloop
  endfacet
  facet normal 0 0 1
    outer loop
      vertex 23.75 41.1362 57
      vertex 23.75 -41.1362 57
      vertex 31.7837 -35.2994 57
    endloop
  endfacet
  facet normal 0 0 1
    outer loop
      vertex 14.6783 45.1752 57
      vertex 23.75 -41.1362 57
      vertex 23.75 41.1362 57
    endloop
  endfacet
  facet normal 0 0 1
    outer loop
      vertex 14.6783 45.1752 57
      vertex 14.6783 -45.1752 57
      vertex 23.75 -41.1362 57
    endloop
  endfacet
  facet normal 0 0 1
    outer loop
      vertex 4.9651 47.2398 57
      vertex 14.6783 -45.1752 57
      vertex 14.6783 45.1752 57
    endloop
  endfacet
  facet normal 0 0 1
    outer loop
      vertex 4.9651 47.2398 57
      vertex 4.9651 -47.2398 57
      vertex 14.6783 -45.1752 57
    endloop
  endfacet
  facet normal -0 0 1
    outer loop
      vertex -4.9651 47.2398 57
      vertex 4.9651 -47.2398 57
      vertex 4.9651 47.2398 57
    endloop
  endfacet
  facet normal 0 0 1
    outer loop
      vertex -4.9651 47.2398 57
      vertex -4.9651 -47.2398 57
      vertex 4.9651 -47.2398 57
    endloop
  endfacet
  facet normal -0 0 1
    outer loop
      vertex -14.6783 45.1752 57
      vertex -4.9651 -47.2398 57
      vertex -4.9651 47.2398 57
    endloop
  endfacet
  facet normal 0 0 1
    outer loop
      vertex -14.6783 45.1752 57
      vertex -14.6783 -45.1752 57
      vertex -4.9651 -47.2398 57
    endloop
  endfacet
  facet normal -0 0 1
    outer loop
      vertex -23.75 41.1362 57
      vertex -14.6783 -45.1752 57
      vertex -14.6783 45.1752 57
    endloop
  endfacet
  facet normal 0 0 1
    outer loop
      vertex -23.75 41.1362 57
      vertex -23.75 -41.1362 57
      vertex -14.6783 -45.1752 57
    endloop
  endfacet
  facet normal -0 0 1
    outer loop
      vertex -31.7837 35.2994 57
      vertex -23.75 -41.1362 57
      vertex -23.75 41.1362 57
    endloop
  endfacet
  facet normal 0 0 1
    outer loop
      vertex -31.7837 35.2994 57
      vertex -31.7837 -35.2994 57
      vertex -23.75 -41.1362 57
    endloop
  endfacet
  facet normal -0 0 1
    outer loop
      vertex -38.4283 27.9198 57
      vertex -31.7837 -35.2994 57
      vertex -31.7837 35.2994 57
    endloop
  endfacet
  facet normal 0 0 1
    outer loop
      vertex -38.4283 27.9198 57
      vertex -38.4283 -27.9198 57
      vertex -31.7837 -35.2994 57
    endloop
  endfacet
  facet normal -0 0 1
    outer loop
      vertex -43.3934 19.32 57
      vertex -38.4283 -27.9198 57
      vertex -38.4283 27.9198 57
    endloop
  endfacet
  facet normal 0 0 1
    outer loop
      vertex -43.3934 19.32 57
      vertex -43.3934 -19.32 57
      vertex -38.4283 -27.9198 57
    endloop
  endfacet
  facet normal -0 0 1
    outer loop
      vertex -46.462 9.8758 57
      vertex -43.3934 -19.32 57
      vertex -43.3934 19.32 57
    endloop
  endfacet
  facet normal 0 0 1
    outer loop
      vertex -46.462 9.8758 57
      vertex -46.462 -9.8758 57
      vertex -43.3934 -19.32 57
    endloop
  endfacet
  facet normal 0 -0 1
    outer loop
      vertex -46.462 -9.8758 57
      vertex -46.462 9.8758 57
      vertex -47.5 0 57
    endloop
  endfacet
  facet normal 0.951057 0.309016 0
    outer loop
      vertex -43.3934 -19.32 65
      vertex -46.462 -9.8758 57
      vertex -46.462 -9.8758 65
    endloop
  endfacet
  facet normal 0.951057 0.309016 0
    outer loop
      vertex -46.462 -9.8758 57
      vertex -43.3934 -19.32 65
      vertex -43.3934 -19.32 57
    endloop
  endfacet
  facet normal -0.866025 -0.5 0
    outer loop
      vertex 43.3934 19.32 57
      vertex 38.4283 27.9198 65
      vertex 38.4283 27.9198 57
    endloop
  endfacet
  facet normal -0.866025 -0.5 0
    outer loop
      vertex 38.4283 27.9198 65
      vertex 43.3934 19.32 57
      vertex 43.3934 19.32 65
    endloop
  endfacet
  facet normal 0 -1 0
    outer loop
      vertex -4.9651 47.2398 57
      vertex 4.9651 47.2398 65
      vertex -4.9651 47.2398 65
    endloop
  endfacet
  facet normal 0 -1 -0
    outer loop
      vertex 4.9651 47.2398 65
      vertex -4.9651 47.2398 57
      vertex 4.9651 47.2398 57
    endloop
  endfacet
  facet normal 0.994522 -0.10453 0
    outer loop
      vertex -47.5 0 65
      vertex -46.462 9.8758 57
      vertex -46.462 9.8758 65
    endloop
  endfacet
  facet normal 0.994522 -0.10453 0
    outer loop
      vertex -46.462 9.8758 57
      vertex -47.5 0 65
      vertex -47.5 0 57
    endloop
  endfacet
  facet normal -0.406738 -0.913545 0
    outer loop
      vertex 14.6783 45.1752 57
      vertex 23.75 41.1362 65
      vertex 14.6783 45.1752 65
    endloop
  endfacet
  facet normal -0.406738 -0.913545 -0
    outer loop
      vertex 23.75 41.1362 65
      vertex 14.6783 45.1752 57
      vertex 23.75 41.1362 57
    endloop
  endfacet
  facet normal -0.951057 -0.309016 0
    outer loop
      vertex 46.462 9.8758 57
      vertex 43.3934 19.32 65
      vertex 43.3934 19.32 57
    endloop
  endfacet
  facet normal -0.951057 -0.309016 0
    outer loop
      vertex 43.3934 19.32 65
      vertex 46.462 9.8758 57
      vertex 46.462 9.8758 65
    endloop
  endfacet
  facet normal 0.951057 -0.309016 0
    outer loop
      vertex -46.462 9.8758 65
      vertex -43.3934 19.32 57
      vertex -43.3934 19.32 65
    endloop
  endfacet
  facet normal 0.951057 -0.309016 0
    outer loop
      vertex -43.3934 19.32 57
      vertex -46.462 9.8758 65
      vertex -46.462 9.8758 57
    endloop
  endfacet
  facet normal 0.743146 -0.669129 0
    outer loop
      vertex -38.4283 27.9198 65
      vertex -31.7837 35.2994 57
      vertex -31.7837 35.2994 65
    endloop
  endfacet
  facet normal 0.743146 -0.669129 0
    outer loop
      vertex -31.7837 35.2994 57
      vertex -38.4283 27.9198 65
      vertex -38.4283 27.9198 57
    endloop
  endfacet
  facet normal -0.743146 -0.669129 0
    outer loop
      vertex 38.4283 27.9198 57
      vertex 31.7837 35.2994 65
      vertex 31.7837 35.2994 57
    endloop
  endfacet
  facet normal -0.743146 -0.669129 0
    outer loop
      vertex 31.7837 35.2994 65
      vertex 38.4283 27.9198 57
      vertex 38.4283 27.9198 65
    endloop
  endfacet
  facet normal 0.406738 -0.913545 0
    outer loop
      vertex -23.75 41.1362 57
      vertex -14.6783 45.1752 65
      vertex -23.75 41.1362 65
    endloop
  endfacet
  facet normal 0.406738 -0.913545 0
    outer loop
      vertex -14.6783 45.1752 65
      vertex -23.75 41.1362 57
      vertex -14.6783 45.1752 57
    endloop
  endfacet
  facet normal 0.587784 -0.809018 0
    outer loop
      vertex -31.7837 35.2994 57
      vertex -23.75 41.1362 65
      vertex -31.7837 35.2994 65
    endloop
  endfacet
  facet normal 0.587784 -0.809018 0
    outer loop
      vertex -23.75 41.1362 65
      vertex -31.7837 35.2994 57
      vertex -23.75 41.1362 57
    endloop
  endfacet
  facet normal 0.207911 -0.978148 0
    outer loop
      vertex -14.6783 45.1752 57
      vertex -4.9651 47.2398 65
      vertex -14.6783 45.1752 65
    endloop
  endfacet
  facet normal 0.207911 -0.978148 0
    outer loop
      vertex -4.9651 47.2398 65
      vertex -14.6783 45.1752 57
      vertex -4.9651 47.2398 57
    endloop
  endfacet
endsolid OpenSCAD_Model
