solid OpenSCAD_Model
  facet normal 0.174937 0.157642 0.971878
    outer loop
      vertex 105.018 2.57359 -23
      vertex 6.06763 1.40839 -5
      vertex 106.068 1.40839 -23
    endloop
  endfacet
  facet normal 0.174942 0.157519 0.971897
    outer loop
      vertex 6.06763 1.40839 -5
      vertex 105.018 2.57359 -23
      vertex 5.01848 2.57359 -5
    endloop
  endfacet
  facet normal 0 1 0
    outer loop
      vertex 4.30641 4.45891 -25
      vertex 100.784 4.45891 -23
      vertex 100.784 4.45891 -25
    endloop
  endfacet
  facet normal 0 1 0
    outer loop
      vertex 100.784 4.45891 -23
      vertex 4.30641 4.45891 -25
      vertex 4.30641 4.45891 -5.63404
    endloop
  endfacet
  facet normal 0 0 1
    outer loop
      vertex 3.09827 -3 -5
      vertex 7.5 -3 -5
      vertex 7.33611 -1.44066 -5
    endloop
  endfacet
  facet normal 0 0 1
    outer loop
      vertex 3.02968 -2.35313 -5
      vertex 7.33611 -1.44066 -5
      vertex 6.85159 0.0505247 -5
    endloop
  endfacet
  facet normal 0 0 1
    outer loop
      vertex 7.5 -3 -5
      vertex 3.09827 -3 -5
      vertex 7.33611 -4.55934 -5
    endloop
  endfacet
  facet normal 0 0 1
    outer loop
      vertex 2.83041 -1.73982 -5
      vertex 6.85159 0.0505247 -5
      vertex 6.06763 1.40839 -5
    endloop
  endfacet
  facet normal -0 0 1
    outer loop
      vertex 3.03086 -3.64133 -5
      vertex 7.33611 -4.55934 -5
      vertex 3.09827 -3 -5
    endloop
  endfacet
  facet normal 0 0 1
    outer loop
      vertex 2.50655 -1.17888 -5
      vertex 6.06763 1.40839 -5
      vertex 5.01848 2.57359 -5
    endloop
  endfacet
  facet normal -0 0 1
    outer loop
      vertex 3.03056 -3.64417 -5
      vertex 7.33611 -4.55934 -5
      vertex 3.03086 -3.64133 -5
    endloop
  endfacet
  facet normal 0 0 1
    outer loop
      vertex 2.07315 -0.69754 -5
      vertex 5.01848 2.57359 -5
      vertex 3.75 3.49519 -5
    endloop
  endfacet
  facet normal -0 0 1
    outer loop
      vertex 3.02968 -3.64687 -5
      vertex 7.33611 -4.55934 -5
      vertex 3.03056 -3.64417 -5
    endloop
  endfacet
  facet normal 0 0 1
    outer loop
      vertex 7.33611 -4.55934 -5
      vertex 3.02968 -3.64687 -5
      vertex 6.85159 -6.05052 -5
    endloop
  endfacet
  facet normal 0 0 1
    outer loop
      vertex 7.33611 -1.44066 -5
      vertex 3.03086 -2.35867 -5
      vertex 3.09827 -3 -5
    endloop
  endfacet
  facet normal 0 0 1
    outer loop
      vertex 7.33611 -1.44066 -5
      vertex 3.03056 -2.35583 -5
      vertex 3.03086 -2.35867 -5
    endloop
  endfacet
  facet normal 0 0 1
    outer loop
      vertex 7.33611 -1.44066 -5
      vertex 3.02968 -2.35313 -5
      vertex 3.03056 -2.35583 -5
    endloop
  endfacet
  facet normal 0 0 1
    outer loop
      vertex 6.85159 0.0505247 -5
      vertex 2.83041 -1.73982 -5
      vertex 3.02968 -2.35313 -5
    endloop
  endfacet
  facet normal 0 0 1
    outer loop
      vertex 6.06763 1.40839 -5
      vertex 2.50797 -1.18135 -5
      vertex 2.83041 -1.73982 -5
    endloop
  endfacet
  facet normal 0 0 1
    outer loop
      vertex 6.06763 1.40839 -5
      vertex 2.50655 -1.17888 -5
      vertex 2.50797 -1.18135 -5
    endloop
  endfacet
  facet normal 0 0 1
    outer loop
      vertex 1.54653 -0.315665 -5
      vertex 3.75 3.49519 -5
      vertex 2.31763 4.13292 -5
    endloop
  endfacet
  facet normal 0 0 1
    outer loop
      vertex 5.01848 2.57359 -5
      vertex 2.07505 -0.699655 -5
      vertex 2.50655 -1.17888 -5
    endloop
  endfacet
  facet normal 0 0 1
    outer loop
      vertex 5.01848 2.57359 -5
      vertex 2.07315 -0.69754 -5
      vertex 2.07505 -0.699655 -5
    endloop
  endfacet
  facet normal 0 0 1
    outer loop
      vertex 3.75 3.49519 -5
      vertex 1.55144 -0.318495 -5
      vertex 2.07315 -0.69754 -5
    endloop
  endfacet
  facet normal 0 0 1
    outer loop
      vertex 3.75 3.49519 -5
      vertex 1.54913 -0.316822 -5
      vertex 1.55144 -0.318495 -5
    endloop
  endfacet
  facet normal 0 0 1
    outer loop
      vertex 3.75 3.49519 -5
      vertex 1.54653 -0.315665 -5
      vertex 1.54913 -0.316822 -5
    endloop
  endfacet
  facet normal 0 0 1
    outer loop
      vertex 2.31763 4.13292 -5
      vertex 0.957417 -0.0533732 -5
      vertex 1.54653 -0.315665 -5
    endloop
  endfacet
  facet normal 0 0 1
    outer loop
      vertex 0.783963 4.45891 -5
      vertex 0.957417 -0.0533732 -5
      vertex 2.31763 4.13292 -5
    endloop
  endfacet
  facet normal 0 0 1
    outer loop
      vertex 0.783963 4.45891 -5
      vertex 0.32664 0.0807025 -5
      vertex 0.957417 -0.0533732 -5
    endloop
  endfacet
  facet normal 0 0 1
    outer loop
      vertex 0.783963 4.45891 -5
      vertex 0.323856 0.0812942 -5
      vertex 0.32664 0.0807025 -5
    endloop
  endfacet
  facet normal 0 0 1
    outer loop
      vertex 0.783963 4.45891 -5
      vertex -0.323856 0.0812942 -5
      vertex 0.323856 0.0812942 -5
    endloop
  endfacet
  facet normal -0 0 1
    outer loop
      vertex -0.783963 4.45891 -5
      vertex -0.323856 0.0812942 -5
      vertex 0.783963 4.45891 -5
    endloop
  endfacet
  facet normal 0 0 1
    outer loop
      vertex -0.323856 0.0812942 -5
      vertex -0.783963 4.45891 -5
      vertex -0.32664 0.0807025 -5
    endloop
  endfacet
  facet normal 0 0 1
    outer loop
      vertex -0.783963 4.45891 -5
      vertex -0.957417 -0.0533732 -5
      vertex -0.32664 0.0807025 -5
    endloop
  endfacet
  facet normal -0 0 1
    outer loop
      vertex -2.31763 4.13292 -5
      vertex -0.957417 -0.0533732 -5
      vertex -0.783963 4.45891 -5
    endloop
  endfacet
  facet normal 0 0 1
    outer loop
      vertex -0.957417 -0.0533732 -5
      vertex -2.31763 4.13292 -5
      vertex -1.54653 -0.315665 -5
    endloop
  endfacet
  facet normal -0 0 1
    outer loop
      vertex -3.75 3.49519 -5
      vertex -1.54653 -0.315665 -5
      vertex -2.31763 4.13292 -5
    endloop
  endfacet
  facet normal 0 0 1
    outer loop
      vertex -1.54653 -0.315665 -5
      vertex -3.75 3.49519 -5
      vertex -1.54913 -0.316822 -5
    endloop
  endfacet
  facet normal 0 0 1
    outer loop
      vertex -1.54913 -0.316822 -5
      vertex -3.75 3.49519 -5
      vertex -1.55144 -0.318495 -5
    endloop
  endfacet
  facet normal 0 0 1
    outer loop
      vertex -1.55144 -0.318495 -5
      vertex -3.75 3.49519 -5
      vertex -2.07315 -0.69754 -5
    endloop
  endfacet
  facet normal -0 0 1
    outer loop
      vertex -5.01848 2.57359 -5
      vertex -2.07315 -0.69754 -5
      vertex -3.75 3.49519 -5
    endloop
  endfacet
  facet normal 0 0 1
    outer loop
      vertex -2.07315 -0.69754 -5
      vertex -5.01848 2.57359 -5
      vertex -2.07505 -0.699655 -5
    endloop
  endfacet
  facet normal 0 0 1
    outer loop
      vertex -2.07505 -0.699655 -5
      vertex -5.01848 2.57359 -5
      vertex -2.50655 -1.17888 -5
    endloop
  endfacet
  facet normal -0 0 1
    outer loop
      vertex -6.06763 1.40839 -5
      vertex -2.50655 -1.17888 -5
      vertex -5.01848 2.57359 -5
    endloop
  endfacet
  facet normal 0 0 1
    outer loop
      vertex -2.50655 -1.17888 -5
      vertex -6.06763 1.40839 -5
      vertex -2.50797 -1.18135 -5
    endloop
  endfacet
  facet normal 0 0 1
    outer loop
      vertex -2.83041 -1.73982 -5
      vertex -6.85159 0.0505247 -5
      vertex -3.02968 -2.35313 -5
    endloop
  endfacet
  facet normal -0 0 1
    outer loop
      vertex -6.85159 0.0505247 -5
      vertex -2.83041 -1.73982 -5
      vertex -6.06763 1.40839 -5
    endloop
  endfacet
  facet normal 0 0 1
    outer loop
      vertex -2.50797 -1.18135 -5
      vertex -6.06763 1.40839 -5
      vertex -2.83041 -1.73982 -5
    endloop
  endfacet
  facet normal -0 0 1
    outer loop
      vertex 2.83041 -4.26018 -5
      vertex 6.85159 -6.05052 -5
      vertex 3.02968 -3.64687 -5
    endloop
  endfacet
  facet normal 0 0 1
    outer loop
      vertex 6.85159 -6.05052 -5
      vertex 2.83041 -4.26018 -5
      vertex 6.06763 -7.40839 -5
    endloop
  endfacet
  facet normal -0 0 1
    outer loop
      vertex 2.50797 -4.81865 -5
      vertex 6.06763 -7.40839 -5
      vertex 2.83041 -4.26018 -5
    endloop
  endfacet
  facet normal -0 0 1
    outer loop
      vertex 2.50655 -4.82112 -5
      vertex 6.06763 -7.40839 -5
      vertex 2.50797 -4.81865 -5
    endloop
  endfacet
  facet normal 0 0 1
    outer loop
      vertex 6.06763 -7.40839 -5
      vertex 2.50655 -4.82112 -5
      vertex 5.01848 -8.57359 -5
    endloop
  endfacet
  facet normal -0 0 1
    outer loop
      vertex 2.07505 -5.30035 -5
      vertex 5.01848 -8.57359 -5
      vertex 2.50655 -4.82112 -5
    endloop
  endfacet
  facet normal -0 0 1
    outer loop
      vertex 2.07315 -5.30246 -5
      vertex 5.01848 -8.57359 -5
      vertex 2.07505 -5.30035 -5
    endloop
  endfacet
  facet normal 0 0 1
    outer loop
      vertex 5.01848 -8.57359 -5
      vertex 2.07315 -5.30246 -5
      vertex 3.75 -9.49519 -5
    endloop
  endfacet
  facet normal -0 0 1
    outer loop
      vertex 1.55144 -5.6815 -5
      vertex 3.75 -9.49519 -5
      vertex 2.07315 -5.30246 -5
    endloop
  endfacet
  facet normal -0 0 1
    outer loop
      vertex 1.54913 -5.68318 -5
      vertex 3.75 -9.49519 -5
      vertex 1.55144 -5.6815 -5
    endloop
  endfacet
  facet normal -0 0 1
    outer loop
      vertex 1.54653 -5.68434 -5
      vertex 3.75 -9.49519 -5
      vertex 1.54913 -5.68318 -5
    endloop
  endfacet
  facet normal 0 0 1
    outer loop
      vertex 3.75 -9.49519 -5
      vertex 1.54653 -5.68434 -5
      vertex 2.31763 -10.1329 -5
    endloop
  endfacet
  facet normal -0 0 1
    outer loop
      vertex 0.957417 -5.94663 -5
      vertex 2.31763 -10.1329 -5
      vertex 1.54653 -5.68434 -5
    endloop
  endfacet
  facet normal 0 0 1
    outer loop
      vertex 0.957417 -5.94663 -5
      vertex 0.783963 -10.4589 -5
      vertex 2.31763 -10.1329 -5
    endloop
  endfacet
  facet normal -0 0 1
    outer loop
      vertex 0.32664 -6.0807 -5
      vertex 0.783963 -10.4589 -5
      vertex 0.957417 -5.94663 -5
    endloop
  endfacet
  facet normal -0 0 1
    outer loop
      vertex 0.323856 -6.08129 -5
      vertex 0.783963 -10.4589 -5
      vertex 0.32664 -6.0807 -5
    endloop
  endfacet
  facet normal -0 0 1
    outer loop
      vertex -0.323856 -6.08129 -5
      vertex 0.783963 -10.4589 -5
      vertex 0.323856 -6.08129 -5
    endloop
  endfacet
  facet normal 0 0 1
    outer loop
      vertex -0.783963 -10.4589 -5
      vertex -0.323856 -6.08129 -5
      vertex -0.32664 -6.0807 -5
    endloop
  endfacet
  facet normal 0 0 1
    outer loop
      vertex -0.323856 -6.08129 -5
      vertex -0.783963 -10.4589 -5
      vertex 0.783963 -10.4589 -5
    endloop
  endfacet
  facet normal 0 0 1
    outer loop
      vertex -0.957417 -5.94663 -5
      vertex -0.783963 -10.4589 -5
      vertex -0.32664 -6.0807 -5
    endloop
  endfacet
  facet normal 0 0 1
    outer loop
      vertex -2.31763 -10.1329 -5
      vertex -0.957417 -5.94663 -5
      vertex -1.54653 -5.68434 -5
    endloop
  endfacet
  facet normal 0 0 1
    outer loop
      vertex -3.75 -9.49519 -5
      vertex -1.54653 -5.68434 -5
      vertex -1.54913 -5.68318 -5
    endloop
  endfacet
  facet normal 0 0 1
    outer loop
      vertex -3.75 -9.49519 -5
      vertex -1.54913 -5.68318 -5
      vertex -1.55144 -5.6815 -5
    endloop
  endfacet
  facet normal 0 0 1
    outer loop
      vertex -3.75 -9.49519 -5
      vertex -1.55144 -5.6815 -5
      vertex -2.07315 -5.30246 -5
    endloop
  endfacet
  facet normal 0 0 1
    outer loop
      vertex -5.01848 -8.57359 -5
      vertex -2.07315 -5.30246 -5
      vertex -2.07505 -5.30035 -5
    endloop
  endfacet
  facet normal 0 0 1
    outer loop
      vertex -0.957417 -5.94663 -5
      vertex -2.31763 -10.1329 -5
      vertex -0.783963 -10.4589 -5
    endloop
  endfacet
  facet normal 0 0 1
    outer loop
      vertex -5.01848 -8.57359 -5
      vertex -2.07505 -5.30035 -5
      vertex -2.50655 -4.82112 -5
    endloop
  endfacet
  facet normal 0 0 1
    outer loop
      vertex -6.06763 -7.40839 -5
      vertex -2.50655 -4.82112 -5
      vertex -2.50797 -4.81865 -5
    endloop
  endfacet
  facet normal 0 0 1
    outer loop
      vertex -6.06763 -7.40839 -5
      vertex -2.50797 -4.81865 -5
      vertex -2.83041 -4.26018 -5
    endloop
  endfacet
  facet normal 0 0 1
    outer loop
      vertex -6.85159 -6.05052 -5
      vertex -2.83041 -4.26018 -5
      vertex -3.02968 -3.64687 -5
    endloop
  endfacet
  facet normal 0 0 1
    outer loop
      vertex -7.33611 -4.55934 -5
      vertex -3.02968 -3.64687 -5
      vertex -3.03056 -3.64417 -5
    endloop
  endfacet
  facet normal 0 0 1
    outer loop
      vertex -1.54653 -5.68434 -5
      vertex -3.75 -9.49519 -5
      vertex -2.31763 -10.1329 -5
    endloop
  endfacet
  facet normal 0 0 1
    outer loop
      vertex -7.33611 -4.55934 -5
      vertex -3.03056 -3.64417 -5
      vertex -3.03086 -3.64133 -5
    endloop
  endfacet
  facet normal 0 0 1
    outer loop
      vertex -7.33611 -4.55934 -5
      vertex -3.03086 -3.64133 -5
      vertex -3.09827 -3 -5
    endloop
  endfacet
  facet normal -0 0 1
    outer loop
      vertex -7.33611 -1.44066 -5
      vertex -3.02968 -2.35313 -5
      vertex -6.85159 0.0505247 -5
    endloop
  endfacet
  facet normal 0 0 1
    outer loop
      vertex -3.02968 -2.35313 -5
      vertex -7.33611 -1.44066 -5
      vertex -3.03056 -2.35583 -5
    endloop
  endfacet
  facet normal 0 0 1
    outer loop
      vertex -2.07315 -5.30246 -5
      vertex -5.01848 -8.57359 -5
      vertex -3.75 -9.49519 -5
    endloop
  endfacet
  facet normal 0 0 1
    outer loop
      vertex -3.03056 -2.35583 -5
      vertex -7.33611 -1.44066 -5
      vertex -3.03086 -2.35867 -5
    endloop
  endfacet
  facet normal 0 0 1
    outer loop
      vertex -2.50655 -4.82112 -5
      vertex -6.06763 -7.40839 -5
      vertex -5.01848 -8.57359 -5
    endloop
  endfacet
  facet normal 0 0 1
    outer loop
      vertex -3.03086 -2.35867 -5
      vertex -7.33611 -1.44066 -5
      vertex -3.09827 -3 -5
    endloop
  endfacet
  facet normal 0 0 1
    outer loop
      vertex -2.83041 -4.26018 -5
      vertex -6.85159 -6.05052 -5
      vertex -6.06763 -7.40839 -5
    endloop
  endfacet
  facet normal 0 0 1
    outer loop
      vertex -7.5 -3 -5
      vertex -3.09827 -3 -5
      vertex -7.33611 -1.44066 -5
    endloop
  endfacet
  facet normal 0 0 1
    outer loop
      vertex -3.02968 -3.64687 -5
      vertex -7.33611 -4.55934 -5
      vertex -6.85159 -6.05052 -5
    endloop
  endfacet
  facet normal 0 0 1
    outer loop
      vertex -3.09827 -3 -5
      vertex -7.5 -3 -5
      vertex -7.33611 -4.55934 -5
    endloop
  endfacet
  facet normal 0 0 -1
    outer loop
      vertex 107.336 -4.55934 -25
      vertex 107.336 -1.44066 -25
      vertex 107.5 -3 -25
    endloop
  endfacet
  facet normal 0 0 -1
    outer loop
      vertex 106.852 -6.05052 -25
      vertex 107.336 -1.44066 -25
      vertex 107.336 -4.55934 -25
    endloop
  endfacet
  facet normal 0 0 -1
    outer loop
      vertex 106.852 -6.05052 -25
      vertex 106.852 0.0505247 -25
      vertex 107.336 -1.44066 -25
    endloop
  endfacet
  facet normal 0 0 -1
    outer loop
      vertex 106.068 -7.40839 -25
      vertex 106.852 0.0505247 -25
      vertex 106.852 -6.05052 -25
    endloop
  endfacet
  facet normal 0 0 -1
    outer loop
      vertex 106.068 -7.40839 -25
      vertex 106.068 1.40839 -25
      vertex 106.852 0.0505247 -25
    endloop
  endfacet
  facet normal 0 0 -1
    outer loop
      vertex 105.018 -8.57359 -25
      vertex 106.068 1.40839 -25
      vertex 106.068 -7.40839 -25
    endloop
  endfacet
  facet normal 0 0 -1
    outer loop
      vertex 105.018 -8.57359 -25
      vertex 105.018 2.57359 -25
      vertex 106.068 1.40839 -25
    endloop
  endfacet
  facet normal 0 0 -1
    outer loop
      vertex 103.75 -9.49519 -25
      vertex 105.018 2.57359 -25
      vertex 105.018 -8.57359 -25
    endloop
  endfacet
  facet normal 0 0 -1
    outer loop
      vertex 103.75 -9.49519 -25
      vertex 103.75 3.49519 -25
      vertex 105.018 2.57359 -25
    endloop
  endfacet
  facet normal 0 0 -1
    outer loop
      vertex 102.318 -10.1329 -25
      vertex 103.75 3.49519 -25
      vertex 103.75 -9.49519 -25
    endloop
  endfacet
  facet normal 0 0 -1
    outer loop
      vertex 102.318 -10.1329 -25
      vertex 102.318 4.13292 -25
      vertex 103.75 3.49519 -25
    endloop
  endfacet
  facet normal 0 0 -1
    outer loop
      vertex 100.784 -10.4589 -25
      vertex 102.318 4.13292 -25
      vertex 102.318 -10.1329 -25
    endloop
  endfacet
  facet normal 0 0 -1
    outer loop
      vertex 100.784 -10.4589 -25
      vertex 100.784 4.45891 -25
      vertex 102.318 4.13292 -25
    endloop
  endfacet
  facet normal 0 0 -1
    outer loop
      vertex 4.30641 -10.4589 -25
      vertex 100.784 4.45891 -25
      vertex 100.784 -10.4589 -25
    endloop
  endfacet
  facet normal 0 0 -1
    outer loop
      vertex 4.30641 -10.4589 -25
      vertex 4.30641 4.45891 -25
      vertex 100.784 4.45891 -25
    endloop
  endfacet
  facet normal 0 0 -1
    outer loop
      vertex 4.30641 -10.4589 -25
      vertex 2.75173 -3 -25
      vertex 4.30641 4.45891 -25
    endloop
  endfacet
  facet normal 0 0 -1
    outer loop
      vertex 4.30641 -10.4589 -25
      vertex 2.7514 -3.00319 -25
      vertex 2.75173 -3 -25
    endloop
  endfacet
  facet normal 0 0 -1
    outer loop
      vertex 4.30641 -10.4589 -25
      vertex 2.6916 -3.57212 -25
      vertex 2.7514 -3.00319 -25
    endloop
  endfacet
  facet normal 0 0 -1
    outer loop
      vertex 4.30641 -10.4589 -25
      vertex 2.51482 -4.11618 -25
      vertex 2.6916 -3.57212 -25
    endloop
  endfacet
  facet normal 0 0 -1
    outer loop
      vertex 4.30641 -10.4589 -25
      vertex 2.51383 -4.11923 -25
      vertex 2.51482 -4.11618 -25
    endloop
  endfacet
  facet normal 0 0 -1
    outer loop
      vertex 4.30641 -10.4589 -25
      vertex 2.51223 -4.12201 -25
      vertex 2.51383 -4.11923 -25
    endloop
  endfacet
  facet normal 0 0 -1
    outer loop
      vertex 4.30641 -10.4589 -25
      vertex 2.2262 -4.61743 -25
      vertex 2.51223 -4.12201 -25
    endloop
  endfacet
  facet normal 0 0 -1
    outer loop
      vertex 4.30641 -10.4589 -25
      vertex 2.22405 -4.61981 -25
      vertex 2.2262 -4.61743 -25
    endloop
  endfacet
  facet normal 0 0 -1
    outer loop
      vertex 4.30641 -10.4589 -25
      vertex 1.84127 -5.04494 -25
      vertex 2.22405 -4.61981 -25
    endloop
  endfacet
  facet normal 0 0 -1
    outer loop
      vertex 4.30641 -10.4589 -25
      vertex 1.83867 -5.04682 -25
      vertex 1.84127 -5.04494 -25
    endloop
  endfacet
  facet normal 0 0 -1
    outer loop
      vertex 4.30641 -10.4589 -25
      vertex 1.37587 -5.38307 -25
      vertex 1.83867 -5.04682 -25
    endloop
  endfacet
  facet normal 0 0 -1
    outer loop
      vertex 4.30641 -10.4589 -25
      vertex 0.853263 -5.61575 -25
      vertex 1.37587 -5.38307 -25
    endloop
  endfacet
  facet normal 0 0 -1
    outer loop
      vertex 4.30641 -10.4589 -25
      vertex 0.850332 -5.61705 -25
      vertex 0.853263 -5.61575 -25
    endloop
  endfacet
  facet normal 0 0 -1
    outer loop
      vertex 4.30641 -10.4589 -25
      vertex 0.847194 -5.61772 -25
      vertex 0.850332 -5.61705 -25
    endloop
  endfacet
  facet normal 0 0 -1
    outer loop
      vertex 4.30641 -10.4589 -25
      vertex 0.287634 -5.73666 -25
      vertex 0.847194 -5.61772 -25
    endloop
  endfacet
  facet normal 0 0 -1
    outer loop
      vertex 4.30641 -10.4589 -25
      vertex -0.287634 -5.73666 -25
      vertex 0.287634 -5.73666 -25
    endloop
  endfacet
  facet normal 0 0 -1
    outer loop
      vertex 4.30641 -10.4589 -25
      vertex -0.847194 -5.61772 -25
      vertex -0.287634 -5.73666 -25
    endloop
  endfacet
  facet normal 0 0 -1
    outer loop
      vertex 4.30641 -10.4589 -25
      vertex -0.850332 -5.61705 -25
      vertex -0.847194 -5.61772 -25
    endloop
  endfacet
  facet normal 0 0 -1
    outer loop
      vertex 4.30641 -10.4589 -25
      vertex -0.853263 -5.61575 -25
      vertex -0.850332 -5.61705 -25
    endloop
  endfacet
  facet normal 0 0 -1
    outer loop
      vertex 4.30641 -10.4589 -25
      vertex -1.37587 -5.38307 -25
      vertex -0.853263 -5.61575 -25
    endloop
  endfacet
  facet normal 0 0 -1
    outer loop
      vertex -8.61281 -3 -25
      vertex -1.37587 -5.38307 -25
      vertex 4.30641 -10.4589 -25
    endloop
  endfacet
  facet normal 0 0 -1
    outer loop
      vertex -1.37587 -5.38307 -25
      vertex -8.61281 -3 -25
      vertex -1.83867 -5.04682 -25
    endloop
  endfacet
  facet normal 0 0 -1
    outer loop
      vertex -8.61281 -3 -25
      vertex -2.51482 -4.11618 -25
      vertex -2.51383 -4.11923 -25
    endloop
  endfacet
  facet normal 0 0 -1
    outer loop
      vertex -2.7514 -3.00319 -25
      vertex -8.61281 -3 -25
      vertex -2.75173 -3 -25
    endloop
  endfacet
  facet normal 0 0 -1
    outer loop
      vertex -2.6916 -3.57212 -25
      vertex -8.61281 -3 -25
      vertex -2.7514 -3.00319 -25
    endloop
  endfacet
  facet normal 0 0 -1
    outer loop
      vertex -2.51482 -4.11618 -25
      vertex -8.61281 -3 -25
      vertex -2.6916 -3.57212 -25
    endloop
  endfacet
  facet normal 0 0 -1
    outer loop
      vertex -2.51223 -4.12201 -25
      vertex -8.61281 -3 -25
      vertex -2.51383 -4.11923 -25
    endloop
  endfacet
  facet normal 0 0 -1
    outer loop
      vertex -2.2262 -4.61743 -25
      vertex -8.61281 -3 -25
      vertex -2.51223 -4.12201 -25
    endloop
  endfacet
  facet normal 0 0 -1
    outer loop
      vertex -2.22405 -4.61981 -25
      vertex -8.61281 -3 -25
      vertex -2.2262 -4.61743 -25
    endloop
  endfacet
  facet normal 0 0 -1
    outer loop
      vertex -1.84127 -5.04494 -25
      vertex -8.61281 -3 -25
      vertex -2.22405 -4.61981 -25
    endloop
  endfacet
  facet normal 0 0 -1
    outer loop
      vertex -1.83867 -5.04682 -25
      vertex -8.61281 -3 -25
      vertex -1.84127 -5.04494 -25
    endloop
  endfacet
  facet normal 0 0 -1
    outer loop
      vertex -43.9324 -94.0109 -25
      vertex -8.61281 -3 -25
      vertex 4.30641 -10.4589 -25
    endloop
  endfacet
  facet normal 0 0 -1
    outer loop
      vertex -56.8516 -86.552 -25
      vertex -43.9324 -94.0109 -25
      vertex -44.9815 -95.1761 -25
    endloop
  endfacet
  facet normal 0 0 -1
    outer loop
      vertex -56.8516 -86.552 -25
      vertex -44.9815 -95.1761 -25
      vertex -46.25 -96.0977 -25
    endloop
  endfacet
  facet normal 0 0 -1
    outer loop
      vertex -56.8516 -86.552 -25
      vertex -46.25 -96.0977 -25
      vertex -47.6824 -96.7355 -25
    endloop
  endfacet
  facet normal 0 0 -1
    outer loop
      vertex -56.8516 -86.552 -25
      vertex -47.6824 -96.7355 -25
      vertex -49.216 -97.0615 -25
    endloop
  endfacet
  facet normal 0 0 -1
    outer loop
      vertex -56.8516 -86.552 -25
      vertex -49.216 -97.0615 -25
      vertex -50.784 -97.0615 -25
    endloop
  endfacet
  facet normal 0 0 -1
    outer loop
      vertex -56.8516 -86.552 -25
      vertex -50.784 -97.0615 -25
      vertex -52.3176 -96.7355 -25
    endloop
  endfacet
  facet normal 0 0 -1
    outer loop
      vertex -56.8516 -86.552 -25
      vertex -52.3176 -96.7355 -25
      vertex -53.75 -96.0977 -25
    endloop
  endfacet
  facet normal 0 0 -1
    outer loop
      vertex -56.8516 -86.552 -25
      vertex -53.75 -96.0977 -25
      vertex -55.0185 -95.1761 -25
    endloop
  endfacet
  facet normal 0 0 -1
    outer loop
      vertex -56.8516 -86.552 -25
      vertex -55.0185 -95.1761 -25
      vertex -56.0676 -94.0109 -25
    endloop
  endfacet
  facet normal 0 0 -1
    outer loop
      vertex -56.8516 -86.552 -25
      vertex -56.0676 -94.0109 -25
      vertex -56.8516 -92.6531 -25
    endloop
  endfacet
  facet normal 0 0 -1
    outer loop
      vertex -43.9324 -94.0109 -25
      vertex -56.8516 -86.552 -25
      vertex -8.61281 -3 -25
    endloop
  endfacet
  facet normal 0 0 -1
    outer loop
      vertex -57.3361 -91.1619 -25
      vertex -56.8516 -86.552 -25
      vertex -56.8516 -92.6531 -25
    endloop
  endfacet
  facet normal 0 0 -1
    outer loop
      vertex -57.3361 -91.1619 -25
      vertex -57.3361 -88.0432 -25
      vertex -56.8516 -86.552 -25
    endloop
  endfacet
  facet normal 0 -0 -1
    outer loop
      vertex -57.3361 -88.0432 -25
      vertex -57.3361 -91.1619 -25
      vertex -57.5 -89.6025 -25
    endloop
  endfacet
  facet normal 0 0 -1
    outer loop
      vertex 2.7514 -2.99681 -25
      vertex 4.30641 4.45891 -25
      vertex 2.75173 -3 -25
    endloop
  endfacet
  facet normal 0 0 -1
    outer loop
      vertex 2.6916 -2.42788 -25
      vertex 4.30641 4.45891 -25
      vertex 2.7514 -2.99681 -25
    endloop
  endfacet
  facet normal 0 0 -1
    outer loop
      vertex 2.51482 -1.88382 -25
      vertex 4.30641 4.45891 -25
      vertex 2.6916 -2.42788 -25
    endloop
  endfacet
  facet normal 0 0 -1
    outer loop
      vertex 2.51383 -1.88077 -25
      vertex 4.30641 4.45891 -25
      vertex 2.51482 -1.88382 -25
    endloop
  endfacet
  facet normal 0 0 -1
    outer loop
      vertex 2.51223 -1.87799 -25
      vertex 4.30641 4.45891 -25
      vertex 2.51383 -1.88077 -25
    endloop
  endfacet
  facet normal 0 0 -1
    outer loop
      vertex 2.2262 -1.38257 -25
      vertex 4.30641 4.45891 -25
      vertex 2.51223 -1.87799 -25
    endloop
  endfacet
  facet normal 0 0 -1
    outer loop
      vertex 2.22405 -1.38019 -25
      vertex 4.30641 4.45891 -25
      vertex 2.2262 -1.38257 -25
    endloop
  endfacet
  facet normal 0 0 -1
    outer loop
      vertex 1.84127 -0.955065 -25
      vertex 4.30641 4.45891 -25
      vertex 2.22405 -1.38019 -25
    endloop
  endfacet
  facet normal 0 0 -1
    outer loop
      vertex 1.83867 -0.953179 -25
      vertex 4.30641 4.45891 -25
      vertex 1.84127 -0.955065 -25
    endloop
  endfacet
  facet normal 0 0 -1
    outer loop
      vertex 1.37587 -0.616931 -25
      vertex 4.30641 4.45891 -25
      vertex 1.83867 -0.953179 -25
    endloop
  endfacet
  facet normal 0 0 -1
    outer loop
      vertex 0.853263 -0.384252 -25
      vertex 4.30641 4.45891 -25
      vertex 1.37587 -0.616931 -25
    endloop
  endfacet
  facet normal 0 0 -1
    outer loop
      vertex 0.850332 -0.382947 -25
      vertex 4.30641 4.45891 -25
      vertex 0.853263 -0.384252 -25
    endloop
  endfacet
  facet normal 0 0 -1
    outer loop
      vertex 0.847194 -0.38228 -25
      vertex 4.30641 4.45891 -25
      vertex 0.850332 -0.382947 -25
    endloop
  endfacet
  facet normal 0 0 -1
    outer loop
      vertex 0.287634 -0.263342 -25
      vertex 4.30641 4.45891 -25
      vertex 0.847194 -0.38228 -25
    endloop
  endfacet
  facet normal 0 0 -1
    outer loop
      vertex -0.287634 -0.263342 -25
      vertex 4.30641 4.45891 -25
      vertex 0.287634 -0.263342 -25
    endloop
  endfacet
  facet normal 0 0 -1
    outer loop
      vertex -0.847194 -0.38228 -25
      vertex 4.30641 4.45891 -25
      vertex -0.287634 -0.263342 -25
    endloop
  endfacet
  facet normal 0 0 -1
    outer loop
      vertex -0.850332 -0.382947 -25
      vertex 4.30641 4.45891 -25
      vertex -0.847194 -0.38228 -25
    endloop
  endfacet
  facet normal 0 0 -1
    outer loop
      vertex -0.853263 -0.384252 -25
      vertex 4.30641 4.45891 -25
      vertex -0.850332 -0.382947 -25
    endloop
  endfacet
  facet normal 0 0 -1
    outer loop
      vertex -1.37587 -0.616931 -25
      vertex 4.30641 4.45891 -25
      vertex -0.853263 -0.384252 -25
    endloop
  endfacet
  facet normal 0 0 -1
    outer loop
      vertex -8.61281 -3 -25
      vertex -1.37587 -0.616931 -25
      vertex -1.83867 -0.953179 -25
    endloop
  endfacet
  facet normal 0 0 -1
    outer loop
      vertex -8.61281 -3 -25
      vertex -1.83867 -0.953179 -25
      vertex -1.84127 -0.955065 -25
    endloop
  endfacet
  facet normal 0 0 -1
    outer loop
      vertex -8.61281 -3 -25
      vertex -2.51482 -1.88382 -25
      vertex -2.6916 -2.42788 -25
    endloop
  endfacet
  facet normal 0 0 -1
    outer loop
      vertex -8.61281 -3 -25
      vertex -2.7514 -2.99681 -25
      vertex -2.75173 -3 -25
    endloop
  endfacet
  facet normal 0 0 -1
    outer loop
      vertex -8.61281 -3 -25
      vertex -2.6916 -2.42788 -25
      vertex -2.7514 -2.99681 -25
    endloop
  endfacet
  facet normal -0 0 -1
    outer loop
      vertex -2.51482 -1.88382 -25
      vertex -8.61281 -3 -25
      vertex -2.51383 -1.88077 -25
    endloop
  endfacet
  facet normal 0 0 -1
    outer loop
      vertex -8.61281 -3 -25
      vertex -2.51223 -1.87799 -25
      vertex -2.51383 -1.88077 -25
    endloop
  endfacet
  facet normal 0 0 -1
    outer loop
      vertex -8.61281 -3 -25
      vertex -2.2262 -1.38257 -25
      vertex -2.51223 -1.87799 -25
    endloop
  endfacet
  facet normal 0 0 -1
    outer loop
      vertex -8.61281 -3 -25
      vertex -2.22405 -1.38019 -25
      vertex -2.2262 -1.38257 -25
    endloop
  endfacet
  facet normal 0 0 -1
    outer loop
      vertex -8.61281 -3 -25
      vertex -1.84127 -0.955065 -25
      vertex -2.22405 -1.38019 -25
    endloop
  endfacet
  facet normal -0 0 -1
    outer loop
      vertex -1.37587 -0.616931 -25
      vertex -8.61281 -3 -25
      vertex 4.30641 4.45891 -25
    endloop
  endfacet
  facet normal 0 0 -1
    outer loop
      vertex -8.61281 -3 -25
      vertex -43.9324 88.0109 -25
      vertex 4.30641 4.45891 -25
    endloop
  endfacet
  facet normal 0 0 -1
    outer loop
      vertex -56.8516 80.552 -25
      vertex -43.9324 88.0109 -25
      vertex -8.61281 -3 -25
    endloop
  endfacet
  facet normal -0 0 -1
    outer loop
      vertex -43.9324 88.0109 -25
      vertex -56.8516 80.552 -25
      vertex -44.9815 89.1761 -25
    endloop
  endfacet
  facet normal -0 0 -1
    outer loop
      vertex -44.9815 89.1761 -25
      vertex -56.8516 80.552 -25
      vertex -46.25 90.0977 -25
    endloop
  endfacet
  facet normal -0 0 -1
    outer loop
      vertex -46.25 90.0977 -25
      vertex -56.8516 80.552 -25
      vertex -47.6824 90.7355 -25
    endloop
  endfacet
  facet normal -0 0 -1
    outer loop
      vertex -47.6824 90.7355 -25
      vertex -56.8516 80.552 -25
      vertex -49.216 91.0615 -25
    endloop
  endfacet
  facet normal -0 0 -1
    outer loop
      vertex -49.216 91.0615 -25
      vertex -56.8516 80.552 -25
      vertex -50.784 91.0615 -25
    endloop
  endfacet
  facet normal 0 0 -1
    outer loop
      vertex -50.784 91.0615 -25
      vertex -56.8516 80.552 -25
      vertex -52.3176 90.7355 -25
    endloop
  endfacet
  facet normal 0 0 -1
    outer loop
      vertex -52.3176 90.7355 -25
      vertex -56.8516 80.552 -25
      vertex -53.75 90.0977 -25
    endloop
  endfacet
  facet normal 0 0 -1
    outer loop
      vertex -53.75 90.0977 -25
      vertex -56.8516 80.552 -25
      vertex -55.0185 89.1761 -25
    endloop
  endfacet
  facet normal 0 0 -1
    outer loop
      vertex -55.0185 89.1761 -25
      vertex -56.8516 80.552 -25
      vertex -56.0676 88.0109 -25
    endloop
  endfacet
  facet normal 0 0 -1
    outer loop
      vertex -56.8516 80.552 -25
      vertex -56.8516 86.6531 -25
      vertex -56.0676 88.0109 -25
    endloop
  endfacet
  facet normal 0 0 -1
    outer loop
      vertex -57.3361 82.0432 -25
      vertex -56.8516 86.6531 -25
      vertex -56.8516 80.552 -25
    endloop
  endfacet
  facet normal 0 0 -1
    outer loop
      vertex -57.3361 82.0432 -25
      vertex -57.3361 85.1619 -25
      vertex -56.8516 86.6531 -25
    endloop
  endfacet
  facet normal 0 -0 -1
    outer loop
      vertex -57.3361 85.1619 -25
      vertex -57.3361 82.0432 -25
      vertex -57.5 83.6025 -25
    endloop
  endfacet
  facet normal 0 -1 0
    outer loop
      vertex 4.30641 -10.4589 -25
      vertex 100.784 -10.4589 -23
      vertex 4.30641 -10.4589 -5.63404
    endloop
  endfacet
  facet normal 0 -1 -0
    outer loop
      vertex 100.784 -10.4589 -23
      vertex 4.30641 -10.4589 -25
      vertex 100.784 -10.4589 -25
    endloop
  endfacet
  facet normal 0.866016 -0.500016 0
    outer loop
      vertex 106.068 -7.40839 -23
      vertex 106.852 -6.05052 -25
      vertex 106.852 -6.05052 -23
    endloop
  endfacet
  facet normal 0.866016 -0.500016 0
    outer loop
      vertex 106.852 -6.05052 -25
      vertex 106.068 -7.40839 -23
      vertex 106.068 -7.40839 -25
    endloop
  endfacet
  facet normal 0.866015 0.500017 0
    outer loop
      vertex 106.852 0.0505247 -23
      vertex 106.068 1.40839 -25
      vertex 106.068 1.40839 -23
    endloop
  endfacet
  facet normal 0.866015 0.500017 0
    outer loop
      vertex 106.068 1.40839 -25
      vertex 106.852 0.0505247 -23
      vertex 106.852 0.0505247 -25
    endloop
  endfacet
  facet normal 0.207868 0.978157 -0
    outer loop
      vertex 102.318 4.13292 -25
      vertex 100.784 4.45891 -23
      vertex 102.318 4.13292 -23
    endloop
  endfacet
  facet normal 0.207868 0.978157 0
    outer loop
      vertex 100.784 4.45891 -23
      vertex 102.318 4.13292 -25
      vertex 100.784 4.45891 -25
    endloop
  endfacet
  facet normal 0.951153 0.30872 0
    outer loop
      vertex 107.336 -1.44066 -23
      vertex 106.852 0.0505247 -25
      vertex 106.852 0.0505247 -23
    endloop
  endfacet
  facet normal 0.951153 0.30872 0
    outer loop
      vertex 106.852 0.0505247 -25
      vertex 107.336 -1.44066 -23
      vertex 107.336 -1.44066 -25
    endloop
  endfacet
  facet normal 0.587929 0.808913 -0
    outer loop
      vertex 105.018 2.57359 -25
      vertex 103.75 3.49519 -23
      vertex 105.018 2.57359 -23
    endloop
  endfacet
  facet normal 0.587929 0.808913 0
    outer loop
      vertex 103.75 3.49519 -23
      vertex 105.018 2.57359 -25
      vertex 103.75 3.49519 -25
    endloop
  endfacet
  facet normal 0.176861 0.0574045 0.98256
    outer loop
      vertex 106.852 0.0505247 -23
      vertex 7.33611 -1.44066 -5
      vertex 107.336 -1.44066 -23
    endloop
  endfacet
  facet normal 0.17686 0.0574657 0.982557
    outer loop
      vertex 7.33611 -1.44066 -5
      vertex 106.852 0.0505247 -23
      vertex 6.85159 0.0505247 -5
    endloop
  endfacet
  facet normal 0.742876 -0.66943 0
    outer loop
      vertex 105.018 -8.57359 -23
      vertex 106.068 -7.40839 -25
      vertex 106.068 -7.40839 -23
    endloop
  endfacet
  facet normal 0.742876 -0.66943 0
    outer loop
      vertex 106.068 -7.40839 -25
      vertex 105.018 -8.57359 -23
      vertex 105.018 -8.57359 -25
    endloop
  endfacet
  facet normal 0.951153 -0.308721 0
    outer loop
      vertex 106.852 -6.05052 -23
      vertex 107.336 -4.55934 -25
      vertex 107.336 -4.55934 -23
    endloop
  endfacet
  facet normal 0.951153 -0.308721 0
    outer loop
      vertex 107.336 -4.55934 -25
      vertex 106.852 -6.05052 -23
      vertex 106.852 -6.05052 -25
    endloop
  endfacet
  facet normal 0.176861 -0.0574047 0.98256
    outer loop
      vertex 7.33611 -4.55934 -5
      vertex 106.852 -6.05052 -23
      vertex 107.336 -4.55934 -23
    endloop
  endfacet
  facet normal 0.17686 -0.0574659 0.982557
    outer loop
      vertex 106.852 -6.05052 -23
      vertex 7.33611 -4.55934 -5
      vertex 6.85159 -6.05052 -5
    endloop
  endfacet
  facet normal 0.177122 -0.0186284 0.984013
    outer loop
      vertex 7.5 -3 -5
      vertex 107.336 -4.55934 -23
      vertex 107.5 -3 -23
    endloop
  endfacet
  facet normal 0.177122 -0.018616 0.984013
    outer loop
      vertex 107.336 -4.55934 -23
      vertex 7.5 -3 -5
      vertex 7.33611 -4.55934 -5
    endloop
  endfacet
  facet normal 0.406823 0.913507 -0
    outer loop
      vertex 103.75 3.49519 -25
      vertex 102.318 4.13292 -23
      vertex 103.75 3.49519 -23
    endloop
  endfacet
  facet normal 0.406823 0.913507 0
    outer loop
      vertex 102.318 4.13292 -23
      vertex 103.75 3.49519 -25
      vertex 102.318 4.13292 -25
    endloop
  endfacet
  facet normal 0.742876 0.66943 0
    outer loop
      vertex 106.068 1.40839 -23
      vertex 105.018 2.57359 -25
      vertex 105.018 2.57359 -23
    endloop
  endfacet
  facet normal 0.742876 0.66943 0
    outer loop
      vertex 105.018 2.57359 -25
      vertex 106.068 1.40839 -23
      vertex 106.068 1.40839 -25
    endloop
  endfacet
  facet normal 0.994515 0.104596 0
    outer loop
      vertex 107.5 -3 -23
      vertex 107.336 -1.44066 -25
      vertex 107.336 -1.44066 -23
    endloop
  endfacet
  facet normal 0.994515 0.104596 0
    outer loop
      vertex 107.336 -1.44066 -25
      vertex 107.5 -3 -23
      vertex 107.5 -3 -25
    endloop
  endfacet
  facet normal 0.176233 0.101753 0.979075
    outer loop
      vertex 106.068 1.40839 -23
      vertex 6.85159 0.0505247 -5
      vertex 106.852 0.0505247 -23
    endloop
  endfacet
  facet normal 0.176233 0.101748 0.979076
    outer loop
      vertex 6.85159 0.0505247 -5
      vertex 106.068 1.40839 -23
      vertex 6.06763 1.40839 -5
    endloop
  endfacet
  facet normal 0.172115 0.236807 0.95619
    outer loop
      vertex 103.75 3.49519 -23
      vertex 5.01848 2.57359 -5
      vertex 105.018 2.57359 -23
    endloop
  endfacet
  facet normal 0.172111 0.236891 0.95617
    outer loop
      vertex 5.01848 2.57359 -5
      vertex 103.75 3.49519 -23
      vertex 3.75 3.49519 -5
    endloop
  endfacet
  facet normal 0.176233 -0.101752 0.979075
    outer loop
      vertex 6.85159 -6.05052 -5
      vertex 106.068 -7.40839 -23
      vertex 106.852 -6.05052 -23
    endloop
  endfacet
  facet normal 0.176233 -0.101747 0.979076
    outer loop
      vertex 106.068 -7.40839 -23
      vertex 6.85159 -6.05052 -5
      vertex 6.06763 -7.40839 -5
    endloop
  endfacet
  facet normal 0.994515 -0.104596 0
    outer loop
      vertex 107.336 -4.55934 -23
      vertex 107.5 -3 -25
      vertex 107.5 -3 -23
    endloop
  endfacet
  facet normal 0.994515 -0.104596 0
    outer loop
      vertex 107.5 -3 -25
      vertex 107.336 -4.55934 -23
      vertex 107.336 -4.55934 -25
    endloop
  endfacet
  facet normal 0.587929 -0.808913 0
    outer loop
      vertex 103.75 -9.49519 -25
      vertex 105.018 -8.57359 -23
      vertex 103.75 -9.49519 -23
    endloop
  endfacet
  facet normal 0.587929 -0.808913 0
    outer loop
      vertex 105.018 -8.57359 -23
      vertex 103.75 -9.49519 -25
      vertex 105.018 -8.57359 -25
    endloop
  endfacet
  facet normal 0.177122 0.0186284 0.984013
    outer loop
      vertex 107.336 -1.44066 -23
      vertex 7.5 -3 -5
      vertex 107.5 -3 -23
    endloop
  endfacet
  facet normal 0.177122 0.018616 0.984013
    outer loop
      vertex 7.5 -3 -5
      vertex 107.336 -1.44066 -23
      vertex 7.33611 -1.44066 -5
    endloop
  endfacet
  facet normal 0.174937 -0.157642 0.971878
    outer loop
      vertex 6.06763 -7.40839 -5
      vertex 105.018 -8.57359 -23
      vertex 106.068 -7.40839 -23
    endloop
  endfacet
  facet normal 0.174942 -0.157519 0.971897
    outer loop
      vertex 105.018 -8.57359 -23
      vertex 6.06763 -7.40839 -5
      vertex 5.01848 -8.57359 -5
    endloop
  endfacet
  facet normal 0.406813 -0.913512 0
    outer loop
      vertex 102.318 -10.1329 -25
      vertex 103.75 -9.49519 -23
      vertex 102.318 -10.1329 -23
    endloop
  endfacet
  facet normal 0.406813 -0.913512 0
    outer loop
      vertex 103.75 -9.49519 -23
      vertex 102.318 -10.1329 -25
      vertex 103.75 -9.49519 -25
    endloop
  endfacet
  facet normal 0.207874 -0.978156 0
    outer loop
      vertex 100.784 -10.4589 -25
      vertex 102.318 -10.1329 -23
      vertex 100.784 -10.4589 -23
    endloop
  endfacet
  facet normal 0.207874 -0.978156 0
    outer loop
      vertex 102.318 -10.1329 -23
      vertex 100.784 -10.4589 -25
      vertex 102.318 -10.1329 -25
    endloop
  endfacet
  facet normal 0.136075 -0.640303 0.755974
    outer loop
      vertex 4.1182 -10.1329 -5.3241
      vertex 100.784 -10.4589 -23
      vertex 102.318 -10.1329 -23
    endloop
  endfacet
  facet normal 0.13616 -0.639726 0.756446
    outer loop
      vertex 100.784 -10.4589 -23
      vertex 4.29989 -10.4476 -5.62331
      vertex 4.30641 -10.4589 -5.63404
    endloop
  endfacet
  facet normal 0.136084 -0.640243 0.756023
    outer loop
      vertex 100.784 -10.4589 -23
      vertex 4.1182 -10.1329 -5.3241
      vertex 4.29989 -10.4476 -5.62331
    endloop
  endfacet
  facet normal 0.164607 -0.36963 0.914482
    outer loop
      vertex 3.75 -9.49519 -5
      vertex 102.318 -10.1329 -23
      vertex 103.75 -9.49519 -23
    endloop
  endfacet
  facet normal 0.164601 -0.36971 0.914451
    outer loop
      vertex 102.318 -10.1329 -23
      vertex 3.75 -9.49519 -5
      vertex 4.1182 -10.1329 -5.3241
    endloop
  endfacet
  facet normal 0.164601 0.3697 0.914455
    outer loop
      vertex 3.75 3.49519 -5
      vertex 102.318 4.13292 -23
      vertex 4.1182 4.13292 -5.3241
    endloop
  endfacet
  facet normal 0.164608 0.36962 0.914486
    outer loop
      vertex 102.318 4.13292 -23
      vertex 3.75 3.49519 -5
      vertex 103.75 3.49519 -23
    endloop
  endfacet
  facet normal 0.136062 0.640395 0.755898
    outer loop
      vertex 4.29989 4.44763 -5.62331
      vertex 100.784 4.45891 -23
      vertex 4.30641 4.45891 -5.63404
    endloop
  endfacet
  facet normal 0.136086 0.640231 0.756032
    outer loop
      vertex 4.1182 4.13292 -5.3241
      vertex 100.784 4.45891 -23
      vertex 4.29989 4.44763 -5.62331
    endloop
  endfacet
  facet normal 0.136073 0.640314 0.755964
    outer loop
      vertex 100.784 4.45891 -23
      vertex 4.1182 4.13292 -5.3241
      vertex 102.318 4.13292 -23
    endloop
  endfacet
  facet normal 0.172115 -0.236807 0.95619
    outer loop
      vertex 5.01848 -8.57359 -5
      vertex 103.75 -9.49519 -23
      vertex 105.018 -8.57359 -23
    endloop
  endfacet
  facet normal 0.172111 -0.236891 0.95617
    outer loop
      vertex 103.75 -9.49519 -23
      vertex 5.01848 -8.57359 -5
      vertex 3.75 -9.49519 -5
    endloop
  endfacet
  facet normal 0.866025 0.5 -0
    outer loop
      vertex 4.30641 4.45891 -25
      vertex -43.9324 88.0109 -23
      vertex 4.30641 4.45891 -5.63404
    endloop
  endfacet
  facet normal 0.866025 0.5 0
    outer loop
      vertex -43.9324 88.0109 -23
      vertex 4.30641 4.45891 -25
      vertex -43.9324 88.0109 -25
    endloop
  endfacet
  facet normal -0.994522 0.104529 0
    outer loop
      vertex -57.5 83.6025 -25
      vertex -57.3361 85.1619 -23
      vertex -57.3361 85.1619 -25
    endloop
  endfacet
  facet normal -0.994522 0.104529 0
    outer loop
      vertex -57.3361 85.1619 -23
      vertex -57.5 83.6025 -25
      vertex -57.5 83.6025 -23
    endloop
  endfacet
  facet normal -0.0386635 0.181898 0.982557
    outer loop
      vertex -0.783963 4.45891 -5
      vertex -52.3176 90.7355 -23
      vertex -2.31763 4.13292 -5
    endloop
  endfacet
  facet normal -0.406766 0.913533 0
    outer loop
      vertex -52.3176 90.7355 -25
      vertex -53.75 90.0977 -23
      vertex -52.3176 90.7355 -23
    endloop
  endfacet
  facet normal -0.406766 0.913533 0
    outer loop
      vertex -53.75 90.0977 -23
      vertex -52.3176 90.7355 -25
      vertex -53.75 90.0977 -25
    endloop
  endfacet
  facet normal -0.40247 -0.0423002 0.914455
    outer loop
      vertex -7.5 -3 -5
      vertex -57.3361 82.0432 -23
      vertex -8.23639 -3 -5.3241
    endloop
  endfacet
  facet normal -0.402477 -0.0423049 0.914452
    outer loop
      vertex -57.3361 82.0432 -23
      vertex -7.5 -3 -5
      vertex -57.5 83.6025 -23
    endloop
  endfacet
  facet normal -0.994521 -0.104535 0
    outer loop
      vertex -57.3361 82.0432 -25
      vertex -57.5 83.6025 -23
      vertex -57.5 83.6025 -25
    endloop
  endfacet
  facet normal -0.994521 -0.104535 0
    outer loop
      vertex -57.5 83.6025 -23
      vertex -57.3361 82.0432 -25
      vertex -57.3361 82.0432 -23
    endloop
  endfacet
  facet normal 0.486439 0.43798 0.75601
    outer loop
      vertex -43.9324 88.0109 -23
      vertex 4.29989 4.44763 -5.62331
      vertex 4.30641 4.45891 -5.63404
    endloop
  endfacet
  facet normal 0.486457 0.437987 0.755994
    outer loop
      vertex 4.29989 4.44763 -5.62331
      vertex -43.9324 88.0109 -23
      vertex -44.9815 89.1761 -23
    endloop
  endfacet
  facet normal 0.486418 0.437971 0.756028
    outer loop
      vertex 4.29989 4.44763 -5.62331
      vertex -44.9815 89.1761 -23
      vertex 4.1182 4.13292 -5.3241
    endloop
  endfacet
  facet normal -0.866005 0.500035 0
    outer loop
      vertex -56.8516 86.6531 -25
      vertex -56.0676 88.0109 -23
      vertex -56.0676 88.0109 -25
    endloop
  endfacet
  facet normal -0.866005 0.500035 0
    outer loop
      vertex -56.0676 88.0109 -23
      vertex -56.8516 86.6531 -25
      vertex -56.8516 86.6531 -23
    endloop
  endfacet
  facet normal -0.743161 0.669113 0
    outer loop
      vertex -56.0676 88.0109 -25
      vertex -55.0185 89.1761 -23
      vertex -55.0185 89.1761 -25
    endloop
  endfacet
  facet normal -0.743161 0.669113 0
    outer loop
      vertex -55.0185 89.1761 -23
      vertex -56.0676 88.0109 -25
      vertex -56.0676 88.0109 -23
    endloop
  endfacet
  facet normal -0.95106 -0.309005 0
    outer loop
      vertex -56.8516 80.552 -25
      vertex -57.3361 82.0432 -23
      vertex -57.3361 82.0432 -25
    endloop
  endfacet
  facet normal -0.95106 -0.309005 0
    outer loop
      vertex -57.3361 82.0432 -23
      vertex -56.8516 80.552 -25
      vertex -56.8516 80.552 -23
    endloop
  endfacet
  facet normal -0.587777 0.809023 0
    outer loop
      vertex -53.75 90.0977 -25
      vertex -55.0185 89.1761 -23
      vertex -53.75 90.0977 -23
    endloop
  endfacet
  facet normal -0.587777 0.809023 0
    outer loop
      vertex -55.0185 89.1761 -23
      vertex -53.75 90.0977 -25
      vertex -55.0185 89.1761 -25
    endloop
  endfacet
  facet normal -0.95106 0.309005 0
    outer loop
      vertex -57.3361 85.1619 -25
      vertex -56.8516 86.6531 -23
      vertex -56.8516 86.6531 -25
    endloop
  endfacet
  facet normal -0.95106 0.309005 0
    outer loop
      vertex -56.8516 86.6531 -23
      vertex -57.3361 85.1619 -25
      vertex -57.3361 85.1619 -23
    endloop
  endfacet
  facet normal 0 0.203497 0.979076
    outer loop
      vertex -49.216 91.0615 -23
      vertex -0.783963 4.45891 -5
      vertex 0.783963 4.45891 -5
    endloop
  endfacet
  facet normal 0 0.203497 0.979076
    outer loop
      vertex -0.783963 4.45891 -5
      vertex -49.216 91.0615 -23
      vertex -50.784 91.0615 -23
    endloop
  endfacet
  facet normal 0.587777 0.809023 -0
    outer loop
      vertex -44.9815 89.1761 -25
      vertex -46.25 90.0977 -23
      vertex -44.9815 89.1761 -23
    endloop
  endfacet
  facet normal 0.587777 0.809023 0
    outer loop
      vertex -46.25 90.0977 -23
      vertex -44.9815 89.1761 -25
      vertex -46.25 90.0977 -25
    endloop
  endfacet
  facet normal 0.743161 0.669113 0
    outer loop
      vertex -43.9324 88.0109 -23
      vertex -44.9815 89.1761 -25
      vertex -44.9815 89.1761 -23
    endloop
  endfacet
  facet normal 0.743161 0.669113 0
    outer loop
      vertex -44.9815 89.1761 -25
      vertex -43.9324 88.0109 -23
      vertex -43.9324 88.0109 -25
    endloop
  endfacet
  facet normal 0.0489478 0.230265 0.971896
    outer loop
      vertex -47.6824 90.7355 -23
      vertex -49.216 91.0615 -23
      vertex 0.783963 4.45891 -5
    endloop
  endfacet
  facet normal -0.176226 0.101753 0.979076
    outer loop
      vertex -56.8516 86.6531 -23
      vertex -6.06763 1.40839 -5
      vertex -56.0676 88.0109 -23
    endloop
  endfacet
  facet normal -0.176234 0.101748 0.979076
    outer loop
      vertex -6.06763 1.40839 -5
      vertex -56.8516 86.6531 -23
      vertex -6.85159 0.0505247 -5
    endloop
  endfacet
  facet normal -0.223888 0.0727427 0.971896
    outer loop
      vertex -57.3361 85.1619 -23
      vertex -6.85159 0.0505247 -5
      vertex -56.8516 86.6531 -23
    endloop
  endfacet
  facet normal -0.223885 0.0727452 0.971897
    outer loop
      vertex -6.85159 0.0505247 -5
      vertex -57.3361 85.1619 -23
      vertex -7.33611 -1.44066 -5
    endloop
  endfacet
  facet normal -0.138201 0.12443 0.982557
    outer loop
      vertex -55.0185 89.1761 -23
      vertex -56.0676 88.0109 -23
      vertex -6.06763 1.40839 -5
    endloop
  endfacet
  facet normal -0.622504 -0.202266 0.756027
    outer loop
      vertex -8.23639 -3 -5.3241
      vertex -56.8516 80.552 -23
      vertex -8.61281 -3 -5.63404
    endloop
  endfacet
  facet normal -0.622482 -0.202248 0.75605
    outer loop
      vertex -56.8516 80.552 -23
      vertex -8.23639 -3 -5.3241
      vertex -57.3361 82.0432 -23
    endloop
  endfacet
  facet normal -0.866025 -0.5 0
    outer loop
      vertex -8.61281 -3 -25
      vertex -56.8516 80.552 -23
      vertex -56.8516 80.552 -25
    endloop
  endfacet
  facet normal -0.866025 -0.5 0
    outer loop
      vertex -56.8516 80.552 -23
      vertex -8.61281 -3 -25
      vertex -8.61281 -3 -5.90212
    endloop
  endfacet
  facet normal 0.0489437 0.230263 0.971897
    outer loop
      vertex 2.31763 4.13292 -5
      vertex -47.6824 90.7355 -23
      vertex 0.783963 4.45891 -5
    endloop
  endfacet
  facet normal -0.0386661 0.181897 0.982557
    outer loop
      vertex -50.784 91.0615 -23
      vertex -52.3176 90.7355 -23
      vertex -0.783963 4.45891 -5
    endloop
  endfacet
  facet normal 0.119097 0.267497 0.95617
    outer loop
      vertex 3.75 3.49519 -5
      vertex -47.6824 90.7355 -23
      vertex 2.31763 4.13292 -5
    endloop
  endfacet
  facet normal 0.207926 0.978145 -0
    outer loop
      vertex -47.6824 90.7355 -25
      vertex -49.216 91.0615 -23
      vertex -47.6824 90.7355 -23
    endloop
  endfacet
  facet normal 0.207926 0.978145 0
    outer loop
      vertex -49.216 91.0615 -23
      vertex -47.6824 90.7355 -25
      vertex -49.216 91.0615 -25
    endloop
  endfacet
  facet normal 0.406766 0.913533 -0
    outer loop
      vertex -46.25 90.0977 -25
      vertex -47.6824 90.7355 -23
      vertex -46.25 90.0977 -23
    endloop
  endfacet
  facet normal 0.406766 0.913533 0
    outer loop
      vertex -47.6824 90.7355 -23
      vertex -46.25 90.0977 -25
      vertex -47.6824 90.7355 -25
    endloop
  endfacet
  facet normal 0.237868 0.327399 0.914456
    outer loop
      vertex 4.1182 4.13292 -5.3241
      vertex -44.9815 89.1761 -23
      vertex 3.75 3.49519 -5
    endloop
  endfacet
  facet normal -0.291208 0.0306073 0.95617
    outer loop
      vertex -57.5 83.6025 -23
      vertex -7.33611 -1.44066 -5
      vertex -57.3361 85.1619 -23
    endloop
  endfacet
  facet normal -0.291209 0.0306067 0.95617
    outer loop
      vertex -7.33611 -1.44066 -5
      vertex -57.5 83.6025 -23
      vertex -7.5 -3 -5
    endloop
  endfacet
  facet normal -0.866025 -0.5 -0
    outer loop
      vertex -8.61281 -3 -5.63404
      vertex -56.8516 80.552 -23
      vertex -8.61281 -3 -5.90212
    endloop
  endfacet
  facet normal -0.207926 0.978145 0
    outer loop
      vertex -50.784 91.0615 -25
      vertex -52.3176 90.7355 -23
      vertex -50.784 91.0615 -23
    endloop
  endfacet
  facet normal -0.207926 0.978145 0
    outer loop
      vertex -52.3176 90.7355 -23
      vertex -50.784 91.0615 -25
      vertex -52.3176 90.7355 -25
    endloop
  endfacet
  facet normal 0.119111 0.267504 0.956166
    outer loop
      vertex -46.25 90.0977 -23
      vertex -47.6824 90.7355 -23
      vertex 3.75 3.49519 -5
    endloop
  endfacet
  facet normal 0.237863 0.327397 0.914458
    outer loop
      vertex -44.9815 89.1761 -23
      vertex -46.25 90.0977 -23
      vertex 3.75 3.49519 -5
    endloop
  endfacet
  facet normal -0.104682 0.144085 0.984013
    outer loop
      vertex -55.0185 89.1761 -23
      vertex -3.75 3.49519 -5
      vertex -53.75 90.0977 -23
    endloop
  endfacet
  facet normal -0.104683 0.144084 0.984013
    outer loop
      vertex -3.75 3.49519 -5
      vertex -55.0185 89.1761 -23
      vertex -5.01848 2.57359 -5
    endloop
  endfacet
  facet normal -0.0724387 0.162701 0.984013
    outer loop
      vertex -52.3176 90.7355 -23
      vertex -3.75 3.49519 -5
      vertex -2.31763 4.13292 -5
    endloop
  endfacet
  facet normal -0.0724439 0.162698 0.984013
    outer loop
      vertex -3.75 3.49519 -5
      vertex -52.3176 90.7355 -23
      vertex -53.75 90.0977 -23
    endloop
  endfacet
  facet normal -0.138197 0.124433 0.982557
    outer loop
      vertex -5.01848 2.57359 -5
      vertex -55.0185 89.1761 -23
      vertex -6.06763 1.40839 -5
    endloop
  endfacet
  facet normal 0 1 -0
    outer loop
      vertex -49.216 91.0615 -25
      vertex -50.784 91.0615 -23
      vertex -49.216 91.0615 -23
    endloop
  endfacet
  facet normal 0 1 0
    outer loop
      vertex -50.784 91.0615 -23
      vertex -49.216 91.0615 -25
      vertex -50.784 91.0615 -25
    endloop
  endfacet
  facet normal 0.743161 -0.669113 0
    outer loop
      vertex -44.9815 -95.1761 -23
      vertex -43.9324 -94.0109 -25
      vertex -43.9324 -94.0109 -23
    endloop
  endfacet
  facet normal 0.743161 -0.669113 0
    outer loop
      vertex -43.9324 -94.0109 -25
      vertex -44.9815 -95.1761 -23
      vertex -44.9815 -95.1761 -25
    endloop
  endfacet
  facet normal 0.119111 -0.267504 0.956166
    outer loop
      vertex 3.75 -9.49519 -5
      vertex -47.6824 -96.7355 -23
      vertex -46.25 -96.0977 -23
    endloop
  endfacet
  facet normal -0.994522 -0.104529 0
    outer loop
      vertex -57.3361 -91.1619 -25
      vertex -57.5 -89.6025 -23
      vertex -57.5 -89.6025 -25
    endloop
  endfacet
  facet normal -0.994522 -0.104529 0
    outer loop
      vertex -57.5 -89.6025 -23
      vertex -57.3361 -91.1619 -25
      vertex -57.3361 -91.1619 -23
    endloop
  endfacet
  facet normal -0.223884 -0.0727454 0.971897
    outer loop
      vertex -57.3361 -91.1619 -23
      vertex -6.85159 -6.05052 -5
      vertex -7.33611 -4.55934 -5
    endloop
  endfacet
  facet normal -0.223888 -0.0727427 0.971896
    outer loop
      vertex -6.85159 -6.05052 -5
      vertex -57.3361 -91.1619 -23
      vertex -56.8516 -92.6531 -23
    endloop
  endfacet
  facet normal 0.486008 -0.437809 0.756386
    outer loop
      vertex 4.29989 -10.4476 -5.62331
      vertex -43.9324 -94.0109 -23
      vertex 4.30641 -10.4589 -5.63404
    endloop
  endfacet
  facet normal 0.486457 -0.437987 0.755994
    outer loop
      vertex -43.9324 -94.0109 -23
      vertex 4.29989 -10.4476 -5.62331
      vertex -44.9815 -95.1761 -23
    endloop
  endfacet
  facet normal -0.0724369 -0.162702 0.984013
    outer loop
      vertex -3.75 -9.49519 -5
      vertex -52.3176 -96.7355 -23
      vertex -2.31763 -10.1329 -5
    endloop
  endfacet
  facet normal -0.0724439 -0.162698 0.984013
    outer loop
      vertex -52.3176 -96.7355 -23
      vertex -3.75 -9.49519 -5
      vertex -53.75 -96.0977 -23
    endloop
  endfacet
  facet normal -0.104683 -0.144084 0.984013
    outer loop
      vertex -55.0185 -95.1761 -23
      vertex -3.75 -9.49519 -5
      vertex -5.01848 -8.57359 -5
    endloop
  endfacet
  facet normal -0.104682 -0.144085 0.984013
    outer loop
      vertex -3.75 -9.49519 -5
      vertex -55.0185 -95.1761 -23
      vertex -53.75 -96.0977 -23
    endloop
  endfacet
  facet normal -0.406766 -0.913533 0
    outer loop
      vertex -53.75 -96.0977 -25
      vertex -52.3176 -96.7355 -23
      vertex -53.75 -96.0977 -23
    endloop
  endfacet
  facet normal -0.406766 -0.913533 -0
    outer loop
      vertex -52.3176 -96.7355 -23
      vertex -53.75 -96.0977 -25
      vertex -52.3176 -96.7355 -25
    endloop
  endfacet
  facet normal 0.866025 -0.5 0
    outer loop
      vertex -43.9324 -94.0109 -23
      vertex 4.30641 -10.4589 -25
      vertex 4.30641 -10.4589 -5.63404
    endloop
  endfacet
  facet normal 0.866025 -0.5 0
    outer loop
      vertex 4.30641 -10.4589 -25
      vertex -43.9324 -94.0109 -23
      vertex -43.9324 -94.0109 -25
    endloop
  endfacet
  facet normal -0.866025 0.5 0
    outer loop
      vertex -8.61281 -3 -5.90212
      vertex -56.8516 -86.552 -23
      vertex -8.61281 -3 -5.63404
    endloop
  endfacet
  facet normal -0.994521 0.104535 0
    outer loop
      vertex -57.5 -89.6025 -25
      vertex -57.3361 -88.0432 -23
      vertex -57.3361 -88.0432 -25
    endloop
  endfacet
  facet normal -0.994521 0.104535 0
    outer loop
      vertex -57.3361 -88.0432 -23
      vertex -57.5 -89.6025 -25
      vertex -57.5 -89.6025 -23
    endloop
  endfacet
  facet normal -0.291209 -0.0306067 0.95617
    outer loop
      vertex -57.5 -89.6025 -23
      vertex -7.33611 -4.55934 -5
      vertex -7.5 -3 -5
    endloop
  endfacet
  facet normal -0.291208 -0.0306073 0.95617
    outer loop
      vertex -7.33611 -4.55934 -5
      vertex -57.5 -89.6025 -23
      vertex -57.3361 -91.1619 -23
    endloop
  endfacet
  facet normal -0.207926 -0.978145 0
    outer loop
      vertex -52.3176 -96.7355 -25
      vertex -50.784 -97.0615 -23
      vertex -52.3176 -96.7355 -23
    endloop
  endfacet
  facet normal -0.207926 -0.978145 -0
    outer loop
      vertex -50.784 -97.0615 -23
      vertex -52.3176 -96.7355 -25
      vertex -50.784 -97.0615 -25
    endloop
  endfacet
  facet normal 0.0489453 -0.230263 0.971897
    outer loop
      vertex 0.783963 -10.4589 -5
      vertex -47.6824 -96.7355 -23
      vertex 2.31763 -10.1329 -5
    endloop
  endfacet
  facet normal 0.0489478 -0.230265 0.971896
    outer loop
      vertex 0.783963 -10.4589 -5
      vertex -49.216 -97.0615 -23
      vertex -47.6824 -96.7355 -23
    endloop
  endfacet
  facet normal -0.866025 0.5 0
    outer loop
      vertex -56.8516 -86.552 -23
      vertex -8.61281 -3 -25
      vertex -56.8516 -86.552 -25
    endloop
  endfacet
  facet normal -0.866025 0.5 0
    outer loop
      vertex -8.61281 -3 -25
      vertex -56.8516 -86.552 -23
      vertex -8.61281 -3 -5.90212
    endloop
  endfacet
  facet normal 0.207926 -0.978145 0
    outer loop
      vertex -49.216 -97.0615 -25
      vertex -47.6824 -96.7355 -23
      vertex -49.216 -97.0615 -23
    endloop
  endfacet
  facet normal 0.207926 -0.978145 0
    outer loop
      vertex -47.6824 -96.7355 -23
      vertex -49.216 -97.0615 -25
      vertex -47.6824 -96.7355 -25
    endloop
  endfacet
  facet normal -0.743161 -0.669113 0
    outer loop
      vertex -55.0185 -95.1761 -25
      vertex -56.0676 -94.0109 -23
      vertex -56.0676 -94.0109 -25
    endloop
  endfacet
  facet normal -0.743161 -0.669113 0
    outer loop
      vertex -56.0676 -94.0109 -23
      vertex -55.0185 -95.1761 -25
      vertex -55.0185 -95.1761 -23
    endloop
  endfacet
  facet normal -0.138201 -0.12443 0.982557
    outer loop
      vertex -6.06763 -7.40839 -5
      vertex -56.0676 -94.0109 -23
      vertex -55.0185 -95.1761 -23
    endloop
  endfacet
  facet normal -0.866005 -0.500035 0
    outer loop
      vertex -56.0676 -94.0109 -25
      vertex -56.8516 -92.6531 -23
      vertex -56.8516 -92.6531 -25
    endloop
  endfacet
  facet normal -0.866005 -0.500035 0
    outer loop
      vertex -56.8516 -92.6531 -23
      vertex -56.0676 -94.0109 -25
      vertex -56.0676 -94.0109 -23
    endloop
  endfacet
  facet normal 0 -1 0
    outer loop
      vertex -50.784 -97.0615 -25
      vertex -49.216 -97.0615 -23
      vertex -50.784 -97.0615 -23
    endloop
  endfacet
  facet normal 0 -1 -0
    outer loop
      vertex -49.216 -97.0615 -23
      vertex -50.784 -97.0615 -25
      vertex -49.216 -97.0615 -25
    endloop
  endfacet
  facet normal -0.0386646 -0.181898 0.982557
    outer loop
      vertex -2.31763 -10.1329 -5
      vertex -52.3176 -96.7355 -23
      vertex -0.783963 -10.4589 -5
    endloop
  endfacet
  facet normal -0.138197 -0.124433 0.982557
    outer loop
      vertex -6.06763 -7.40839 -5
      vertex -55.0185 -95.1761 -23
      vertex -5.01848 -8.57359 -5
    endloop
  endfacet
  facet normal 0.237876 -0.327403 0.914452
    outer loop
      vertex 3.75 -9.49519 -5
      vertex -44.9815 -95.1761 -23
      vertex 4.1182 -10.1329 -5.3241
    endloop
  endfacet
  facet normal 0.486426 -0.437974 0.756021
    outer loop
      vertex 4.29989 -10.4476 -5.62331
      vertex 4.1182 -10.1329 -5.3241
      vertex -44.9815 -95.1761 -23
    endloop
  endfacet
  facet normal 0.237863 -0.327397 0.914458
    outer loop
      vertex 3.75 -9.49519 -5
      vertex -46.25 -96.0977 -23
      vertex -44.9815 -95.1761 -23
    endloop
  endfacet
  facet normal -0.95106 0.309005 0
    outer loop
      vertex -57.3361 -88.0432 -25
      vertex -56.8516 -86.552 -23
      vertex -56.8516 -86.552 -25
    endloop
  endfacet
  facet normal -0.95106 0.309005 0
    outer loop
      vertex -56.8516 -86.552 -23
      vertex -57.3361 -88.0432 -25
      vertex -57.3361 -88.0432 -23
    endloop
  endfacet
  facet normal -0.40247 0.0423002 0.914455
    outer loop
      vertex -57.3361 -88.0432 -23
      vertex -7.5 -3 -5
      vertex -8.23639 -3 -5.3241
    endloop
  endfacet
  facet normal -0.402477 0.0423049 0.914452
    outer loop
      vertex -7.5 -3 -5
      vertex -57.3361 -88.0432 -23
      vertex -57.5 -89.6025 -23
    endloop
  endfacet
  facet normal -0.622504 0.202266 0.756027
    outer loop
      vertex -56.8516 -86.552 -23
      vertex -8.23639 -3 -5.3241
      vertex -8.61281 -3 -5.63404
    endloop
  endfacet
  facet normal -0.622482 0.202248 0.75605
    outer loop
      vertex -8.23639 -3 -5.3241
      vertex -56.8516 -86.552 -23
      vertex -57.3361 -88.0432 -23
    endloop
  endfacet
  facet normal -0.587777 -0.809023 0
    outer loop
      vertex -55.0185 -95.1761 -25
      vertex -53.75 -96.0977 -23
      vertex -55.0185 -95.1761 -23
    endloop
  endfacet
  facet normal -0.587777 -0.809023 -0
    outer loop
      vertex -53.75 -96.0977 -23
      vertex -55.0185 -95.1761 -25
      vertex -53.75 -96.0977 -25
    endloop
  endfacet
  facet normal -0.176234 -0.101748 0.979075
    outer loop
      vertex -56.8516 -92.6531 -23
      vertex -6.06763 -7.40839 -5
      vertex -6.85159 -6.05052 -5
    endloop
  endfacet
  facet normal -0.176226 -0.101753 0.979076
    outer loop
      vertex -6.06763 -7.40839 -5
      vertex -56.8516 -92.6531 -23
      vertex -56.0676 -94.0109 -23
    endloop
  endfacet
  facet normal -0.95106 -0.309005 0
    outer loop
      vertex -56.8516 -92.6531 -25
      vertex -57.3361 -91.1619 -23
      vertex -57.3361 -91.1619 -25
    endloop
  endfacet
  facet normal -0.95106 -0.309005 0
    outer loop
      vertex -57.3361 -91.1619 -23
      vertex -56.8516 -92.6531 -25
      vertex -56.8516 -92.6531 -23
    endloop
  endfacet
  facet normal -0.0386661 -0.181897 0.982557
    outer loop
      vertex -0.783963 -10.4589 -5
      vertex -52.3176 -96.7355 -23
      vertex -50.784 -97.0615 -23
    endloop
  endfacet
  facet normal 0 -0.203497 0.979076
    outer loop
      vertex -0.783963 -10.4589 -5
      vertex -49.216 -97.0615 -23
      vertex 0.783963 -10.4589 -5
    endloop
  endfacet
  facet normal 0 -0.203497 0.979076
    outer loop
      vertex -49.216 -97.0615 -23
      vertex -0.783963 -10.4589 -5
      vertex -50.784 -97.0615 -23
    endloop
  endfacet
  facet normal 0.587777 -0.809023 0
    outer loop
      vertex -46.25 -96.0977 -25
      vertex -44.9815 -95.1761 -23
      vertex -46.25 -96.0977 -23
    endloop
  endfacet
  facet normal 0.587777 -0.809023 0
    outer loop
      vertex -44.9815 -95.1761 -23
      vertex -46.25 -96.0977 -25
      vertex -44.9815 -95.1761 -25
    endloop
  endfacet
  facet normal 0.406766 -0.913533 0
    outer loop
      vertex -47.6824 -96.7355 -25
      vertex -46.25 -96.0977 -23
      vertex -47.6824 -96.7355 -23
    endloop
  endfacet
  facet normal 0.406766 -0.913533 0
    outer loop
      vertex -46.25 -96.0977 -23
      vertex -47.6824 -96.7355 -25
      vertex -46.25 -96.0977 -25
    endloop
  endfacet
  facet normal 0.119092 -0.267494 0.956172
    outer loop
      vertex 2.31763 -10.1329 -5
      vertex -47.6824 -96.7355 -23
      vertex 3.75 -9.49519 -5
    endloop
  endfacet
  facet normal -0.207884 0.978002 0.017229
    outer loop
      vertex 0.287634 -5.73666 -25
      vertex 0.32664 -6.0807 -5
      vertex 0.847194 -5.61772 -25
    endloop
  endfacet
  facet normal -0.20729 0.978128 0.01723
    outer loop
      vertex 0.32664 -6.0807 -5
      vertex 0.287634 -5.73666 -25
      vertex 0.323856 -6.08129 -5
    endloop
  endfacet
  facet normal -0.994544 -0.102884 0.0172325
    outer loop
      vertex 3.09827 -3 -5
      vertex 2.7514 -2.99681 -25
      vertex 2.75173 -3 -25
    endloop
  endfacet
  facet normal -0.994374 -0.104518 0.0172292
    outer loop
      vertex 2.7514 -2.99681 -25
      vertex 3.09827 -3 -5
      vertex 3.03086 -2.35867 -5
    endloop
  endfacet
  facet normal -0.994319 -0.105034 0.0172301
    outer loop
      vertex 2.6916 -2.42788 -25
      vertex 3.03086 -2.35867 -5
      vertex 3.03056 -2.35583 -5
    endloop
  endfacet
  facet normal -0.994374 -0.104518 0.0172292
    outer loop
      vertex 3.03086 -2.35867 -5
      vertex 2.6916 -2.42788 -25
      vertex 2.7514 -2.99681 -25
    endloop
  endfacet
  facet normal -0.994374 0.104518 0.0172292
    outer loop
      vertex 2.6916 -3.57212 -25
      vertex 3.03086 -3.64133 -5
      vertex 2.7514 -3.00319 -25
    endloop
  endfacet
  facet normal -0.994319 0.105034 0.0172301
    outer loop
      vertex 3.03086 -3.64133 -5
      vertex 2.6916 -3.57212 -25
      vertex 3.03056 -3.64417 -5
    endloop
  endfacet
  facet normal 0.950634 0.309836 0.0172275
    outer loop
      vertex -3.02968 -3.64687 -5
      vertex -2.6916 -3.57212 -25
      vertex -3.03056 -3.64417 -5
    endloop
  endfacet
  facet normal 0.950913 0.308978 0.017229
    outer loop
      vertex -2.6916 -3.57212 -25
      vertex -3.02968 -3.64687 -5
      vertex -2.51482 -4.11618 -25
    endloop
  endfacet
  facet normal 0.207881 -0.978002 0.0172292
    outer loop
      vertex -0.287634 -0.263342 -25
      vertex -0.32664 0.0807025 -5
      vertex -0.847194 -0.38228 -25
    endloop
  endfacet
  facet normal 0.207862 -0.978007 0.0172293
    outer loop
      vertex -0.32664 0.0807025 -5
      vertex -0.287634 -0.263342 -25
      vertex -0.323856 0.0812942 -5
    endloop
  endfacet
  facet normal -0.741943 0.670242 0.0172263
    outer loop
      vertex 2.22405 -4.61981 -25
      vertex 2.50655 -4.82112 -5
      vertex 2.2262 -4.61743 -25
    endloop
  endfacet
  facet normal -0.743035 0.669031 0.0172295
    outer loop
      vertex 2.50655 -4.82112 -5
      vertex 2.22405 -4.61981 -25
      vertex 2.07505 -5.30035 -5
    endloop
  endfacet
  facet normal 0.866575 0.498748 0.017232
    outer loop
      vertex -2.83041 -4.26018 -5
      vertex -2.51223 -4.12201 -25
      vertex -2.51383 -4.11923 -25
    endloop
  endfacet
  facet normal 0.865892 0.499934 0.0172293
    outer loop
      vertex -2.51223 -4.12201 -25
      vertex -2.83041 -4.26018 -5
      vertex -2.50797 -4.81865 -5
    endloop
  endfacet
  facet normal -0.951007 0.308688 0.017229
    outer loop
      vertex 2.83041 -4.26018 -5
      vertex 2.51482 -4.11618 -25
      vertex 2.51383 -4.11923 -25
    endloop
  endfacet
  facet normal -0.950918 0.308962 0.0172295
    outer loop
      vertex 2.51482 -4.11618 -25
      vertex 2.83041 -4.26018 -5
      vertex 3.02968 -3.64687 -5
    endloop
  endfacet
  facet normal -0.994544 0.102884 0.0172325
    outer loop
      vertex 2.7514 -3.00319 -25
      vertex 3.09827 -3 -5
      vertex 2.75173 -3 -25
    endloop
  endfacet
  facet normal -0.994374 0.104518 0.0172292
    outer loop
      vertex 3.09827 -3 -5
      vertex 2.7514 -3.00319 -25
      vertex 3.03086 -3.64133 -5
    endloop
  endfacet
  facet normal -0.865898 0.499925 0.0172289
    outer loop
      vertex 2.2262 -4.61743 -25
      vertex 2.50797 -4.81865 -5
      vertex 2.51223 -4.12201 -25
    endloop
  endfacet
  facet normal -0.866816 0.498331 0.0172258
    outer loop
      vertex 2.50797 -4.81865 -5
      vertex 2.2262 -4.61743 -25
      vertex 2.50655 -4.82112 -5
    endloop
  endfacet
  facet normal -0.866575 0.498748 0.017232
    outer loop
      vertex 2.51223 -4.12201 -25
      vertex 2.83041 -4.26018 -5
      vertex 2.51383 -4.11923 -25
    endloop
  endfacet
  facet normal -0.865892 0.499934 0.0172293
    outer loop
      vertex 2.83041 -4.26018 -5
      vertex 2.51223 -4.12201 -25
      vertex 2.50797 -4.81865 -5
    endloop
  endfacet
  facet normal -0.406676 0.91341 0.0172293
    outer loop
      vertex 0.853263 -5.61575 -25
      vertex 0.957417 -5.94663 -5
      vertex 1.54653 -5.68434 -5
    endloop
  endfacet
  facet normal -0.405384 0.913984 0.0172321
    outer loop
      vertex 0.957417 -5.94663 -5
      vertex 0.853263 -5.61575 -25
      vertex 0.850332 -5.61705 -25
    endloop
  endfacet
  facet normal -0.208774 0.977812 0.0172312
    outer loop
      vertex 0.847194 -5.61772 -25
      vertex 0.957417 -5.94663 -5
      vertex 0.850332 -5.61705 -25
    endloop
  endfacet
  facet normal -0.207872 0.978004 0.0172294
    outer loop
      vertex 0.957417 -5.94663 -5
      vertex 0.847194 -5.61772 -25
      vertex 0.32664 -6.0807 -5
    endloop
  endfacet
  facet normal 0.587693 0.8089 0.0172295
    outer loop
      vertex -1.83867 -5.04682 -25
      vertex -2.07315 -5.30246 -5
      vertex -1.55144 -5.6815 -5
    endloop
  endfacet
  facet normal 0.585859 0.81023 0.017225
    outer loop
      vertex -2.07315 -5.30246 -5
      vertex -1.83867 -5.04682 -25
      vertex -1.84127 -5.04494 -25
    endloop
  endfacet
  facet normal -0.587699 -0.808897 0.0172295
    outer loop
      vertex 1.83867 -0.953179 -25
      vertex 2.07315 -0.69754 -5
      vertex 1.55144 -0.318495 -5
    endloop
  endfacet
  facet normal -0.587084 -0.809342 0.017228
    outer loop
      vertex 2.07315 -0.69754 -5
      vertex 1.83867 -0.953179 -25
      vertex 1.84127 -0.955065 -25
    endloop
  endfacet
  facet normal -0.950634 0.309836 0.0172275
    outer loop
      vertex 2.6916 -3.57212 -25
      vertex 3.02968 -3.64687 -5
      vertex 3.03056 -3.64417 -5
    endloop
  endfacet
  facet normal -0.950913 0.308978 0.017229
    outer loop
      vertex 3.02968 -3.64687 -5
      vertex 2.6916 -3.57212 -25
      vertex 2.51482 -4.11618 -25
    endloop
  endfacet
  facet normal -0.743042 0.669023 0.0172292
    outer loop
      vertex 1.84127 -5.04494 -25
      vertex 2.07505 -5.30035 -5
      vertex 2.22405 -4.61981 -25
    endloop
  endfacet
  facet normal -0.743009 0.66906 0.0172293
    outer loop
      vertex 2.07505 -5.30035 -5
      vertex 1.84127 -5.04494 -25
      vertex 2.07315 -5.30246 -5
    endloop
  endfacet
  facet normal 0.950918 0.308962 0.0172295
    outer loop
      vertex -2.83041 -4.26018 -5
      vertex -2.51482 -4.11618 -25
      vertex -3.02968 -3.64687 -5
    endloop
  endfacet
  facet normal 0.951007 0.308688 0.017229
    outer loop
      vertex -2.51482 -4.11618 -25
      vertex -2.83041 -4.26018 -5
      vertex -2.51383 -4.11923 -25
    endloop
  endfacet
  facet normal 0.405384 0.913984 0.0172321
    outer loop
      vertex -0.853263 -5.61575 -25
      vertex -0.957417 -5.94663 -5
      vertex -0.850332 -5.61705 -25
    endloop
  endfacet
  facet normal 0.406676 0.91341 0.0172293
    outer loop
      vertex -0.957417 -5.94663 -5
      vertex -0.853263 -5.61575 -25
      vertex -1.54653 -5.68434 -5
    endloop
  endfacet
  facet normal 0.587699 -0.808897 0.0172293
    outer loop
      vertex -1.84127 -0.955065 -25
      vertex -1.55144 -0.318495 -5
      vertex -2.07315 -0.69754 -5
    endloop
  endfacet
  facet normal 0.587084 -0.809342 0.0172524
    outer loop
      vertex -1.55144 -0.318495 -5
      vertex -1.84127 -0.955065 -25
      vertex -1.83867 -0.953179 -25
    endloop
  endfacet
  facet normal 0.865892 -0.499934 0.0172293
    outer loop
      vertex -2.83041 -1.73982 -5
      vertex -2.51223 -1.87799 -25
      vertex -2.50797 -1.18135 -5
    endloop
  endfacet
  facet normal 0.866575 -0.498748 0.017232
    outer loop
      vertex -2.51223 -1.87799 -25
      vertex -2.83041 -1.73982 -5
      vertex -2.51383 -1.88077 -25
    endloop
  endfacet
  facet normal -0.587693 0.8089 0.0172291
    outer loop
      vertex 1.84127 -5.04494 -25
      vertex 1.55144 -5.6815 -5
      vertex 2.07315 -5.30246 -5
    endloop
  endfacet
  facet normal -0.585858 0.810229 0.017298
    outer loop
      vertex 1.55144 -5.6815 -5
      vertex 1.84127 -5.04494 -25
      vertex 1.83867 -5.04682 -25
    endloop
  endfacet
  facet normal 0.588084 0.808616 0.0172283
    outer loop
      vertex -1.37587 -5.38307 -25
      vertex -1.55144 -5.6815 -5
      vertex -1.54913 -5.68318 -5
    endloop
  endfacet
  facet normal 0.587705 0.808892 0.017229
    outer loop
      vertex -1.55144 -5.6815 -5
      vertex -1.37587 -5.38307 -25
      vertex -1.83867 -5.04682 -25
    endloop
  endfacet
  facet normal 0.741943 0.670242 0.0172263
    outer loop
      vertex -2.50655 -4.82112 -5
      vertex -2.22405 -4.61981 -25
      vertex -2.2262 -4.61743 -25
    endloop
  endfacet
  facet normal 0.743035 0.669031 0.0172295
    outer loop
      vertex -2.22405 -4.61981 -25
      vertex -2.50655 -4.82112 -5
      vertex -2.07505 -5.30035 -5
    endloop
  endfacet
  facet normal 0.865898 0.499925 0.0172289
    outer loop
      vertex -2.50797 -4.81865 -5
      vertex -2.2262 -4.61743 -25
      vertex -2.51223 -4.12201 -25
    endloop
  endfacet
  facet normal 0.866816 0.498331 0.0172258
    outer loop
      vertex -2.2262 -4.61743 -25
      vertex -2.50797 -4.81865 -5
      vertex -2.50655 -4.82112 -5
    endloop
  endfacet
  facet normal 0.406677 0.91341 0.0172293
    outer loop
      vertex -1.37587 -5.38307 -25
      vertex -1.54653 -5.68434 -5
      vertex -0.853263 -5.61575 -25
    endloop
  endfacet
  facet normal 0.407381 0.913096 0.0172306
    outer loop
      vertex -1.54653 -5.68434 -5
      vertex -1.37587 -5.38307 -25
      vertex -1.54913 -5.68318 -5
    endloop
  endfacet
  facet normal 0.207872 0.978004 0.0172294
    outer loop
      vertex -0.847194 -5.61772 -25
      vertex -0.957417 -5.94663 -5
      vertex -0.32664 -6.0807 -5
    endloop
  endfacet
  facet normal 0.208774 0.977812 0.0172312
    outer loop
      vertex -0.957417 -5.94663 -5
      vertex -0.847194 -5.61772 -25
      vertex -0.850332 -5.61705 -25
    endloop
  endfacet
  facet normal 0.406502 -0.913487 0.0172288
    outer loop
      vertex -1.37587 -0.616931 -25
      vertex -1.54653 -0.315665 -5
      vertex -1.54913 -0.316822 -5
    endloop
  endfacet
  facet normal 0.406675 -0.91341 0.0172291
    outer loop
      vertex -1.54653 -0.315665 -5
      vertex -1.37587 -0.616931 -25
      vertex -0.853263 -0.384252 -25
    endloop
  endfacet
  facet normal -0.406685 -0.913406 0.0172292
    outer loop
      vertex 0.853263 -0.384252 -25
      vertex 0.957417 -0.0533732 -5
      vertex 0.850332 -0.382947 -25
    endloop
  endfacet
  facet normal -0.406679 -0.913409 0.0172292
    outer loop
      vertex 0.957417 -0.0533732 -5
      vertex 0.853263 -0.384252 -25
      vertex 1.54653 -0.315665 -5
    endloop
  endfacet
  facet normal -0.865892 -0.499934 0.0172293
    outer loop
      vertex 2.51223 -1.87799 -25
      vertex 2.83041 -1.73982 -5
      vertex 2.50797 -1.18135 -5
    endloop
  endfacet
  facet normal -0.866575 -0.498748 0.017232
    outer loop
      vertex 2.83041 -1.73982 -5
      vertex 2.51223 -1.87799 -25
      vertex 2.51383 -1.88077 -25
    endloop
  endfacet
  facet normal -0.588085 0.808616 0.0172149
    outer loop
      vertex 1.83867 -5.04682 -25
      vertex 1.54913 -5.68318 -5
      vertex 1.55144 -5.6815 -5
    endloop
  endfacet
  facet normal -0.587705 0.808892 0.0172291
    outer loop
      vertex 1.54913 -5.68318 -5
      vertex 1.83867 -5.04682 -25
      vertex 1.37587 -5.38307 -25
    endloop
  endfacet
  facet normal -0.407381 0.913096 0.0172306
    outer loop
      vertex 1.37587 -5.38307 -25
      vertex 1.54653 -5.68434 -5
      vertex 1.54913 -5.68318 -5
    endloop
  endfacet
  facet normal -0.406677 0.91341 0.0172293
    outer loop
      vertex 1.54653 -5.68434 -5
      vertex 1.37587 -5.38307 -25
      vertex 0.853263 -5.61575 -25
    endloop
  endfacet
  facet normal 0.743042 0.669023 0.0172292
    outer loop
      vertex -2.07505 -5.30035 -5
      vertex -1.84127 -5.04494 -25
      vertex -2.22405 -4.61981 -25
    endloop
  endfacet
  facet normal 0.743009 0.66906 0.0172293
    outer loop
      vertex -1.84127 -5.04494 -25
      vertex -2.07505 -5.30035 -5
      vertex -2.07315 -5.30246 -5
    endloop
  endfacet
  facet normal 0 0.999852 0.0172289
    outer loop
      vertex 0.287634 -5.73666 -25
      vertex -0.323856 -6.08129 -5
      vertex 0.323856 -6.08129 -5
    endloop
  endfacet
  facet normal 0 0.999852 0.0172289
    outer loop
      vertex -0.323856 -6.08129 -5
      vertex 0.287634 -5.73666 -25
      vertex -0.287634 -5.73666 -25
    endloop
  endfacet
  facet normal 0.406679 -0.913409 0.0172292
    outer loop
      vertex -0.853263 -0.384252 -25
      vertex -0.957417 -0.0533732 -5
      vertex -1.54653 -0.315665 -5
    endloop
  endfacet
  facet normal 0.406685 -0.913406 0.0172292
    outer loop
      vertex -0.957417 -0.0533732 -5
      vertex -0.853263 -0.384252 -25
      vertex -0.850332 -0.382947 -25
    endloop
  endfacet
  facet normal 0.20788 -0.978003 0.0172292
    outer loop
      vertex -0.847194 -0.38228 -25
      vertex -0.957417 -0.0533732 -5
      vertex -0.850332 -0.382947 -25
    endloop
  endfacet
  facet normal 0.207881 -0.978002 0.0172292
    outer loop
      vertex -0.957417 -0.0533732 -5
      vertex -0.847194 -0.38228 -25
      vertex -0.32664 0.0807025 -5
    endloop
  endfacet
  facet normal 0.951007 -0.308688 0.017229
    outer loop
      vertex -2.83041 -1.73982 -5
      vertex -2.51482 -1.88382 -25
      vertex -2.51383 -1.88077 -25
    endloop
  endfacet
  facet normal 0.950918 -0.308962 0.0172295
    outer loop
      vertex -2.51482 -1.88382 -25
      vertex -2.83041 -1.73982 -5
      vertex -3.02968 -2.35313 -5
    endloop
  endfacet
  facet normal 0.994374 0.104518 0.0172292
    outer loop
      vertex -3.03086 -3.64133 -5
      vertex -2.6916 -3.57212 -25
      vertex -2.7514 -3.00319 -25
    endloop
  endfacet
  facet normal 0.994319 0.105034 0.0172301
    outer loop
      vertex -2.6916 -3.57212 -25
      vertex -3.03086 -3.64133 -5
      vertex -3.03056 -3.64417 -5
    endloop
  endfacet
  facet normal 0.866816 -0.498331 0.0172258
    outer loop
      vertex -2.50797 -1.18135 -5
      vertex -2.2262 -1.38257 -25
      vertex -2.50655 -1.17888 -5
    endloop
  endfacet
  facet normal 0.865898 -0.499925 0.0172289
    outer loop
      vertex -2.2262 -1.38257 -25
      vertex -2.50797 -1.18135 -5
      vertex -2.51223 -1.87799 -25
    endloop
  endfacet
  facet normal 0.743796 -0.668185 0.0172273
    outer loop
      vertex -2.07505 -0.699655 -5
      vertex -1.84127 -0.955065 -25
      vertex -2.07315 -0.69754 -5
    endloop
  endfacet
  facet normal 0.743038 -0.669027 0.0172292
    outer loop
      vertex -1.84127 -0.955065 -25
      vertex -2.07505 -0.699655 -5
      vertex -2.22405 -1.38019 -25
    endloop
  endfacet
  facet normal 0.743032 -0.669035 0.0172295
    outer loop
      vertex -2.50655 -1.17888 -5
      vertex -2.22405 -1.38019 -25
      vertex -2.07505 -0.699655 -5
    endloop
  endfacet
  facet normal 0.741943 -0.670242 0.0172263
    outer loop
      vertex -2.22405 -1.38019 -25
      vertex -2.50655 -1.17888 -5
      vertex -2.2262 -1.38257 -25
    endloop
  endfacet
  facet normal -0.207881 -0.978002 0.0172292
    outer loop
      vertex 0.847194 -0.38228 -25
      vertex 0.957417 -0.0533732 -5
      vertex 0.32664 0.0807025 -5
    endloop
  endfacet
  facet normal -0.20788 -0.978003 0.0172292
    outer loop
      vertex 0.957417 -0.0533732 -5
      vertex 0.847194 -0.38228 -25
      vertex 0.850332 -0.382947 -25
    endloop
  endfacet
  facet normal -0.951007 -0.308688 0.017229
    outer loop
      vertex 2.51482 -1.88382 -25
      vertex 2.83041 -1.73982 -5
      vertex 2.51383 -1.88077 -25
    endloop
  endfacet
  facet normal -0.950918 -0.308962 0.0172295
    outer loop
      vertex 2.83041 -1.73982 -5
      vertex 2.51482 -1.88382 -25
      vertex 3.02968 -2.35313 -5
    endloop
  endfacet
  facet normal -0.950913 -0.308978 0.017229
    outer loop
      vertex 2.6916 -2.42788 -25
      vertex 3.02968 -2.35313 -5
      vertex 2.51482 -1.88382 -25
    endloop
  endfacet
  facet normal -0.950634 -0.309836 0.0172275
    outer loop
      vertex 3.02968 -2.35313 -5
      vertex 2.6916 -2.42788 -25
      vertex 3.03056 -2.35583 -5
    endloop
  endfacet
  facet normal 0.20729 0.978128 0.01723
    outer loop
      vertex -0.287634 -5.73666 -25
      vertex -0.32664 -6.0807 -5
      vertex -0.323856 -6.08129 -5
    endloop
  endfacet
  facet normal 0.207884 0.978002 0.017229
    outer loop
      vertex -0.32664 -6.0807 -5
      vertex -0.287634 -5.73666 -25
      vertex -0.847194 -5.61772 -25
    endloop
  endfacet
  facet normal 0.586478 -0.809781 0.0172751
    outer loop
      vertex -1.83867 -0.953179 -25
      vertex -1.54913 -0.316822 -5
      vertex -1.55144 -0.318495 -5
    endloop
  endfacet
  facet normal 0.587703 -0.808893 0.0172291
    outer loop
      vertex -1.54913 -0.316822 -5
      vertex -1.83867 -0.953179 -25
      vertex -1.37587 -0.616931 -25
    endloop
  endfacet
  facet normal 0.994374 -0.104518 0.0172292
    outer loop
      vertex -3.09827 -3 -5
      vertex -2.7514 -2.99681 -25
      vertex -3.03086 -2.35867 -5
    endloop
  endfacet
  facet normal 0.994544 -0.102884 0.0172325
    outer loop
      vertex -2.7514 -2.99681 -25
      vertex -3.09827 -3 -5
      vertex -2.75173 -3 -25
    endloop
  endfacet
  facet normal 0.994544 0.102884 0.0172325
    outer loop
      vertex -3.09827 -3 -5
      vertex -2.7514 -3.00319 -25
      vertex -2.75173 -3 -25
    endloop
  endfacet
  facet normal 0.994374 0.104518 0.0172292
    outer loop
      vertex -2.7514 -3.00319 -25
      vertex -3.09827 -3 -5
      vertex -3.03086 -3.64133 -5
    endloop
  endfacet
  facet normal 0.994319 -0.105034 0.0172301
    outer loop
      vertex -3.03086 -2.35867 -5
      vertex -2.6916 -2.42788 -25
      vertex -3.03056 -2.35583 -5
    endloop
  endfacet
  facet normal 0.994374 -0.104518 0.0172292
    outer loop
      vertex -2.6916 -2.42788 -25
      vertex -3.03086 -2.35867 -5
      vertex -2.7514 -2.99681 -25
    endloop
  endfacet
  facet normal 0.950634 -0.309836 0.0172275
    outer loop
      vertex -2.6916 -2.42788 -25
      vertex -3.02968 -2.35313 -5
      vertex -3.03056 -2.35583 -5
    endloop
  endfacet
  facet normal 0.950913 -0.308978 0.017229
    outer loop
      vertex -3.02968 -2.35313 -5
      vertex -2.6916 -2.42788 -25
      vertex -2.51482 -1.88382 -25
    endloop
  endfacet
  facet normal 0 -0.999852 0.0172293
    outer loop
      vertex -0.287634 -0.263342 -25
      vertex 0.323856 0.0812942 -5
      vertex -0.323856 0.0812942 -5
    endloop
  endfacet
  facet normal 0 -0.999852 0.0172293
    outer loop
      vertex 0.323856 0.0812942 -5
      vertex -0.287634 -0.263342 -25
      vertex 0.287634 -0.263342 -25
    endloop
  endfacet
  facet normal -0.406675 -0.91341 0.0172291
    outer loop
      vertex 1.37587 -0.616931 -25
      vertex 1.54653 -0.315665 -5
      vertex 0.853263 -0.384252 -25
    endloop
  endfacet
  facet normal -0.406502 -0.913487 0.0172288
    outer loop
      vertex 1.54653 -0.315665 -5
      vertex 1.37587 -0.616931 -25
      vertex 1.54913 -0.316822 -5
    endloop
  endfacet
  facet normal -0.586478 -0.809782 0.0172318
    outer loop
      vertex 1.37587 -0.616931 -25
      vertex 1.55144 -0.318495 -5
      vertex 1.54913 -0.316822 -5
    endloop
  endfacet
  facet normal -0.587703 -0.808893 0.0172293
    outer loop
      vertex 1.55144 -0.318495 -5
      vertex 1.37587 -0.616931 -25
      vertex 1.83867 -0.953179 -25
    endloop
  endfacet
  facet normal -0.743032 -0.669035 0.0172295
    outer loop
      vertex 2.22405 -1.38019 -25
      vertex 2.50655 -1.17888 -5
      vertex 2.07505 -0.699655 -5
    endloop
  endfacet
  facet normal -0.741943 -0.670242 0.0172263
    outer loop
      vertex 2.50655 -1.17888 -5
      vertex 2.22405 -1.38019 -25
      vertex 2.2262 -1.38257 -25
    endloop
  endfacet
  facet normal -0.866816 -0.498331 0.0172258
    outer loop
      vertex 2.2262 -1.38257 -25
      vertex 2.50797 -1.18135 -5
      vertex 2.50655 -1.17888 -5
    endloop
  endfacet
  facet normal -0.865898 -0.499925 0.0172289
    outer loop
      vertex 2.50797 -1.18135 -5
      vertex 2.2262 -1.38257 -25
      vertex 2.51223 -1.87799 -25
    endloop
  endfacet
  facet normal -0.207862 -0.978007 0.0172293
    outer loop
      vertex 0.287634 -0.263342 -25
      vertex 0.32664 0.0807025 -5
      vertex 0.323856 0.0812942 -5
    endloop
  endfacet
  facet normal -0.207881 -0.978002 0.0172292
    outer loop
      vertex 0.32664 0.0807025 -5
      vertex 0.287634 -0.263342 -25
      vertex 0.847194 -0.38228 -25
    endloop
  endfacet
  facet normal -0.743796 -0.668185 0.0172273
    outer loop
      vertex 1.84127 -0.955065 -25
      vertex 2.07505 -0.699655 -5
      vertex 2.07315 -0.69754 -5
    endloop
  endfacet
  facet normal -0.743038 -0.669027 0.0172292
    outer loop
      vertex 2.07505 -0.699655 -5
      vertex 1.84127 -0.955065 -25
      vertex 2.22405 -1.38019 -25
    endloop
  endfacet
endsolid OpenSCAD_Model
